solid OpenSCAD_Model
  facet normal -0.970942 -0.239316 0
    outer loop
      vertex -13.0418 5.14111 19
      vertex -13.5 7 28
      vertex -13.5 7 19
    endloop
  endfacet
  facet normal -0.970942 -0.239316 0
    outer loop
      vertex -13.5 7 28
      vertex -13.0418 5.14111 19
      vertex -13.0418 5.14111 28
    endloop
  endfacet
  facet normal 1 -0 0
    outer loop
      vertex 33.3838 6.04274 28
      vertex 33.3838 7.95726 23.5
      vertex 33.3838 7.95726 28
    endloop
  endfacet
  facet normal 1 0 0
    outer loop
      vertex 33.3838 7.95726 23.5
      vertex 33.3838 7 19
      vertex 33.3838 7.95726 19
    endloop
  endfacet
  facet normal 1 0 0
    outer loop
      vertex 33.3838 6.04274 19
      vertex 33.3838 7.95726 23.5
      vertex 33.3838 6.04274 28
    endloop
  endfacet
  facet normal 1 0 0
    outer loop
      vertex 33.3838 7.95726 23.5
      vertex 33.3838 6.04274 19
      vertex 33.3838 7 19
    endloop
  endfacet
  facet normal -0 0 -1
    outer loop
      vertex -10.1335 10.8 19
      vertex -13.0418 8.85889 19
      vertex -10.2296 10.8 19
    endloop
  endfacet
  facet normal 0 -0 -1
    outer loop
      vertex -13.0418 8.85889 19
      vertex -10.1335 10.8 19
      vertex -13.5 7 19
    endloop
  endfacet
  facet normal 0 0 -1
    outer loop
      vertex 29.0179 3.02917 19
      vertex 31.2662 3.5 19
      vertex 30.9184 3.25994 19
    endloop
  endfacet
  facet normal 0 0 -1
    outer loop
      vertex 29.0179 3.02917 19
      vertex 17.7764 3.5 19
      vertex 31.2662 3.5 19
    endloop
  endfacet
  facet normal -0 0 -1
    outer loop
      vertex 15.9582 5.14111 19
      vertex 15.0956 4.5816 19
      vertex 15.8187 5.70688 19
    endloop
  endfacet
  facet normal 0 0 -1
    outer loop
      vertex 17.2277 3.70806 19
      vertex 15.0956 4.5816 19
      vertex 15.9582 5.14111 19
    endloop
  endfacet
  facet normal 0 0 -1
    outer loop
      vertex 17.2277 3.70806 19
      vertex 13.4554 3.83257 19
      vertex 15.0956 4.5816 19
    endloop
  endfacet
  facet normal 0 0 -1
    outer loop
      vertex 17.7764 3.5 19
      vertex 13.4554 3.83257 19
      vertex 17.2277 3.70806 19
    endloop
  endfacet
  facet normal 0 0 -1
    outer loop
      vertex 17.7764 3.5 19
      vertex 6.45541 3.83257 19
      vertex 13.4554 3.83257 19
    endloop
  endfacet
  facet normal 0 0 -1
    outer loop
      vertex -9.98215 3.02917 19
      vertex 17.7764 3.5 19
      vertex 29.0179 3.02917 19
    endloop
  endfacet
  facet normal 0 0 -1
    outer loop
      vertex 3.30799 5.26995 19
      vertex 2.07038 6.09846 19
      vertex 2.8 7 19
    endloop
  endfacet
  facet normal 0 0 -1
    outer loop
      vertex 1.09555 4.5816 19
      vertex 3.30799 5.26995 19
      vertex 4.67067 4.08918 19
    endloop
  endfacet
  facet normal -0 0 -1
    outer loop
      vertex 3.30799 5.26995 19
      vertex 1.09555 4.5816 19
      vertex 2.07038 6.09846 19
    endloop
  endfacet
  facet normal 0 0 -1
    outer loop
      vertex -0.544592 3.83257 19
      vertex 4.67067 4.08918 19
      vertex 6.45541 3.83257 19
    endloop
  endfacet
  facet normal -0 0 -1
    outer loop
      vertex 4.67067 4.08918 19
      vertex -0.544592 3.83257 19
      vertex 1.09555 4.5816 19
    endloop
  endfacet
  facet normal -0 0 -1
    outer loop
      vertex 17.7764 3.5 19
      vertex -9.98215 3.02917 19
      vertex 6.45541 3.83257 19
    endloop
  endfacet
  facet normal -0 0 -1
    outer loop
      vertex 6.45541 3.83257 19
      vertex -9.98215 3.02917 19
      vertex -0.544592 3.83257 19
    endloop
  endfacet
  facet normal -0 0 -1
    outer loop
      vertex -0.544592 3.83257 19
      vertex -9.98215 3.02917 19
      vertex -7.54459 3.83257 19
    endloop
  endfacet
  facet normal 0 0 -1
    outer loop
      vertex -9.98215 3.02917 19
      vertex -9.32933 4.08918 19
      vertex -7.54459 3.83257 19
    endloop
  endfacet
  facet normal -0 0 -1
    outer loop
      vertex -9.32933 4.08918 19
      vertex -9.98215 3.02917 19
      vertex -9.98215 4.65485 19
    endloop
  endfacet
  facet normal 0 0 -1
    outer loop
      vertex 33.3838 7 19
      vertex 32.494 9.65249 19
      vertex 33.3838 7.95726 19
    endloop
  endfacet
  facet normal 0 0 -1
    outer loop
      vertex 30.4248 10.8 19
      vertex 32.494 9.65249 19
      vertex 33.3838 7 19
    endloop
  endfacet
  facet normal 0 0 -1
    outer loop
      vertex 32.494 9.65249 19
      vertex 30.4248 10.8 19
      vertex 30.9184 10.7401 19
    endloop
  endfacet
  facet normal 0 0 -1
    outer loop
      vertex 16.0704 7 19
      vertex 30.4248 10.8 19
      vertex 33.3838 7 19
    endloop
  endfacet
  facet normal 0 0 -1
    outer loop
      vertex 16.0704 7.90154 19
      vertex 30.4248 10.8 19
      vertex 16.0704 7 19
    endloop
  endfacet
  facet normal 0 0 -1
    outer loop
      vertex 15.0956 9.4184 19
      vertex 30.4248 10.8 19
      vertex 16.0704 7.90154 19
    endloop
  endfacet
  facet normal 0 0 -1
    outer loop
      vertex 13.4554 10.1674 19
      vertex 30.4248 10.8 19
      vertex 15.0956 9.4184 19
    endloop
  endfacet
  facet normal 0 0 -1
    outer loop
      vertex 6.45541 10.1674 19
      vertex 30.4248 10.8 19
      vertex 13.4554 10.1674 19
    endloop
  endfacet
  facet normal 0 0 -1
    outer loop
      vertex 2.07038 7.90154 19
      vertex 2.8 7 19
      vertex 2.07038 6.09846 19
    endloop
  endfacet
  facet normal 0 0 -1
    outer loop
      vertex 2.8 7 19
      vertex 2.07038 7.90154 19
      vertex 3.30799 8.73005 19
    endloop
  endfacet
  facet normal 0 0 -1
    outer loop
      vertex 1.09555 9.4184 19
      vertex 3.30799 8.73005 19
      vertex 2.07038 7.90154 19
    endloop
  endfacet
  facet normal 0 0 -1
    outer loop
      vertex 3.30799 8.73005 19
      vertex 1.09555 9.4184 19
      vertex 4.67067 9.91082 19
    endloop
  endfacet
  facet normal 0 0 -1
    outer loop
      vertex -0.544592 10.1674 19
      vertex 4.67067 9.91082 19
      vertex 1.09555 9.4184 19
    endloop
  endfacet
  facet normal 0 0 -1
    outer loop
      vertex 4.67067 9.91082 19
      vertex -0.544592 10.1674 19
      vertex 6.45541 10.1674 19
    endloop
  endfacet
  facet normal 0 0 -1
    outer loop
      vertex -9.98215 10.8 19
      vertex 6.45541 10.1674 19
      vertex -0.544592 10.1674 19
    endloop
  endfacet
  facet normal 0 0 -1
    outer loop
      vertex -9.98215 10.8 19
      vertex -0.544592 10.1674 19
      vertex -7.54459 10.1674 19
    endloop
  endfacet
  facet normal 0 0 -1
    outer loop
      vertex 6.45541 10.1674 19
      vertex -9.98215 10.8 19
      vertex 30.4248 10.8 19
    endloop
  endfacet
  facet normal 0 0 -1
    outer loop
      vertex -9.32933 9.91082 19
      vertex -9.98215 10.8 19
      vertex -7.54459 10.1674 19
    endloop
  endfacet
  facet normal 0 0 -1
    outer loop
      vertex -9.98215 10.8 19
      vertex -9.32933 9.91082 19
      vertex -9.98215 9.34515 19
    endloop
  endfacet
  facet normal -0.748511 -0.663123 0
    outer loop
      vertex -11.7723 3.70807 19
      vertex -13.0418 5.14111 28
      vertex -13.0418 5.14111 19
    endloop
  endfacet
  facet normal -0.748511 -0.663123 0
    outer loop
      vertex -13.0418 5.14111 28
      vertex -11.7723 3.70807 19
      vertex -11.7723 3.70807 28
    endloop
  endfacet
  facet normal -0.970942 0.239316 0
    outer loop
      vertex -13.5 7 19
      vertex -13.0418 8.85889 28
      vertex -13.0418 8.85889 19
    endloop
  endfacet
  facet normal -0.970942 0.239316 0
    outer loop
      vertex -13.0418 8.85889 28
      vertex -13.5 7 19
      vertex -13.5 7 28
    endloop
  endfacet
  facet normal 0 0 1
    outer loop
      vertex 15.5 7 28
      vertex 14.7452 7.00833 28
      vertex 14.75 7 28
    endloop
  endfacet
  facet normal 0 0 1
    outer loop
      vertex 15.5 7 28
      vertex 13.875 8.51554 28
      vertex 14.7452 7.00833 28
    endloop
  endfacet
  facet normal 0 0 1
    outer loop
      vertex 15.3643 10.8 28
      vertex 5.125 8.51554 28
      vertex 13.875 8.51554 28
    endloop
  endfacet
  facet normal 0 0 1
    outer loop
      vertex 5.125 8.51554 28
      vertex 0.750001 7 28
      vertex 4.25 7 28
    endloop
  endfacet
  facet normal 0 0 1
    outer loop
      vertex 5.125 8.51554 28
      vertex -0.124999 8.51554 28
      vertex 0.750001 7 28
    endloop
  endfacet
  facet normal 0 0 1
    outer loop
      vertex 15.3643 10.8 28
      vertex -0.124999 8.51554 28
      vertex 5.125 8.51554 28
    endloop
  endfacet
  facet normal -0 0 1
    outer loop
      vertex -10.4326 10.8 28
      vertex -0.124999 8.51554 28
      vertex 15.3643 10.8 28
    endloop
  endfacet
  facet normal 0 0 1
    outer loop
      vertex -0.124999 8.51554 28
      vertex -10.4326 10.8 28
      vertex -8.875 8.51554 28
    endloop
  endfacet
  facet normal -0 0 1
    outer loop
      vertex -11.7723 10.2919 28
      vertex -8.875 8.51554 28
      vertex -10.4326 10.8 28
    endloop
  endfacet
  facet normal 0 0 1
    outer loop
      vertex -8.875 8.51554 28
      vertex -11.7723 10.2919 28
      vertex -9.75 7 28
    endloop
  endfacet
  facet normal 0 0 1
    outer loop
      vertex -9.75 7 28
      vertex -11.7723 10.2919 28
      vertex -13.0418 8.85889 28
    endloop
  endfacet
  facet normal 0 0 1
    outer loop
      vertex -9.75 7 28
      vertex -11.7723 3.70807 28
      vertex -9.98215 3.02917 28
    endloop
  endfacet
  facet normal 0 0 1
    outer loop
      vertex -9.75 7 28
      vertex -13.0418 8.85889 28
      vertex -13.5 7 28
    endloop
  endfacet
  facet normal 0 0 1
    outer loop
      vertex -9.75 7 28
      vertex -13.0418 5.14111 28
      vertex -11.7723 3.70807 28
    endloop
  endfacet
  facet normal 0 0 1
    outer loop
      vertex -9.75 7 28
      vertex -13.5 7 28
      vertex -13.0418 5.14111 28
    endloop
  endfacet
  facet normal 0 0 1
    outer loop
      vertex 30.9184 7 28
      vertex 29.0179 3.02917 28
      vertex 30.9184 3.25994 28
    endloop
  endfacet
  facet normal -0 0 1
    outer loop
      vertex 15.5 7 28
      vertex 29.0179 3.02917 28
      vertex 30.9184 7 28
    endloop
  endfacet
  facet normal -0 0 1
    outer loop
      vertex 13.875 8.51554 28
      vertex 15.5 7 28
      vertex 15.3643 10.8 28
    endloop
  endfacet
  facet normal 0 0 1
    outer loop
      vertex 13.875 5.48446 28
      vertex 15.5 7 28
      vertex 14.75 7 28
    endloop
  endfacet
  facet normal 0 0 1
    outer loop
      vertex 15.5 7 28
      vertex 13.875 5.48446 28
      vertex 29.0179 3.02917 28
    endloop
  endfacet
  facet normal -0 0 1
    outer loop
      vertex 5.125 5.48446 28
      vertex 29.0179 3.02917 28
      vertex 13.875 5.48446 28
    endloop
  endfacet
  facet normal -0 0 1
    outer loop
      vertex 0.750001 7 28
      vertex 5.125 5.48446 28
      vertex 4.25 7 28
    endloop
  endfacet
  facet normal 0 0 1
    outer loop
      vertex -0.124999 5.48446 28
      vertex 5.125 5.48446 28
      vertex 0.750001 7 28
    endloop
  endfacet
  facet normal 0 0 1
    outer loop
      vertex -9.98215 3.02917 28
      vertex 5.125 5.48446 28
      vertex -0.124999 5.48446 28
    endloop
  endfacet
  facet normal 0 0 1
    outer loop
      vertex -9.98215 3.02917 28
      vertex -0.124999 5.48446 28
      vertex -8.875 5.48446 28
    endloop
  endfacet
  facet normal 0 0 1
    outer loop
      vertex 5.125 5.48446 28
      vertex -9.98215 3.02917 28
      vertex 29.0179 3.02917 28
    endloop
  endfacet
  facet normal 0 0 1
    outer loop
      vertex -9.98215 3.02917 28
      vertex -8.875 5.48446 28
      vertex -9.75 7 28
    endloop
  endfacet
  facet normal -0.354605 -0.935016 0
    outer loop
      vertex -11.7723 3.70807 19
      vertex -9.98215 3.02917 28
      vertex -11.7723 3.70807 28
    endloop
  endfacet
  facet normal -0.354605 -0.935016 -0
    outer loop
      vertex -9.98215 3.02917 28
      vertex -11.7723 3.70807 19
      vertex -9.98215 3.02917 19
    endloop
  endfacet
  facet normal 0 0 -1
    outer loop
      vertex -9.98215 3.02917 19
      vertex -11.7723 3.70807 19
      vertex -13.0418 5.14111 19
    endloop
  endfacet
  facet normal 0.568065 -0.822984 0
    outer loop
      vertex 30.9184 3.25994 19
      vertex 31.2662 3.5 28
      vertex 30.9184 3.25994 28
    endloop
  endfacet
  facet normal 0.568065 -0.822984 0
    outer loop
      vertex 31.2662 3.5 28
      vertex 30.9184 3.25994 19
      vertex 31.2662 3.5 19
    endloop
  endfacet
  facet normal -0 0 1
    outer loop
      vertex 31.1311 3.5 28
      vertex 30.9184 3.25994 28
      vertex 31.2662 3.5 28
    endloop
  endfacet
  facet normal 0.120536 -0.992709 0
    outer loop
      vertex 29.0179 3.02917 19
      vertex 30.9184 3.25994 28
      vertex 29.0179 3.02917 28
    endloop
  endfacet
  facet normal 0.120536 -0.992709 0
    outer loop
      vertex 30.9184 3.25994 28
      vertex 29.0179 3.02917 19
      vertex 30.9184 3.25994 19
    endloop
  endfacet
  facet normal 0 0 -1
    outer loop
      vertex -9.98215 3.02917 19
      vertex -10.692 5.26995 19
      vertex -9.98215 4.65485 19
    endloop
  endfacet
  facet normal 0 0 -1
    outer loop
      vertex -10.692 5.26995 19
      vertex -13.5 7 19
      vertex -11.2 7 19
    endloop
  endfacet
  facet normal 0 0 -1
    outer loop
      vertex -13.5 7 19
      vertex -10.692 5.26995 19
      vertex -9.98215 3.02917 19
    endloop
  endfacet
  facet normal 0 0 -1
    outer loop
      vertex -9.98215 9.34515 19
      vertex -10.1335 10.8 19
      vertex -9.98215 10.8 19
    endloop
  endfacet
  facet normal 0 0 -1
    outer loop
      vertex -10.692 8.73005 19
      vertex -10.1335 10.8 19
      vertex -9.98215 9.34515 19
    endloop
  endfacet
  facet normal 0 0 -1
    outer loop
      vertex -13.5 7 19
      vertex -10.692 8.73005 19
      vertex -11.2 7 19
    endloop
  endfacet
  facet normal -0 0 -1
    outer loop
      vertex -10.692 8.73005 19
      vertex -13.5 7 19
      vertex -10.1335 10.8 19
    endloop
  endfacet
  facet normal 0 0 -1
    outer loop
      vertex -9.98215 3.02917 19
      vertex -13.0418 5.14111 19
      vertex -13.5 7 19
    endloop
  endfacet
  facet normal -0 0 -1
    outer loop
      vertex -10.2296 10.8 19
      vertex -11.7723 10.2919 19
      vertex -10.4326 10.8 19
    endloop
  endfacet
  facet normal 0 -0 -1
    outer loop
      vertex -11.7723 10.2919 19
      vertex -10.2296 10.8 19
      vertex -13.0418 8.85889 19
    endloop
  endfacet
  facet normal 0 -1 0
    outer loop
      vertex -9.98215 3.02917 19
      vertex 29.0179 3.02917 28
      vertex -9.98215 3.02917 28
    endloop
  endfacet
  facet normal 0 -1 -0
    outer loop
      vertex 29.0179 3.02917 28
      vertex -9.98215 3.02917 19
      vertex 29.0179 3.02917 19
    endloop
  endfacet
  facet normal 0 0 1
    outer loop
      vertex 31.1311 3.5 28
      vertex 30.9184 3.5 28
      vertex 30.9184 3.25994 28
    endloop
  endfacet
  facet normal 0 0 0
    outer loop
      vertex 30.9184 3.5 28
      vertex 30.9184 7 28
      vertex 30.9184 3.25994 28
    endloop
  endfacet
  facet normal -0.748511 0.663123 0
    outer loop
      vertex -13.0418 8.85889 19
      vertex -11.7723 10.2919 28
      vertex -11.7723 10.2919 19
    endloop
  endfacet
  facet normal -0.748511 0.663123 0
    outer loop
      vertex -11.7723 10.2919 28
      vertex -13.0418 8.85889 19
      vertex -13.0418 8.85889 28
    endloop
  endfacet
  facet normal -0.354605 0.935016 0
    outer loop
      vertex -10.4326 10.8 19
      vertex -11.7723 10.2919 28
      vertex -10.4326 10.8 28
    endloop
  endfacet
  facet normal -0.354605 0.935016 0
    outer loop
      vertex -11.7723 10.2919 28
      vertex -10.4326 10.8 19
      vertex -11.7723 10.2919 19
    endloop
  endfacet
  facet normal 0.959493 0.281733 0
    outer loop
      vertex -10.692 5.26995 22.99
      vertex -11.2 7 19
      vertex -11.2 7 22.99
    endloop
  endfacet
  facet normal 0.959493 0.281733 0
    outer loop
      vertex -11.2 7 19
      vertex -10.692 5.26995 22.99
      vertex -10.692 5.26995 19
    endloop
  endfacet
  facet normal -1 0 0
    outer loop
      vertex 2.07038 6.09846 19
      vertex 2.07038 7.90154 22.99
      vertex 2.07038 7.90154 19
    endloop
  endfacet
  facet normal -1 -0 0
    outer loop
      vertex 2.07038 7.90154 22.99
      vertex 2.07038 6.09846 19
      vertex 2.07038 6.09846 22.99
    endloop
  endfacet
  facet normal 0.142315 -0.989821 0
    outer loop
      vertex -9.32933 9.91082 19
      vertex -7.54459 10.1674 22.99
      vertex -9.32933 9.91082 22.99
    endloop
  endfacet
  facet normal 0.142315 -0.989821 0
    outer loop
      vertex -7.54459 10.1674 22.99
      vertex -9.32933 9.91082 19
      vertex -7.54459 10.1674 19
    endloop
  endfacet
  facet normal 0.654861 0.75575 0
    outer loop
      vertex -9.98215 4.65485 19
      vertex -9.32933 4.08918 22.99
      vertex -9.32933 4.08918 19
    endloop
  endfacet
  facet normal 0.654861 0.75575 -2.46687e-008
    outer loop
      vertex -9.32933 4.08918 22.99
      vertex -9.98215 4.65485 19
      vertex -10.692 5.26995 22.99
    endloop
  endfacet
  facet normal 0.654861 0.755749 0
    outer loop
      vertex -10.692 5.26995 22.99
      vertex -9.98215 4.65485 19
      vertex -10.692 5.26995 19
    endloop
  endfacet
  facet normal 0 1 -0
    outer loop
      vertex -0.544592 3.83257 19
      vertex -7.54459 3.83257 22.99
      vertex -0.544592 3.83257 22.99
    endloop
  endfacet
  facet normal 0 1 0
    outer loop
      vertex -7.54459 3.83257 22.99
      vertex -0.544592 3.83257 19
      vertex -7.54459 3.83257 19
    endloop
  endfacet
  facet normal -0.841253 0.540641 0
    outer loop
      vertex 1.09555 4.5816 19
      vertex 2.07038 6.09846 22.99
      vertex 2.07038 6.09846 19
    endloop
  endfacet
  facet normal -0.841253 0.540641 0
    outer loop
      vertex 2.07038 6.09846 22.99
      vertex 1.09555 4.5816 19
      vertex 1.09555 4.5816 22.99
    endloop
  endfacet
  facet normal -0.415415 0.909632 0
    outer loop
      vertex 1.09555 4.5816 19
      vertex -0.544592 3.83257 22.99
      vertex 1.09555 4.5816 22.99
    endloop
  endfacet
  facet normal -0.415415 0.909632 0
    outer loop
      vertex -0.544592 3.83257 22.99
      vertex 1.09555 4.5816 19
      vertex -0.544592 3.83257 19
    endloop
  endfacet
  facet normal 0.959493 -0.281733 0
    outer loop
      vertex -11.2 7 22.99
      vertex -10.692 8.73005 19
      vertex -10.692 8.73005 22.99
    endloop
  endfacet
  facet normal 0.959493 -0.281733 0
    outer loop
      vertex -10.692 8.73005 19
      vertex -11.2 7 22.99
      vertex -11.2 7 19
    endloop
  endfacet
  facet normal 0 0 -1
    outer loop
      vertex -0.125 5.48446 22.99
      vertex 2.07038 6.09846 22.99
      vertex 1.09555 4.5816 22.99
    endloop
  endfacet
  facet normal 0 0 -1
    outer loop
      vertex 2.07038 6.09846 22.99
      vertex 0.75 7 22.99
      vertex 2.07038 7.90154 22.99
    endloop
  endfacet
  facet normal 6.16342e-007 -9.02679e-007 -1
    outer loop
      vertex -0.125 8.51554 22.99
      vertex 2.07038 7.90154 22.99
      vertex 0.75 7 22.99
    endloop
  endfacet
  facet normal -0 0 -1
    outer loop
      vertex 2.07038 6.09846 22.99
      vertex -0.125 5.48446 22.99
      vertex 0.75 7 22.99
    endloop
  endfacet
  facet normal 0 0 -1
    outer loop
      vertex -0.544592 3.83257 22.99
      vertex -0.125 5.48446 22.99
      vertex 1.09555 4.5816 22.99
    endloop
  endfacet
  facet normal 2.72478e-007 -6.92118e-008 -1
    outer loop
      vertex -7.54459 3.83257 22.99
      vertex -0.125 5.48446 22.99
      vertex -0.544592 3.83257 22.99
    endloop
  endfacet
  facet normal 2.17983e-007 1.75561e-007 -1
    outer loop
      vertex -7.54459 3.83257 22.99
      vertex -8.875 5.48446 22.99
      vertex -0.125 5.48446 22.99
    endloop
  endfacet
  facet normal 0 0 -1
    outer loop
      vertex -9.32933 4.08918 22.99
      vertex -8.875 5.48446 22.99
      vertex -7.54459 3.83257 22.99
    endloop
  endfacet
  facet normal 0 0 -1
    outer loop
      vertex -10.692 5.26995 22.99
      vertex -8.875 5.48446 22.99
      vertex -9.32933 4.08918 22.99
    endloop
  endfacet
  facet normal -0 0 -1
    outer loop
      vertex -8.875 5.48446 22.99
      vertex -10.692 5.26995 22.99
      vertex -9.75 7 22.99
    endloop
  endfacet
  facet normal 6.30438e-007 -8.52279e-007 -1
    outer loop
      vertex 2.07038 7.90154 22.99
      vertex -0.125 8.51554 22.99
      vertex 1.09555 9.4184 22.99
    endloop
  endfacet
  facet normal 0 0 -1
    outer loop
      vertex -0.125 8.51554 22.99
      vertex -0.544592 10.1674 22.99
      vertex 1.09555 9.4184 22.99
    endloop
  endfacet
  facet normal 0 0 -1
    outer loop
      vertex -0.125 8.51554 22.99
      vertex -7.54459 10.1674 22.99
      vertex -0.544592 10.1674 22.99
    endloop
  endfacet
  facet normal 0 0 -1
    outer loop
      vertex -8.875 8.51554 22.99
      vertex -7.54459 10.1674 22.99
      vertex -0.125 8.51554 22.99
    endloop
  endfacet
  facet normal 0 0 -1
    outer loop
      vertex -8.875 8.51554 22.99
      vertex -9.32933 9.91082 22.99
      vertex -7.54459 10.1674 22.99
    endloop
  endfacet
  facet normal 0 0 -1
    outer loop
      vertex -10.692 8.73005 22.99
      vertex -8.875 8.51554 22.99
      vertex -9.75 7 22.99
    endloop
  endfacet
  facet normal 0 0 -1
    outer loop
      vertex -11.2 7 22.99
      vertex -9.75 7 22.99
      vertex -10.692 5.26995 22.99
    endloop
  endfacet
  facet normal 0 0 -1
    outer loop
      vertex -8.875 8.51554 22.99
      vertex -10.692 8.73005 22.99
      vertex -9.32933 9.91082 22.99
    endloop
  endfacet
  facet normal 0 0 -1
    outer loop
      vertex -9.75 7 22.99
      vertex -11.2 7 22.99
      vertex -10.692 8.73005 22.99
    endloop
  endfacet
  facet normal 0.654861 -0.75575 0
    outer loop
      vertex -9.98215 9.34515 19
      vertex -10.692 8.73005 22.99
      vertex -10.692 8.73005 19
    endloop
  endfacet
  facet normal 0.654861 -0.75575 6.56495e-008
    outer loop
      vertex -10.692 8.73005 22.99
      vertex -9.98215 9.34515 19
      vertex -9.32933 9.91082 22.99
    endloop
  endfacet
  facet normal 0.654861 -0.755749 0
    outer loop
      vertex -9.32933 9.91082 22.99
      vertex -9.98215 9.34515 19
      vertex -9.32933 9.91082 19
    endloop
  endfacet
  facet normal 0.142315 0.989821 -0
    outer loop
      vertex -7.54459 3.83257 19
      vertex -9.32933 4.08918 22.99
      vertex -7.54459 3.83257 22.99
    endloop
  endfacet
  facet normal 0.142315 0.989821 0
    outer loop
      vertex -9.32933 4.08918 22.99
      vertex -7.54459 3.83257 19
      vertex -9.32933 4.08918 19
    endloop
  endfacet
  facet normal 0 -1 0
    outer loop
      vertex -7.54459 10.1674 19
      vertex -0.544592 10.1674 22.99
      vertex -7.54459 10.1674 22.99
    endloop
  endfacet
  facet normal 0 -1 -0
    outer loop
      vertex -0.544592 10.1674 22.99
      vertex -7.54459 10.1674 19
      vertex -0.544592 10.1674 19
    endloop
  endfacet
  facet normal -0.415415 -0.909632 0
    outer loop
      vertex -0.544592 10.1674 19
      vertex 1.09555 9.4184 22.99
      vertex -0.544592 10.1674 22.99
    endloop
  endfacet
  facet normal -0.415415 -0.909632 -0
    outer loop
      vertex 1.09555 9.4184 22.99
      vertex -0.544592 10.1674 19
      vertex 1.09555 9.4184 19
    endloop
  endfacet
  facet normal -0.841253 -0.540641 0
    outer loop
      vertex 2.07038 7.90154 19
      vertex 1.09555 9.4184 22.99
      vertex 1.09555 9.4184 19
    endloop
  endfacet
  facet normal -0.841253 -0.540641 0
    outer loop
      vertex 1.09555 9.4184 22.99
      vertex 2.07038 7.90154 19
      vertex 2.07038 7.90154 22.99
    endloop
  endfacet
  facet normal 0.959493 0.281733 0
    outer loop
      vertex 3.30799 5.26995 22.99
      vertex 2.8 7 19
      vertex 2.8 7 22.99
    endloop
  endfacet
  facet normal 0.959493 0.281733 0
    outer loop
      vertex 2.8 7 19
      vertex 3.30799 5.26995 22.99
      vertex 3.30799 5.26995 19
    endloop
  endfacet
  facet normal 0.142315 -0.989821 0
    outer loop
      vertex 4.67067 9.91082 19
      vertex 6.45541 10.1674 22.99
      vertex 4.67067 9.91082 22.99
    endloop
  endfacet
  facet normal 0.142315 -0.989821 0
    outer loop
      vertex 6.45541 10.1674 22.99
      vertex 4.67067 9.91082 19
      vertex 6.45541 10.1674 19
    endloop
  endfacet
  facet normal 0.654861 0.75575 -0
    outer loop
      vertex 4.67067 4.08918 19
      vertex 3.30799 5.26995 22.99
      vertex 4.67067 4.08918 22.99
    endloop
  endfacet
  facet normal 0.654861 0.75575 0
    outer loop
      vertex 3.30799 5.26995 22.99
      vertex 4.67067 4.08918 19
      vertex 3.30799 5.26995 19
    endloop
  endfacet
  facet normal 0 1 -0
    outer loop
      vertex 13.4554 3.83257 19
      vertex 6.45541 3.83257 22.99
      vertex 13.4554 3.83257 22.99
    endloop
  endfacet
  facet normal 0 1 0
    outer loop
      vertex 6.45541 3.83257 22.99
      vertex 13.4554 3.83257 19
      vertex 6.45541 3.83257 19
    endloop
  endfacet
  facet normal -0.841253 0.540641 0
    outer loop
      vertex 15.0956 4.5816 19
      vertex 15.8187 5.70688 22.99
      vertex 15.8187 5.70688 19
    endloop
  endfacet
  facet normal -0.841253 0.540641 0
    outer loop
      vertex 15.8187 5.70688 22.99
      vertex 15.0956 4.5816 19
      vertex 15.0956 4.5816 22.99
    endloop
  endfacet
  facet normal -0.415415 0.909632 0
    outer loop
      vertex 15.0956 4.5816 19
      vertex 13.4554 3.83257 22.99
      vertex 15.0956 4.5816 22.99
    endloop
  endfacet
  facet normal -0.415415 0.909632 0
    outer loop
      vertex 13.4554 3.83257 22.99
      vertex 15.0956 4.5816 19
      vertex 13.4554 3.83257 19
    endloop
  endfacet
  facet normal 0.959493 -0.281733 0
    outer loop
      vertex 2.8 7 22.99
      vertex 3.30799 8.73005 19
      vertex 3.30799 8.73005 22.99
    endloop
  endfacet
  facet normal 0.959493 -0.281733 0
    outer loop
      vertex 3.30799 8.73005 19
      vertex 2.8 7 22.99
      vertex 2.8 7 19
    endloop
  endfacet
  facet normal 0 0 -1
    outer loop
      vertex 13.875 5.48446 22.99
      vertex 15.8187 5.70688 22.99
      vertex 15.0956 4.5816 22.99
    endloop
  endfacet
  facet normal 0 0 -1
    outer loop
      vertex 15.8187 5.70688 22.99
      vertex 14.75 7 22.99
      vertex 15.5 7 22.99
    endloop
  endfacet
  facet normal 0 0 -1
    outer loop
      vertex 14.2635 7.84271 22.99
      vertex 15.5 7 22.99
      vertex 14.75 7 22.99
    endloop
  endfacet
  facet normal 0 0 -1
    outer loop
      vertex 15.5 7 22.99
      vertex 14.2635 7.84271 22.99
      vertex 15.4323 8.89434 22.99
    endloop
  endfacet
  facet normal -0 0 -1
    outer loop
      vertex 15.8187 5.70688 22.99
      vertex 13.875 5.48446 22.99
      vertex 14.75 7 22.99
    endloop
  endfacet
  facet normal 0 0 -1
    outer loop
      vertex 13.4554 3.83257 22.99
      vertex 13.875 5.48446 22.99
      vertex 15.0956 4.5816 22.99
    endloop
  endfacet
  facet normal 0 0 -1
    outer loop
      vertex 6.45541 3.83257 22.99
      vertex 13.875 5.48446 22.99
      vertex 13.4554 3.83257 22.99
    endloop
  endfacet
  facet normal 0 0 -1
    outer loop
      vertex 6.45541 3.83257 22.99
      vertex 5.125 5.48446 22.99
      vertex 13.875 5.48446 22.99
    endloop
  endfacet
  facet normal 0 0 -1
    outer loop
      vertex 4.67067 4.08918 22.99
      vertex 5.125 5.48446 22.99
      vertex 6.45541 3.83257 22.99
    endloop
  endfacet
  facet normal 0 0 -1
    outer loop
      vertex 3.30799 5.26995 22.99
      vertex 5.125 5.48446 22.99
      vertex 4.67067 4.08918 22.99
    endloop
  endfacet
  facet normal -0 0 -1
    outer loop
      vertex 5.125 5.48446 22.99
      vertex 3.30799 5.26995 22.99
      vertex 4.25 7 22.99
    endloop
  endfacet
  facet normal 0 0 -1
    outer loop
      vertex 13.875 8.51554 22.99
      vertex 15.4323 8.89434 22.99
      vertex 14.2635 7.84271 22.99
    endloop
  endfacet
  facet normal -0 0 -1
    outer loop
      vertex 15.4323 8.89434 22.99
      vertex 13.875 8.51554 22.99
      vertex 15.0956 9.4184 22.99
    endloop
  endfacet
  facet normal 0 0 -1
    outer loop
      vertex 13.875 8.51554 22.99
      vertex 13.4554 10.1674 22.99
      vertex 15.0956 9.4184 22.99
    endloop
  endfacet
  facet normal 0 0 -1
    outer loop
      vertex 13.875 8.51554 22.99
      vertex 6.45541 10.1674 22.99
      vertex 13.4554 10.1674 22.99
    endloop
  endfacet
  facet normal 0 0 -1
    outer loop
      vertex 5.125 8.51554 22.99
      vertex 6.45541 10.1674 22.99
      vertex 13.875 8.51554 22.99
    endloop
  endfacet
  facet normal 0 0 -1
    outer loop
      vertex 5.125 8.51554 22.99
      vertex 4.67067 9.91082 22.99
      vertex 6.45541 10.1674 22.99
    endloop
  endfacet
  facet normal 0 0 -1
    outer loop
      vertex 3.30799 8.73005 22.99
      vertex 5.125 8.51554 22.99
      vertex 4.25 7 22.99
    endloop
  endfacet
  facet normal 0 0 -1
    outer loop
      vertex 2.8 7 22.99
      vertex 4.25 7 22.99
      vertex 3.30799 5.26995 22.99
    endloop
  endfacet
  facet normal 0 0 -1
    outer loop
      vertex 5.125 8.51554 22.99
      vertex 3.30799 8.73005 22.99
      vertex 4.67067 9.91082 22.99
    endloop
  endfacet
  facet normal 0 0 -1
    outer loop
      vertex 4.25 7 22.99
      vertex 2.8 7 22.99
      vertex 3.30799 8.73005 22.99
    endloop
  endfacet
  facet normal 0.654861 -0.75575 0
    outer loop
      vertex 3.30799 8.73005 19
      vertex 4.67067 9.91082 22.99
      vertex 3.30799 8.73005 22.99
    endloop
  endfacet
  facet normal 0.654861 -0.75575 0
    outer loop
      vertex 4.67067 9.91082 22.99
      vertex 3.30799 8.73005 19
      vertex 4.67067 9.91082 19
    endloop
  endfacet
  facet normal 0.142315 0.989821 -0
    outer loop
      vertex 6.45541 3.83257 19
      vertex 4.67067 4.08918 22.99
      vertex 6.45541 3.83257 22.99
    endloop
  endfacet
  facet normal 0.142315 0.989821 0
    outer loop
      vertex 4.67067 4.08918 22.99
      vertex 6.45541 3.83257 19
      vertex 4.67067 4.08918 19
    endloop
  endfacet
  facet normal 0 -1 0
    outer loop
      vertex 6.45541 10.1674 19
      vertex 13.4554 10.1674 22.99
      vertex 6.45541 10.1674 22.99
    endloop
  endfacet
  facet normal 0 -1 -0
    outer loop
      vertex 13.4554 10.1674 22.99
      vertex 6.45541 10.1674 19
      vertex 13.4554 10.1674 19
    endloop
  endfacet
  facet normal -0.415415 -0.909632 0
    outer loop
      vertex 13.4554 10.1674 19
      vertex 15.0956 9.4184 22.99
      vertex 13.4554 10.1674 22.99
    endloop
  endfacet
  facet normal -0.415415 -0.909632 -0
    outer loop
      vertex 15.0956 9.4184 22.99
      vertex 13.4554 10.1674 19
      vertex 15.0956 9.4184 19
    endloop
  endfacet
  facet normal -0.841253 -0.540642 0
    outer loop
      vertex 15.4323 8.89434 19
      vertex 15.0956 9.4184 22.99
      vertex 15.0956 9.4184 19
    endloop
  endfacet
  facet normal -0.841253 -0.540642 0
    outer loop
      vertex 15.0956 9.4184 22.99
      vertex 15.4323 8.89434 19
      vertex 15.4323 8.89434 22.99
    endloop
  endfacet
  facet normal 0 0 1
    outer loop
      vertex 15.0956 9.4184 19
      vertex 16.0704 7.90154 19
      vertex 15.4323 8.89434 19
    endloop
  endfacet
  facet normal 0.866025 0.5 0
    outer loop
      vertex -8.875 5.48446 28
      vertex -9.75 7 22.99
      vertex -9.75 7 28
    endloop
  endfacet
  facet normal 0.866025 0.5 0
    outer loop
      vertex -9.75 7 22.99
      vertex -8.875 5.48446 28
      vertex -8.875 5.48446 22.99
    endloop
  endfacet
  facet normal -0.866025 -0.5 9.01532e-008
    outer loop
      vertex 0.75 7 22.99
      vertex -0.124999 8.51554 28
      vertex -0.125 8.51554 22.99
    endloop
  endfacet
  facet normal -0.866025 -0.5 9.2729e-008
    outer loop
      vertex -0.124999 8.51554 28
      vertex 0.75 7 22.99
      vertex 0.750001 7 28
    endloop
  endfacet
  facet normal 0.866025 -0.5 0
    outer loop
      vertex -9.75 7 28
      vertex -8.875 8.51554 22.99
      vertex -8.875 8.51554 28
    endloop
  endfacet
  facet normal 0.866025 -0.5 0
    outer loop
      vertex -8.875 8.51554 22.99
      vertex -9.75 7 28
      vertex -9.75 7 22.99
    endloop
  endfacet
  facet normal 0 -1 0
    outer loop
      vertex -8.875 8.51554 22.99
      vertex -0.124999 8.51554 28
      vertex -8.875 8.51554 28
    endloop
  endfacet
  facet normal 0 -1 0
    outer loop
      vertex -0.124999 8.51554 28
      vertex -8.875 8.51554 22.99
      vertex -0.125 8.51554 22.99
    endloop
  endfacet
  facet normal -0.866025 0.5 9.2729e-008
    outer loop
      vertex -0.125 5.48446 22.99
      vertex 0.750001 7 28
      vertex 0.75 7 22.99
    endloop
  endfacet
  facet normal -0.866025 0.5 9.01532e-008
    outer loop
      vertex 0.750001 7 28
      vertex -0.125 5.48446 22.99
      vertex -0.124999 5.48446 28
    endloop
  endfacet
  facet normal 0 1 -0
    outer loop
      vertex -0.125 5.48446 22.99
      vertex -8.875 5.48446 28
      vertex -0.124999 5.48446 28
    endloop
  endfacet
  facet normal 0 1 0
    outer loop
      vertex -8.875 5.48446 28
      vertex -0.125 5.48446 22.99
      vertex -8.875 5.48446 22.99
    endloop
  endfacet
  facet normal 0.866025 0.5 -8.24258e-008
    outer loop
      vertex 5.125 5.48446 28
      vertex 4.25 7 22.99
      vertex 4.25 7 28
    endloop
  endfacet
  facet normal 0.866025 0.5 -8.24258e-008
    outer loop
      vertex 4.25 7 22.99
      vertex 5.125 5.48446 28
      vertex 5.125 5.48446 22.99
    endloop
  endfacet
  facet normal -0.866025 -0.500001 0
    outer loop
      vertex 14.2635 7.84271 22.99
      vertex 13.875 8.51554 28
      vertex 13.875 8.51554 22.99
    endloop
  endfacet
  facet normal -0.866025 -0.5 -8.31014e-008
    outer loop
      vertex 13.875 8.51554 28
      vertex 14.2635 7.84271 22.99
      vertex 14.7452 7.00833 28
    endloop
  endfacet
  facet normal 0 1 -0
    outer loop
      vertex 13.875 5.48446 22.99
      vertex 5.125 5.48446 28
      vertex 13.875 5.48446 28
    endloop
  endfacet
  facet normal 0 1 0
    outer loop
      vertex 5.125 5.48446 28
      vertex 13.875 5.48446 22.99
      vertex 5.125 5.48446 22.99
    endloop
  endfacet
  facet normal 0 -1 0
    outer loop
      vertex 5.125 8.51554 22.99
      vertex 13.875 8.51554 28
      vertex 5.125 8.51554 28
    endloop
  endfacet
  facet normal 0 -1 -0
    outer loop
      vertex 13.875 8.51554 28
      vertex 5.125 8.51554 22.99
      vertex 13.875 8.51554 22.99
    endloop
  endfacet
  facet normal 0.866025 -0.5 -8.24258e-008
    outer loop
      vertex 4.25 7 28
      vertex 5.125 8.51554 22.99
      vertex 5.125 8.51554 28
    endloop
  endfacet
  facet normal 0.866025 -0.5 -8.24258e-008
    outer loop
      vertex 5.125 8.51554 22.99
      vertex 4.25 7 28
      vertex 4.25 7 22.99
    endloop
  endfacet
  facet normal -0.866026 -0.499999 1.84657e-007
    outer loop
      vertex 14.75 7 22.99
      vertex 14.7452 7.00833 28
      vertex 14.2635 7.84271 22.99
    endloop
  endfacet
  facet normal -0.866031 -0.49999 1.64853e-007
    outer loop
      vertex 14.7452 7.00833 28
      vertex 14.75 7 22.99
      vertex 14.75 7 28
    endloop
  endfacet
  facet normal -0.866025 0.5 1.64852e-007
    outer loop
      vertex 13.875 5.48446 22.99
      vertex 14.75 7 28
      vertex 14.75 7 22.99
    endloop
  endfacet
  facet normal -0.866025 0.5 1.64852e-007
    outer loop
      vertex 14.75 7 28
      vertex 13.875 5.48446 22.99
      vertex 13.875 5.48446 28
    endloop
  endfacet
  facet normal 0 1 0
    outer loop
      vertex -9.98215 10.8 19
      vertex 15.3643 10.8 28
      vertex 15.3643 10.8 19
    endloop
  endfacet
  facet normal 0 1 0
    outer loop
      vertex 15.3643 10.8 28
      vertex -9.98215 10.8 19
      vertex -10.4326 10.8 28
    endloop
  endfacet
  facet normal 0 1 -0
    outer loop
      vertex -10.1335 10.8 19
      vertex -10.4326 10.8 28
      vertex -9.98215 10.8 19
    endloop
  endfacet
  facet normal 0 1 -0
    outer loop
      vertex -10.2296 10.8 19
      vertex -10.4326 10.8 28
      vertex -10.1335 10.8 19
    endloop
  endfacet
  facet normal 0 1 0
    outer loop
      vertex -10.4326 10.8 28
      vertex -10.2296 10.8 19
      vertex -10.4326 10.8 19
    endloop
  endfacet
  facet normal 0 0 0
    outer loop
      vertex -9.98215 10.8 19
      vertex 15.3643 10.8 19
      vertex 30.4248 10.8 19
    endloop
  endfacet
  facet normal -0.630421 -0.00907751 -0.7762
    outer loop
      vertex 18.2682 52.0666 21.54
      vertex 17.8251 53.7205 21.8806
      vertex 18.3203 51.8723 21.5
    endloop
  endfacet
  facet normal -0.258819 0.965926 0
    outer loop
      vertex 17.0262 56.7019 26.5
      vertex 12.1966 55.4078 70
      vertex 17.0262 56.7019 70
    endloop
  endfacet
  facet normal -0.258819 0.965926 0
    outer loop
      vertex 12.1966 55.4078 70
      vertex 17.0262 56.7019 26.5
      vertex 12.1966 55.4078 26.5
    endloop
  endfacet
  facet normal 0.0504929 -0.188442 0.980785
    outer loop
      vertex 18.3203 51.8723 75
      vertex 13.9859 48.73 74.6194
      vertex 18.8156 50.0241 74.6194
    endloop
  endfacet
  facet normal 0.0504927 -0.188441 0.980786
    outer loop
      vertex 13.9859 48.73 74.6194
      vertex 18.3203 51.8723 75
      vertex 13.4907 50.5782 75
    endloop
  endfacet
  facet normal 0.143792 -0.536639 0.83147
    outer loop
      vertex 18.8156 50.0241 74.6194
      vertex 14.4058 47.1631 73.5355
      vertex 19.2354 48.4572 73.5355
    endloop
  endfacet
  facet normal 0.143792 -0.536639 0.83147
    outer loop
      vertex 14.4058 47.1631 73.5355
      vertex 18.8156 50.0241 74.6194
      vertex 13.9859 48.73 74.6194
    endloop
  endfacet
  facet normal -0.965926 -0.258819 -0
    outer loop
      vertex 13.4907 50.5782 68.25
      vertex 12.9955 52.4264 31.1194
      vertex 13.4907 50.5782 31.5
    endloop
  endfacet
  facet normal -0.965926 -0.258819 2.19856e-008
    outer loop
      vertex 12.9955 52.4264 31.1194
      vertex 13.4907 50.5782 68.25
      vertex 13.0984 52.0421 69.125
    endloop
  endfacet
  facet normal -0.965926 -0.258819 0
    outer loop
      vertex 13.9859 48.73 31.1194
      vertex 13.4907 50.5782 68.25
      vertex 13.4907 50.5782 31.5
    endloop
  endfacet
  facet normal -0.965925 -0.25882 -3.5706e-006
    outer loop
      vertex 13.4907 50.5782 68.25
      vertex 14.7848 45.7486 70
      vertex 13.8829 49.1143 69.125
    endloop
  endfacet
  facet normal -0.965926 -0.258819 1.42048e-008
    outer loop
      vertex 14.7848 45.7486 70
      vertex 13.4907 50.5782 68.25
      vertex 13.9859 48.73 31.1194
    endloop
  endfacet
  facet normal -0.965926 -0.258819 -2.11765e-008
    outer loop
      vertex 12.2951 55.0402 28.4134
      vertex 12.1966 55.4078 70
      vertex 12.1966 55.4078 26.5
    endloop
  endfacet
  facet normal -0.965926 -0.258819 -1.90809e-008
    outer loop
      vertex 12.5756 53.9932 30.0355
      vertex 12.1966 55.4078 70
      vertex 12.2951 55.0402 28.4134
    endloop
  endfacet
  facet normal -0.965926 -0.258819 -1.82605e-009
    outer loop
      vertex 12.9955 52.4264 31.1194
      vertex 12.1966 55.4078 70
      vertex 12.5756 53.9932 30.0355
    endloop
  endfacet
  facet normal -0.965926 -0.258819 -0
    outer loop
      vertex 13.0984 52.0421 70.875
      vertex 12.1966 55.4078 70
      vertex 13.0984 52.0421 69.125
    endloop
  endfacet
  facet normal -0.965926 -0.258819 2.9112e-007
    outer loop
      vertex 12.1966 55.4078 70
      vertex 13.0984 52.0421 70.875
      vertex 12.2951 55.0402 71.9134
    endloop
  endfacet
  facet normal -0.965926 -0.258819 1.62443e-008
    outer loop
      vertex 12.1966 55.4078 70
      vertex 12.9955 52.4264 31.1194
      vertex 13.0984 52.0421 69.125
    endloop
  endfacet
  facet normal -0.965926 -0.258819 -3.01707e-007
    outer loop
      vertex 12.2951 55.0402 71.9134
      vertex 13.0984 52.0421 70.875
      vertex 12.5756 53.9932 73.5355
    endloop
  endfacet
  facet normal -0.965926 -0.258819 -1.56116e-007
    outer loop
      vertex 12.5756 53.9932 73.5355
      vertex 13.0984 52.0421 70.875
      vertex 12.9955 52.4264 74.6194
    endloop
  endfacet
  facet normal -0.965926 -0.258819 -1.94883e-007
    outer loop
      vertex 13.4907 50.5782 71.75
      vertex 12.9955 52.4264 74.6194
      vertex 13.0984 52.0421 70.875
    endloop
  endfacet
  facet normal -0.965926 -0.258819 -2.8344e-007
    outer loop
      vertex 13.4907 50.5782 71.75
      vertex 13.4907 50.5782 75
      vertex 12.9955 52.4264 74.6194
    endloop
  endfacet
  facet normal -0.965926 -0.258818 2.55736e-007
    outer loop
      vertex 13.9859 48.73 74.6194
      vertex 13.4907 50.5782 71.75
      vertex 13.8829 49.1143 70.875
    endloop
  endfacet
  facet normal -0.965926 -0.258819 -2.8344e-007
    outer loop
      vertex 13.4907 50.5782 71.75
      vertex 13.9859 48.73 74.6194
      vertex 13.4907 50.5782 75
    endloop
  endfacet
  facet normal -0.965926 -0.258819 0
    outer loop
      vertex 13.8829 49.1143 69.125
      vertex 14.7848 45.7486 70
      vertex 13.8829 49.1143 70.875
    endloop
  endfacet
  facet normal -0.965926 -0.258819 4.62528e-008
    outer loop
      vertex 14.7848 45.7486 70
      vertex 13.9859 48.73 31.1194
      vertex 14.4058 47.1631 30.0355
    endloop
  endfacet
  facet normal -0.965926 -0.258819 -2.9112e-007
    outer loop
      vertex 14.6863 46.1162 71.9134
      vertex 13.8829 49.1143 70.875
      vertex 14.7848 45.7486 70
    endloop
  endfacet
  facet normal -0.965927 -0.258813 -5.03842e-006
    outer loop
      vertex 14.7848 45.7486 28
      vertex 14.4058 47.1631 30.0355
      vertex 14.6863 46.1162 28.4134
    endloop
  endfacet
  facet normal -0.965926 -0.258819 2.16504e-007
    outer loop
      vertex 13.8829 49.1143 70.875
      vertex 14.4058 47.1631 73.5355
      vertex 13.9859 48.73 74.6194
    endloop
  endfacet
  facet normal -0.965926 -0.25882 1.46202e-006
    outer loop
      vertex 14.7848 45.7486 28
      vertex 14.6863 46.1162 28.4134
      vertex 14.7173 46.0004 28
    endloop
  endfacet
  facet normal -0.965926 -0.25882 0
    outer loop
      vertex 14.4058 47.1631 30.0355
      vertex 14.7848 45.7486 28
      vertex 14.7848 45.7486 70
    endloop
  endfacet
  facet normal -0.965926 -0.258819 -1.95748e-007
    outer loop
      vertex 13.8829 49.1143 70.875
      vertex 14.6863 46.1162 71.9134
      vertex 14.4058 47.1631 73.5355
    endloop
  endfacet
  facet normal -0.965925 -0.258821 -0
    outer loop
      vertex 12.1966 55.4078 70
      vertex 12.1966 55.4078 26.5
      vertex 12.2883 55.0655 24.7185
    endloop
  endfacet
  facet normal 0.965926 0.258818 2.11765e-008
    outer loop
      vertex 12.1966 55.4078 70
      vertex 12.2883 55.0655 24.7185
      vertex 12.1966 55.4078 26.5
    endloop
  endfacet
  facet normal -0.9646 -0.117279 0.236206
    outer loop
      vertex 13.4907 50.5782 24.75
      vertex 13.7685 49.5413 25.3698
      vertex 13.8829 49.1143 25.625
    endloop
  endfacet
  facet normal -0.9646 -0.117279 -0.236206
    outer loop
      vertex 13.4907 50.5782 28.25
      vertex 13.8829 49.1143 27.375
      vertex 13.7685 49.5413 27.6302
    endloop
  endfacet
  facet normal -0.215201 0.80314 0.555567
    outer loop
      vertex 17.1247 56.3343 71.9134
      vertex 12.5756 53.9932 73.5355
      vertex 17.4053 55.2873 73.5355
    endloop
  endfacet
  facet normal -0.2152 0.803139 0.555569
    outer loop
      vertex 12.5756 53.9932 73.5355
      vertex 17.1247 56.3343 71.9134
      vertex 12.2951 55.0402 71.9134
    endloop
  endfacet
  facet normal -0.143792 0.536639 0.83147
    outer loop
      vertex 17.4053 55.2873 73.5355
      vertex 12.9955 52.4264 74.6194
      vertex 17.8251 53.7205 74.6194
    endloop
  endfacet
  facet normal -0.143792 0.53664 0.831469
    outer loop
      vertex 12.9955 52.4264 74.6194
      vertex 17.4053 55.2873 73.5355
      vertex 12.5756 53.9932 73.5355
    endloop
  endfacet
  facet normal 0.258819 -0.965926 0
    outer loop
      vertex 14.7848 45.7486 28
      vertex 19.6144 47.0427 70
      vertex 14.7848 45.7486 70
    endloop
  endfacet
  facet normal 0.258819 -0.965926 0
    outer loop
      vertex 19.6144 47.0427 70
      vertex 14.7848 45.7486 28
      vertex 19.6144 47.0427 28
    endloop
  endfacet
  facet normal -0.253846 0.947366 -0.195089
    outer loop
      vertex 17.0262 56.7019 26.5
      vertex 14.0932 55.7644 25.7636
      vertex 12.1966 55.4078 26.5
    endloop
  endfacet
  facet normal -0.253846 0.947366 -0.195089
    outer loop
      vertex 17.0262 56.7019 26.5
      vertex 17.0695 56.5403 25.659
      vertex 14.0932 55.7644 25.7636
    endloop
  endfacet
  facet normal 0.562545 0.816802 -0.127975
    outer loop
      vertex 17.0695 56.5403 25.659
      vertex 17.0262 56.7019 26.5
      vertex 17.1247 56.3343 24.5866
    endloop
  endfacet
  facet normal -0.253846 0.947366 -0.19509
    outer loop
      vertex 12.1966 55.4078 26.5
      vertex 14.0932 55.7644 25.7636
      vertex 12.2883 55.0655 24.7185
    endloop
  endfacet
  facet normal 0.965926 0.258819 1.5615e-007
    outer loop
      vertex 18.7126 50.4084 25.625
      vertex 19.3821 47.9098 23.8126
      vertex 19.2354 48.4572 22.9645
    endloop
  endfacet
  facet normal 0.965926 0.258819 -0
    outer loop
      vertex 18.3203 51.8723 28.25
      vertex 17.0262 56.7019 26.5
      vertex 18.3203 51.8723 68.25
    endloop
  endfacet
  facet normal 0.965926 0.258819 8.67392e-008
    outer loop
      vertex 17.0262 56.7019 26.5
      vertex 18.3203 51.8723 28.25
      vertex 17.9281 53.3362 27.375
    endloop
  endfacet
  facet normal 0.965926 0.258819 -1.15798e-006
    outer loop
      vertex 19.6144 47.0427 70
      vertex 18.3203 51.8723 68.25
      vertex 18.7126 50.4084 69.125
    endloop
  endfacet
  facet normal 0.965926 0.258819 0
    outer loop
      vertex 18.3203 51.8723 68.25
      vertex 19.3821 47.9098 28
      vertex 18.3203 51.8723 28.25
    endloop
  endfacet
  facet normal 0.965926 0.258819 1.04922e-007
    outer loop
      vertex 17.9281 53.3362 70.875
      vertex 17.0262 56.7019 70
      vertex 17.1247 56.3343 71.9134
    endloop
  endfacet
  facet normal 0.965926 0.258819 -8.67392e-008
    outer loop
      vertex 18.3203 51.8723 68.25
      vertex 17.0262 56.7019 70
      vertex 17.9281 53.3362 69.125
    endloop
  endfacet
  facet normal 0.965926 0.258819 -8.21953e-007
    outer loop
      vertex 17.9281 53.3362 70.875
      vertex 17.1247 56.3343 71.9134
      vertex 17.4053 55.2873 73.5355
    endloop
  endfacet
  facet normal 0.965926 0.258819 0
    outer loop
      vertex 17.0262 56.7019 70
      vertex 18.3203 51.8723 68.25
      vertex 17.0262 56.7019 26.5
    endloop
  endfacet
  facet normal 0.965926 0.258818 -2.42908e-007
    outer loop
      vertex 17.9281 53.3362 70.875
      vertex 17.4053 55.2873 73.5355
      vertex 17.8251 53.7205 74.6194
    endloop
  endfacet
  facet normal 0.965926 0.258819 -0
    outer loop
      vertex 17.9281 53.3362 25.625
      vertex 17.0262 56.7019 26.5
      vertex 17.9281 53.3362 27.375
    endloop
  endfacet
  facet normal 0.965926 0.258819 0
    outer loop
      vertex 17.0262 56.7019 70
      vertex 17.9281 53.3362 70.875
      vertex 17.9281 53.3362 69.125
    endloop
  endfacet
  facet normal 0.965926 0.258818 -0
    outer loop
      vertex 18.3203 51.8723 71.75
      vertex 17.8251 53.7205 74.6194
      vertex 18.3203 51.8723 75
    endloop
  endfacet
  facet normal 0.965926 0.258819 -2.68707e-007
    outer loop
      vertex 17.8251 53.7205 74.6194
      vertex 18.3203 51.8723 71.75
      vertex 17.9281 53.3362 70.875
    endloop
  endfacet
  facet normal 0.965926 0.25882 0
    outer loop
      vertex 18.8156 50.0241 74.6194
      vertex 18.3203 51.8723 71.75
      vertex 18.3203 51.8723 75
    endloop
  endfacet
  facet normal 0.965926 0.258819 0
    outer loop
      vertex 19.6144 47.0427 70
      vertex 18.7126 50.4084 69.125
      vertex 18.7126 50.4084 70.875
    endloop
  endfacet
  facet normal 0.965926 0.258819 6.75862e-007
    outer loop
      vertex 18.3203 51.8723 28.25
      vertex 19.3821 47.9098 28
      vertex 18.7126 50.4084 27.375
    endloop
  endfacet
  facet normal 0.965926 0.258819 -2.16504e-007
    outer loop
      vertex 19.2354 48.4572 73.5355
      vertex 18.7126 50.4084 70.875
      vertex 18.8156 50.0241 74.6194
    endloop
  endfacet
  facet normal 0.965926 0.25882 -1.29662e-007
    outer loop
      vertex 18.3203 51.8723 71.75
      vertex 18.8156 50.0241 74.6194
      vertex 18.7126 50.4084 70.875
    endloop
  endfacet
  facet normal 0.965926 0.258819 -1.04922e-007
    outer loop
      vertex 17.0262 56.7019 26.5
      vertex 17.9281 53.3362 25.625
      vertex 17.1247 56.3343 24.5866
    endloop
  endfacet
  facet normal 0.965926 0.258819 8.21955e-007
    outer loop
      vertex 17.1247 56.3343 24.5866
      vertex 17.9281 53.3362 25.625
      vertex 17.4053 55.2873 22.9645
    endloop
  endfacet
  facet normal 0.965926 0.258818 2.42909e-007
    outer loop
      vertex 17.4053 55.2873 22.9645
      vertex 17.9281 53.3362 25.625
      vertex 17.8251 53.7205 21.8806
    endloop
  endfacet
  facet normal 0.965926 0.258819 2.68707e-007
    outer loop
      vertex 18.3203 51.8723 24.75
      vertex 17.8251 53.7205 21.8806
      vertex 17.9281 53.3362 25.625
    endloop
  endfacet
  facet normal 0.965926 0.258818 0
    outer loop
      vertex 18.3203 51.8723 24.75
      vertex 18.3203 51.8723 21.5
      vertex 17.8251 53.7205 21.8806
    endloop
  endfacet
  facet normal 0.965926 0.25882 1.29662e-007
    outer loop
      vertex 18.8156 50.0241 21.8806
      vertex 18.3203 51.8723 24.75
      vertex 18.7126 50.4084 25.625
    endloop
  endfacet
  facet normal 0.965926 0.25882 0
    outer loop
      vertex 18.3203 51.8723 24.75
      vertex 18.8156 50.0241 21.8806
      vertex 18.3203 51.8723 21.5
    endloop
  endfacet
  facet normal 0.965926 0.258819 0
    outer loop
      vertex 18.3203 51.8723 68.25
      vertex 19.6144 47.0427 70
      vertex 19.6144 47.0427 28
    endloop
  endfacet
  facet normal 0.965926 0.258819 1.74061e-007
    outer loop
      vertex 19.5159 47.4103 71.9134
      vertex 18.7126 50.4084 70.875
      vertex 19.2354 48.4572 73.5355
    endloop
  endfacet
  facet normal 0.965926 0.258819 -0
    outer loop
      vertex 19.3821 47.9098 23.8126
      vertex 18.7126 50.4084 25.625
      vertex 19.3821 47.9098 28
    endloop
  endfacet
  facet normal 0.965926 0.258819 2.16504e-007
    outer loop
      vertex 18.7126 50.4084 25.625
      vertex 19.2354 48.4572 22.9645
      vertex 18.8156 50.0241 21.8806
    endloop
  endfacet
  facet normal 0.965926 0.258819 -1.56299e-007
    outer loop
      vertex 18.7126 50.4084 70.875
      vertex 19.5159 47.4103 71.9134
      vertex 19.6144 47.0427 70
    endloop
  endfacet
  facet normal 0.965926 0.258819 0
    outer loop
      vertex 18.7126 50.4084 27.375
      vertex 19.3821 47.9098 28
      vertex 18.7126 50.4084 25.625
    endloop
  endfacet
  facet normal 0.965926 0.25882 -4.86743e-008
    outer loop
      vertex 18.3203 51.8723 68.25
      vertex 19.6144 47.0427 28
      vertex 19.3821 47.9098 28
    endloop
  endfacet
  facet normal -0.0504927 0.188442 0.980786
    outer loop
      vertex 17.8251 53.7205 74.6194
      vertex 13.4907 50.5782 75
      vertex 18.3203 51.8723 75
    endloop
  endfacet
  facet normal -0.0504927 0.188442 0.980786
    outer loop
      vertex 13.4907 50.5782 75
      vertex 17.8251 53.7205 74.6194
      vertex 12.9955 52.4264 74.6194
    endloop
  endfacet
  facet normal -0.253846 0.947366 0.195091
    outer loop
      vertex 17.0262 56.7019 70
      vertex 12.2951 55.0402 71.9134
      vertex 17.1247 56.3343 71.9134
    endloop
  endfacet
  facet normal -0.253846 0.947366 0.195091
    outer loop
      vertex 12.2951 55.0402 71.9134
      vertex 17.0262 56.7019 70
      vertex 12.1966 55.4078 70
    endloop
  endfacet
  facet normal -0 -0.568899 -0.822407
    outer loop
      vertex 18.8156 50.0241 21.8806
      vertex 19.2354 48.4572 22.9645
      vertex 18.8155 50.0241 21.8806
    endloop
  endfacet
  facet normal -0 -0.201698 -0.979448
    outer loop
      vertex 18.8156 50.0241 21.8806
      vertex 18.8155 50.0241 21.8806
      vertex 18.3203 51.8723 21.5
    endloop
  endfacet
  facet normal 0.215201 -0.80314 0.555567
    outer loop
      vertex 14.6863 46.1162 71.9134
      vertex 19.2354 48.4572 73.5355
      vertex 14.4058 47.1631 73.5355
    endloop
  endfacet
  facet normal 0.2152 -0.803139 0.555569
    outer loop
      vertex 19.2354 48.4572 73.5355
      vertex 14.6863 46.1162 71.9134
      vertex 19.5159 47.4103 71.9134
    endloop
  endfacet
  facet normal 0.253846 -0.947366 0.195091
    outer loop
      vertex 14.7848 45.7486 70
      vertex 19.5159 47.4103 71.9134
      vertex 14.6863 46.1162 71.9134
    endloop
  endfacet
  facet normal 0.253846 -0.947366 0.195091
    outer loop
      vertex 19.5159 47.4103 71.9134
      vertex 14.7848 45.7486 70
      vertex 19.6144 47.0427 70
    endloop
  endfacet
  facet normal 0.129409 -0.482963 0.866026
    outer loop
      vertex 17.9281 53.3362 69.125
      vertex 13.4907 50.5782 68.25
      vertex 18.3203 51.8723 68.25
    endloop
  endfacet
  facet normal 0.129409 -0.482963 0.866026
    outer loop
      vertex 13.4907 50.5782 68.25
      vertex 17.9281 53.3362 69.125
      vertex 13.0984 52.0421 69.125
    endloop
  endfacet
  facet normal 0.129409 -0.482963 -0.866026
    outer loop
      vertex 13.4907 50.5782 71.75
      vertex 17.9281 53.3362 70.875
      vertex 18.3203 51.8723 71.75
    endloop
  endfacet
  facet normal 0.129409 -0.482963 -0.866026
    outer loop
      vertex 17.9281 53.3362 70.875
      vertex 13.4907 50.5782 71.75
      vertex 13.0984 52.0421 70.875
    endloop
  endfacet
  facet normal 0.258819 -0.965926 0
    outer loop
      vertex 13.0984 52.0421 69.125
      vertex 17.9281 53.3362 70.875
      vertex 13.0984 52.0421 70.875
    endloop
  endfacet
  facet normal 0.258819 -0.965926 0
    outer loop
      vertex 17.9281 53.3362 70.875
      vertex 13.0984 52.0421 69.125
      vertex 17.9281 53.3362 69.125
    endloop
  endfacet
  facet normal -0.12941 0.482963 -0.866025
    outer loop
      vertex 13.8829 49.1143 70.875
      vertex 18.3203 51.8723 71.75
      vertex 18.7126 50.4084 70.875
    endloop
  endfacet
  facet normal -0.129409 0.482963 -0.866026
    outer loop
      vertex 18.3203 51.8723 71.75
      vertex 13.8829 49.1143 70.875
      vertex 13.4907 50.5782 71.75
    endloop
  endfacet
  facet normal -0.12941 0.482963 0.866025
    outer loop
      vertex 18.3203 51.8723 68.25
      vertex 13.8829 49.1143 69.125
      vertex 18.7126 50.4084 69.125
    endloop
  endfacet
  facet normal -0.129409 0.482963 0.866026
    outer loop
      vertex 13.8829 49.1143 69.125
      vertex 18.3203 51.8723 68.25
      vertex 13.4907 50.5782 68.25
    endloop
  endfacet
  facet normal -0.25882 0.965926 0
    outer loop
      vertex 18.7126 50.4084 69.125
      vertex 13.8829 49.1143 70.875
      vertex 18.7126 50.4084 70.875
    endloop
  endfacet
  facet normal -0.25882 0.965926 0
    outer loop
      vertex 13.8829 49.1143 70.875
      vertex 18.7126 50.4084 69.125
      vertex 13.8829 49.1143 69.125
    endloop
  endfacet
  facet normal 0.965899 0.122455 -0.22813
    outer loop
      vertex 18.1367 52.5577 27.8403
      vertex 17.9281 53.3362 27.375
      vertex 18.3203 51.8723 28.25
    endloop
  endfacet
  facet normal 0.129409 -0.482963 -0.866025
    outer loop
      vertex 13.0984 52.0421 27.375
      vertex 18.1367 52.5577 27.8403
      vertex 13.353 51.092 27.9429
    endloop
  endfacet
  facet normal 0.129409 -0.482961 -0.866026
    outer loop
      vertex 18.1367 52.5577 27.8403
      vertex 13.0984 52.0421 27.375
      vertex 17.9281 53.3362 27.375
    endloop
  endfacet
  facet normal -0.12941 0.482963 0.866025
    outer loop
      vertex 18.3203 51.8723 24.75
      vertex 13.8829 49.1143 25.625
      vertex 18.7126 50.4084 25.625
    endloop
  endfacet
  facet normal -0.129409 0.482963 0.866026
    outer loop
      vertex 13.8829 49.1143 25.625
      vertex 18.3203 51.8723 24.75
      vertex 13.4907 50.5782 24.75
    endloop
  endfacet
  facet normal -0.25882 0.965926 0
    outer loop
      vertex 18.7126 50.4084 25.625
      vertex 13.8829 49.1143 27.375
      vertex 18.7126 50.4084 27.375
    endloop
  endfacet
  facet normal -0.25882 0.965926 0
    outer loop
      vertex 13.8829 49.1143 27.375
      vertex 18.7126 50.4084 25.625
      vertex 13.8829 49.1143 25.625
    endloop
  endfacet
  facet normal -0.12941 0.482963 -0.866025
    outer loop
      vertex 13.8829 49.1143 27.375
      vertex 18.3203 51.8723 28.25
      vertex 18.7126 50.4084 27.375
    endloop
  endfacet
  facet normal -0.129409 0.482963 -0.866026
    outer loop
      vertex 18.3203 51.8723 28.25
      vertex 13.8829 49.1143 27.375
      vertex 13.4907 50.5782 28.25
    endloop
  endfacet
  facet normal 0.885456 -0.464723 0
    outer loop
      vertex 32.494 4.34751 28
      vertex 33.3838 6.04274 19
      vertex 33.3838 6.04274 28
    endloop
  endfacet
  facet normal 0.885456 -0.464723 0
    outer loop
      vertex 33.3838 6.04274 19
      vertex 32.494 4.34751 28
      vertex 32.494 4.34751 19
    endloop
  endfacet
  facet normal 0.568065 -0.822984 0
    outer loop
      vertex 31.2662 3.5 19
      vertex 32.494 4.34751 28
      vertex 31.2662 3.5 28
    endloop
  endfacet
  facet normal 0.568065 -0.822984 0
    outer loop
      vertex 32.494 4.34751 28
      vertex 31.2662 3.5 19
      vertex 32.494 4.34751 19
    endloop
  endfacet
  facet normal -0.382682 0.92388 0
    outer loop
      vertex 16.5 51.5 19
      vertex 14.7322 50.7678 19.1167
      vertex 16.5 51.5 19.1664
    endloop
  endfacet
  facet normal -0.382682 0.92388 0
    outer loop
      vertex 14.7322 50.7678 19.1167
      vertex 16.5 51.5 19
      vertex 14.7322 50.7678 19
    endloop
  endfacet
  facet normal 0.92388 0.382684 0
    outer loop
      vertex 18.8796 49.2907 19.3806
      vertex 18.2678 50.7678 19
      vertex 18.2678 50.7678 19.0653
    endloop
  endfacet
  facet normal 0.92388 0.382683 -1.95382e-006
    outer loop
      vertex 18.8796 49.2907 19.3806
      vertex 19 49 19
      vertex 18.2678 50.7678 19
    endloop
  endfacet
  facet normal 0.923881 0.38268 8.33158e-007
    outer loop
      vertex 18.972 49.0676 19.5406
      vertex 19 49 19
      vertex 18.8796 49.2907 19.3806
    endloop
  endfacet
  facet normal 0.923879 0.382686 -0
    outer loop
      vertex 19 49 19
      vertex 18.972 49.0676 19.5406
      vertex 19 49 19.8846
    endloop
  endfacet
  facet normal 0.943723 0.330736 0
    outer loop
      vertex 19.3821 47.9098 28
      vertex 33.3838 7.95726 28
      vertex 19.3821 47.9098 23.8126
    endloop
  endfacet
  facet normal 0.943723 0.330737 0
    outer loop
      vertex 19.2621 48.2521 22.2573
      vertex 19 49 19
      vertex 19 49 19.8846
    endloop
  endfacet
  facet normal 0.943723 0.330736 -0
    outer loop
      vertex 33.3838 7.95726 23.5
      vertex 19.3821 47.9098 23.8126
      vertex 33.3838 7.95726 28
    endloop
  endfacet
  facet normal 0.943723 0.330736 -0
    outer loop
      vertex 33.3838 7.95726 19
      vertex 19.3821 47.9098 23.8126
      vertex 33.3838 7.95726 23.5
    endloop
  endfacet
  facet normal 0.943723 0.330736 1.05821e-007
    outer loop
      vertex 19.3821 47.9098 23.8126
      vertex 33.3838 7.95726 19
      vertex 19.3042 48.1319 22.8033
    endloop
  endfacet
  facet normal 0.943724 0.330735 2.47882e-006
    outer loop
      vertex 19.3042 48.1319 22.8033
      vertex 33.3838 7.95726 19
      vertex 19.2621 48.2521 22.2573
    endloop
  endfacet
  facet normal 0.943723 0.330736 -3.36856e-007
    outer loop
      vertex 19.2621 48.2521 22.2573
      vertex 33.3838 7.95726 19
      vertex 19 49 19
    endloop
  endfacet
  facet normal 0.382683 0.92388 -0
    outer loop
      vertex 16.5 51.5 19
      vertex 16.5 51.5 19.1664
      vertex 17.7695 50.9741 19
    endloop
  endfacet
  facet normal 0.382681 0.923881 0
    outer loop
      vertex 17.7695 50.9741 19
      vertex 18.2678 50.7678 19.0653
      vertex 18.2678 50.7678 19
    endloop
  endfacet
  facet normal -0.92388 0.382683 0
    outer loop
      vertex 14.4492 50.0845 19
      vertex 14.7322 50.7678 19.1167
      vertex 14.7322 50.7678 19
    endloop
  endfacet
  facet normal -0.92388 0.382682 0
    outer loop
      vertex 14 49 19
      vertex 14 49 19.1852
      vertex 14.4492 50.0845 19
    endloop
  endfacet
  facet normal -0.999363 -0.035692 0
    outer loop
      vertex 14 49 19
      vertex 14.0286 48.1979 19.3408
      vertex 14 49 19.1852
    endloop
  endfacet
  facet normal -0.999363 -0.0356915 0
    outer loop
      vertex 15.3643 10.8 19
      vertex 14.0286 48.1979 19.4204
      vertex 14.0286 48.1979 19.3408
    endloop
  endfacet
  facet normal -0.999363 -0.0356915 0
    outer loop
      vertex 14.0286 48.1979 19.4204
      vertex 15.3643 10.8 19
      vertex 14.0286 48.1979 22.6386
    endloop
  endfacet
  facet normal -0.999363 -0.0356915 -0
    outer loop
      vertex 15.3643 10.8 28
      vertex 14.0286 48.1979 22.6386
      vertex 15.3643 10.8 19
    endloop
  endfacet
  facet normal -0.999363 -0.0356915 1.21524e-006
    outer loop
      vertex 15.3643 10.8 19
      vertex 14.0286 48.1979 19.3408
      vertex 14 49 19
    endloop
  endfacet
  facet normal -0.999363 -0.0356915 0
    outer loop
      vertex 14.0286 48.1979 22.6386
      vertex 15.3643 10.8 28
      vertex 14.0286 48.1979 25.3614
    endloop
  endfacet
  facet normal -0.999363 -0.0356915 0
    outer loop
      vertex 14.0286 48.1979 25.3614
      vertex 15.3643 10.8 28
      vertex 14.0286 48.1979 28
    endloop
  endfacet
  facet normal 0 0 1
    outer loop
      vertex 14.0286 48.1979 28
      vertex 15.3643 10.8 28
      vertex 15.5 7 28
    endloop
  endfacet
  facet normal -0.999363 -0.0356913 0
    outer loop
      vertex 15.5 7 19
      vertex 15.4323 8.89434 22.99
      vertex 15.4323 8.89434 19
    endloop
  endfacet
  facet normal -0.999363 -0.0356913 0
    outer loop
      vertex 15.4323 8.89434 22.99
      vertex 15.5 7 19
      vertex 15.5 7 22.99
    endloop
  endfacet
  facet normal 0 0 -1
    outer loop
      vertex 32.494 9.65249 19
      vertex 19 49 19
      vertex 33.3838 7.95726 19
    endloop
  endfacet
  facet normal 0 0 -1
    outer loop
      vertex 30.9184 10.7401 19
      vertex 19 49 19
      vertex 32.494 9.65249 19
    endloop
  endfacet
  facet normal 0 0 -1
    outer loop
      vertex 30.4248 10.8 19
      vertex 19 49 19
      vertex 30.9184 10.7401 19
    endloop
  endfacet
  facet normal 0 0 -1
    outer loop
      vertex 15.3643 10.8 19
      vertex 19 49 19
      vertex 30.4248 10.8 19
    endloop
  endfacet
  facet normal 0 -0 -1
    outer loop
      vertex 14.4492 50.0845 19
      vertex 19 49 19
      vertex 14 49 19
    endloop
  endfacet
  facet normal 0 0 -1
    outer loop
      vertex 19 49 19
      vertex 17.7695 50.9741 19
      vertex 18.2678 50.7678 19
    endloop
  endfacet
  facet normal -0 0 -1
    outer loop
      vertex 19 49 19
      vertex 15.3643 10.8 19
      vertex 14 49 19
    endloop
  endfacet
  facet normal 0 0 -1
    outer loop
      vertex 19 49 19
      vertex 14.4492 50.0845 19
      vertex 17.7695 50.9741 19
    endloop
  endfacet
  facet normal 0 0 -1
    outer loop
      vertex 16.5 51.5 19
      vertex 14.4492 50.0845 19
      vertex 14.7322 50.7678 19
    endloop
  endfacet
  facet normal -0 0 -1
    outer loop
      vertex 17.7695 50.9741 19
      vertex 14.4492 50.0845 19
      vertex 16.5 51.5 19
    endloop
  endfacet
  facet normal 0 0 -1
    outer loop
      vertex 32.494 4.34751 19
      vertex 33.3838 7 19
      vertex 33.3838 6.04274 19
    endloop
  endfacet
  facet normal 0 0 -1
    outer loop
      vertex 31.2662 3.5 19
      vertex 33.3838 7 19
      vertex 32.494 4.34751 19
    endloop
  endfacet
  facet normal 0 0 -1
    outer loop
      vertex 16.0704 7 19
      vertex 31.2662 3.5 19
      vertex 17.7764 3.5 19
    endloop
  endfacet
  facet normal 0 0 -1
    outer loop
      vertex 16.0704 7 19
      vertex 17.7764 3.5 19
      vertex 17.2277 3.70806 19
    endloop
  endfacet
  facet normal 0 0 -1
    outer loop
      vertex 31.2662 3.5 19
      vertex 16.0704 7 19
      vertex 33.3838 7 19
    endloop
  endfacet
  facet normal 0 0 -1
    outer loop
      vertex 15.9582 5.14111 19
      vertex 16.0704 7 19
      vertex 17.2277 3.70806 19
    endloop
  endfacet
  facet normal 0 0 -1
    outer loop
      vertex 15.5 7 19
      vertex 16.0704 7 19
      vertex 15.9582 5.14111 19
    endloop
  endfacet
  facet normal 0 0 -1
    outer loop
      vertex 16.0704 7 19
      vertex 15.5 7 19
      vertex 16.0704 7.90154 19
    endloop
  endfacet
  facet normal -0 0 -1
    outer loop
      vertex 16.0704 7.90154 19
      vertex 15.5 7 19
      vertex 15.4323 8.89434 19
    endloop
  endfacet
  facet normal -0 0 1
    outer loop
      vertex 30.9184 7 28
      vertex 33.3838 6.04274 28
      vertex 33.3838 7.95726 28
    endloop
  endfacet
  facet normal 0 0 1
    outer loop
      vertex 33.3838 6.04274 28
      vertex 30.9184 7 28
      vertex 32.494 4.34751 28
    endloop
  endfacet
  facet normal 0 0 1
    outer loop
      vertex 30.9184 3.5 28
      vertex 32.494 4.34751 28
      vertex 30.9184 7 28
    endloop
  endfacet
  facet normal 0 0 1
    outer loop
      vertex 33.3838 7.95726 28
      vertex 19.6144 47.0427 28
      vertex 30.9184 7 28
    endloop
  endfacet
  facet normal -0 -0 1
    outer loop
      vertex 19.6144 47.0427 28
      vertex 33.3838 7.95726 28
      vertex 19.3821 47.9098 28
    endloop
  endfacet
  facet normal 0 0 1
    outer loop
      vertex 32.494 4.34751 28
      vertex 30.9184 3.5 28
      vertex 31.2662 3.5 28
    endloop
  endfacet
  facet normal 0 0 1
    outer loop
      vertex 19.6144 47.0427 28
      vertex 15.5 7 28
      vertex 30.9184 7 28
    endloop
  endfacet
  facet normal -0 0 1
    outer loop
      vertex 14.7848 45.7486 28
      vertex 15.5 7 28
      vertex 19.6144 47.0427 28
    endloop
  endfacet
  facet normal -0 0 1
    outer loop
      vertex 14.7019 45.9963 28
      vertex 14.7848 45.7486 28
      vertex 14.7173 46.0004 28
    endloop
  endfacet
  facet normal 0 0 1
    outer loop
      vertex 14.4827 46.5726 28
      vertex 14.7848 45.7486 28
      vertex 14.7019 45.9963 28
    endloop
  endfacet
  facet normal 0 0 1
    outer loop
      vertex 14.7848 45.7486 28
      vertex 14.4827 46.5726 28
      vertex 15.5 7 28
    endloop
  endfacet
  facet normal 0 0 1
    outer loop
      vertex 14.3203 47.1093 28
      vertex 15.5 7 28
      vertex 14.4827 46.5726 28
    endloop
  endfacet
  facet normal 0 0 1
    outer loop
      vertex 14.2407 47.4064 28
      vertex 15.5 7 28
      vertex 14.3203 47.1093 28
    endloop
  endfacet
  facet normal 0 0 1
    outer loop
      vertex 14.1875 47.605 28
      vertex 15.5 7 28
      vertex 14.2407 47.4064 28
    endloop
  endfacet
  facet normal 0 0 1
    outer loop
      vertex 15.5 7 28
      vertex 14.1875 47.605 28
      vertex 14.0286 48.1979 28
    endloop
  endfacet
  facet normal -0.970942 -0.239316 0
    outer loop
      vertex 15.8187 5.70688 19
      vertex 15.5 7 22.99
      vertex 15.5 7 19
    endloop
  endfacet
  facet normal -0.970942 -0.239316 0
    outer loop
      vertex 15.5 7 22.99
      vertex 15.8187 5.70688 19
      vertex 15.8187 5.70688 22.99
    endloop
  endfacet
  facet normal 0 0 1
    outer loop
      vertex 15.8187 5.70688 19
      vertex 15.5 7 19
      vertex 15.9582 5.14111 19
    endloop
  endfacet
  facet normal -0.965927 -0.258815 4.35765e-006
    outer loop
      vertex 13.5852 49.853 29
      vertex 13.2913 50.9499 28.0129
      vertex 13.3975 50.5532 28.25
    endloop
  endfacet
  facet normal -0.965926 -0.258819 -1.28561e-006
    outer loop
      vertex 13.2913 50.9499 28.0129
      vertex 13.5852 49.853 29
      vertex 12.6701 53.268 27.5355
    endloop
  endfacet
  facet normal -0.965926 -0.25882 -9.14343e-007
    outer loop
      vertex 13.4494 50.3598 28.1344
      vertex 13.5852 49.853 29
      vertex 13.3975 50.5532 28.25
    endloop
  endfacet
  facet normal -0.965926 -0.258819 -4.08563e-007
    outer loop
      vertex 13.5852 49.853 29
      vertex 13.4494 50.3598 28.1344
      vertex 14.0804 48.0047 28.6194
    endloop
  endfacet
  facet normal -0.0504935 0.188443 -0.980785
    outer loop
      vertex 17.7695 50.9741 19
      vertex 17.9196 52.9953 19.3806
      vertex 18.4148 51.147 19
    endloop
  endfacet
  facet normal -0.0504931 0.188443 -0.980785
    outer loop
      vertex 16.5 51.5 19.1664
      vertex 17.9196 52.9953 19.3806
      vertex 17.7695 50.9741 19
    endloop
  endfacet
  facet normal -0.0504929 0.188443 -0.980785
    outer loop
      vertex 13.09 51.7012 19.3806
      vertex 16.5 51.5 19.1664
      vertex 14.7322 50.7678 19.1167
    endloop
  endfacet
  facet normal -0.0504934 0.188442 -0.980785
    outer loop
      vertex 13.5852 49.853 19
      vertex 14.7322 50.7678 19.1167
      vertex 14.4492 50.0845 19
    endloop
  endfacet
  facet normal -0.050493 0.188443 -0.980785
    outer loop
      vertex 16.5 51.5 19.1664
      vertex 13.09 51.7012 19.3806
      vertex 17.9196 52.9953 19.3806
    endloop
  endfacet
  facet normal -0.0504936 0.188442 -0.980785
    outer loop
      vertex 13.09 51.7012 19.3806
      vertex 14.7322 50.7678 19.1167
      vertex 13.5852 49.853 19
    endloop
  endfacet
  facet normal -0.956071 -0.289219 0.0477639
    outer loop
      vertex 14.0804 48.0047 28.6194
      vertex 14.4058 47.1631 30.0355
      vertex 13.9859 48.73 31.1194
    endloop
  endfacet
  facet normal -0.956071 -0.289219 0.0477642
    outer loop
      vertex 14.3203 47.1093 28
      vertex 14.4058 47.1631 30.0355
      vertex 14.0804 48.0047 28.6194
    endloop
  endfacet
  facet normal -0.95607 -0.289221 0.0477643
    outer loop
      vertex 14.4058 47.1631 30.0355
      vertex 14.3203 47.1093 28
      vertex 14.4827 46.5726 28
    endloop
  endfacet
  facet normal 0.0504881 -0.188445 -0.980785
    outer loop
      vertex 18.2678 50.7678 19.0653
      vertex 18.91 49.2988 19.3806
      vertex 18.8796 49.2907 19.3806
    endloop
  endfacet
  facet normal 0.0504949 -0.188442 -0.980785
    outer loop
      vertex 18.91 49.2988 19.3806
      vertex 18.2678 50.7678 19.0653
      vertex 18.4148 51.147 19
    endloop
  endfacet
  facet normal 0.0504931 -0.188441 -0.980786
    outer loop
      vertex 18.4148 51.147 19
      vertex 18.2678 50.7678 19.0653
      vertex 17.7695 50.9741 19
    endloop
  endfacet
  facet normal 0.0504937 -0.188443 -0.980785
    outer loop
      vertex 14.4492 50.0845 19
      vertex 14 49 19.1852
      vertex 13.5852 49.853 19
    endloop
  endfacet
  facet normal 0.0504957 -0.188442 -0.980785
    outer loop
      vertex 14.0286 48.1979 19.3408
      vertex 13.5852 49.853 19
      vertex 14 49 19.1852
    endloop
  endfacet
  facet normal 0.96298 0.266452 -0.0408983
    outer loop
      vertex 18.2682 52.0666 21.54
      vertex 17.9196 52.9953 19.3806
      vertex 17.8251 53.7205 21.8806
    endloop
  endfacet
  facet normal 0.96298 0.266454 -0.0408978
    outer loop
      vertex 18.3203 51.8723 21.5
      vertex 17.9196 52.9953 19.3806
      vertex 18.2682 52.0666 21.54
    endloop
  endfacet
  facet normal 0.96298 0.266453 -0.0408984
    outer loop
      vertex 17.9196 52.9953 19.3806
      vertex 18.3203 51.8723 21.5
      vertex 18.4148 51.147 19
    endloop
  endfacet
  facet normal 0.932538 0.35468 -0.0676437
    outer loop
      vertex 17.2192 55.609 22.0866
      vertex 17.4053 55.2873 22.9645
      vertex 17.4998 54.5621 20.4645
    endloop
  endfacet
  facet normal -0.965926 -0.258819 -8.71426e-007
    outer loop
      vertex 13.5852 49.853 19
      vertex 12.6701 53.268 20.4645
      vertex 13.09 51.7012 19.3806
    endloop
  endfacet
  facet normal 0.975203 0.219675 -0.0268655
    outer loop
      vertex 19.2621 48.2521 22.2573
      vertex 19.2354 48.4572 22.9645
      vertex 19.3042 48.1319 22.8033
    endloop
  endfacet
  facet normal 0.932537 0.354681 -0.0676434
    outer loop
      vertex 17.2192 55.609 22.0866
      vertex 17.1247 56.3343 24.5866
      vertex 17.4053 55.2873 22.9645
    endloop
  endfacet
  facet normal -0.987416 0.137947 -0.0773387
    outer loop
      vertex 12.2951 55.0402 24.5866
      vertex 12.2911 54.6826 24
      vertex 12.1966 55.4078 26.5
    endloop
  endfacet
  facet normal -0.987416 0.137946 -0.0773383
    outer loop
      vertex 12.2911 54.6826 24
      vertex 12.2951 55.0402 24.5866
      vertex 12.3896 54.3149 22.0866
    endloop
  endfacet
  facet normal 0.956071 0.289218 -0.0477635
    outer loop
      vertex 17.9196 52.9953 19.3806
      vertex 17.4053 55.2873 22.9645
      vertex 17.8251 53.7205 21.8806
    endloop
  endfacet
  facet normal -0.965926 -0.258819 -0
    outer loop
      vertex 13.0053 52.0171 27.375
      vertex 12.6701 53.268 27.5355
      vertex 13.0053 52.0171 26.9991
    endloop
  endfacet
  facet normal -0.965926 -0.258819 6.89993e-007
    outer loop
      vertex 12.6701 53.268 27.5355
      vertex 13.0053 52.0171 27.375
      vertex 13.2913 50.9499 28.0129
    endloop
  endfacet
  facet normal -0.965926 -0.258819 0
    outer loop
      vertex 13.7898 49.0893 25.7436
      vertex 14.0286 48.1979 25.3614
      vertex 13.7898 49.0893 27.375
    endloop
  endfacet
  facet normal -0.965926 -0.258819 -0
    outer loop
      vertex 14.0286 48.1979 28
      vertex 13.7898 49.0893 27.375
      vertex 14.0286 48.1979 25.3614
    endloop
  endfacet
  facet normal -0.965926 -0.258819 -5.18207e-007
    outer loop
      vertex 14.0286 48.1979 28
      vertex 13.6785 49.5045 27.6232
      vertex 13.7898 49.0893 27.375
    endloop
  endfacet
  facet normal -0.965926 -0.25882 -5.8614e-007
    outer loop
      vertex 14.0804 48.0047 28.6194
      vertex 13.6785 49.5045 27.6232
      vertex 14.0286 48.1979 28
    endloop
  endfacet
  facet normal -0.965926 -0.258819 6.61201e-009
    outer loop
      vertex 13.6785 49.5045 27.6232
      vertex 14.0804 48.0047 28.6194
      vertex 13.4494 50.3598 28.1344
    endloop
  endfacet
  facet normal -0.965926 -0.258819 -2.84847e-007
    outer loop
      vertex 14.0804 48.0047 28.6194
      vertex 14.0286 48.1979 28
      vertex 14.1875 47.605 28
    endloop
  endfacet
  facet normal -0.965926 -0.258819 0
    outer loop
      vertex 12.6701 53.268 20.4645
      vertex 13.0053 52.0171 25.625
      vertex 12.6701 53.268 27.5355
    endloop
  endfacet
  facet normal -0.965926 -0.258819 3.61589e-008
    outer loop
      vertex 12.6701 53.268 20.4645
      vertex 13.3975 50.5532 24.75
      vertex 13.0053 52.0171 25.625
    endloop
  endfacet
  facet normal -0.965926 -0.258819 -1.82835e-007
    outer loop
      vertex 14.0286 48.1979 22.6386
      vertex 13.3975 50.5532 24.75
      vertex 12.6701 53.268 20.4645
    endloop
  endfacet
  facet normal -0.965926 -0.258819 1.77866e-008
    outer loop
      vertex 13.3975 50.5532 24.75
      vertex 14.0286 48.1979 22.6386
      vertex 13.6785 49.5045 25.3768
    endloop
  endfacet
  facet normal -0.965926 -0.258819 -0
    outer loop
      vertex 14.0286 48.1979 25.3614
      vertex 13.6785 49.5045 25.3768
      vertex 14.0286 48.1979 22.6386
    endloop
  endfacet
  facet normal -0.965926 -0.258819 7.53323e-007
    outer loop
      vertex 13.6785 49.5045 25.3768
      vertex 14.0286 48.1979 25.3614
      vertex 13.7898 49.0893 25.625
    endloop
  endfacet
  facet normal -0.965926 -0.258819 0
    outer loop
      vertex 13.7898 49.0893 25.625
      vertex 14.0286 48.1979 25.3614
      vertex 13.7898 49.0893 25.7436
    endloop
  endfacet
  facet normal -0.965926 -0.258819 0
    outer loop
      vertex 12.6701 53.268 27.5355
      vertex 13.0053 52.0171 25.625
      vertex 13.0053 52.0171 26.9991
    endloop
  endfacet
  facet normal -0.975203 -0.219677 0.026867
    outer loop
      vertex 12.6701 53.268 27.5355
      vertex 12.2951 55.0402 28.4134
      vertex 12.3896 54.3149 25.9134
    endloop
  endfacet
  facet normal -0.975203 -0.219677 0.026867
    outer loop
      vertex 12.2951 55.0402 28.4134
      vertex 12.6701 53.268 27.5355
      vertex 12.5756 53.9932 30.0355
    endloop
  endfacet
  facet normal -0.96298 -0.266452 0.0408985
    outer loop
      vertex 13.5852 49.853 29
      vertex 13.9859 48.73 31.1194
      vertex 13.4907 50.5782 31.5
    endloop
  endfacet
  facet normal -0.96298 -0.266452 0.0408982
    outer loop
      vertex 13.9859 48.73 31.1194
      vertex 13.5852 49.853 29
      vertex 14.0804 48.0047 28.6194
    endloop
  endfacet
  facet normal -0.932539 -0.354677 0.067642
    outer loop
      vertex 14.4827 46.5726 28
      vertex 14.6863 46.1162 28.4134
      vertex 14.4058 47.1631 30.0355
    endloop
  endfacet
  facet normal -0.932538 -0.354679 0.06764
    outer loop
      vertex 14.6863 46.1162 28.4134
      vertex 14.4827 46.5726 28
      vertex 14.7019 45.9963 28
    endloop
  endfacet
  facet normal 0.248582 -0.927704 0.278517
    outer loop
      vertex 14.6863 46.1162 28.4134
      vertex 14.7019 45.9963 28
      vertex 14.7173 46.0004 28
    endloop
  endfacet
  facet normal 0.967135 0.251638 -0.0364437
    outer loop
      vertex 18.8155 50.0241 21.8806
      vertex 18.4148 51.147 19
      vertex 18.3203 51.8723 21.5
    endloop
  endfacet
  facet normal 0.967135 0.251637 -0.0364439
    outer loop
      vertex 18.4148 51.147 19
      vertex 18.8155 50.0241 21.8806
      vertex 18.91 49.2988 19.3806
    endloop
  endfacet
  facet normal 0.975203 0.219676 -0.0268678
    outer loop
      vertex 19.2354 48.4572 22.9645
      vertex 19.3821 47.9098 23.8126
      vertex 19.3042 48.1319 22.8033
    endloop
  endfacet
  facet normal 0.143777 -0.536641 -0.831472
    outer loop
      vertex 18.91 49.2988 19.3806
      vertex 18.972 49.0676 19.5406
      vertex 18.8796 49.2907 19.3806
    endloop
  endfacet
  facet normal 0.97078 0.237789 -0.032287
    outer loop
      vertex 18.91 49.2988 19.3806
      vertex 19 49 19.8846
      vertex 18.972 49.0676 19.5406
    endloop
  endfacet
  facet normal 0.97078 0.237789 -0.0322869
    outer loop
      vertex 19.2354 48.4572 22.9645
      vertex 19 49 19.8846
      vertex 18.91 49.2988 19.3806
    endloop
  endfacet
  facet normal 0.97078 0.237788 -0.0322872
    outer loop
      vertex 19 49 19.8846
      vertex 19.2354 48.4572 22.9645
      vertex 19.2621 48.2521 22.2573
    endloop
  endfacet
  facet normal -0.253846 0.947366 -0.195091
    outer loop
      vertex 12.2951 55.0402 24.5866
      vertex 14.0932 55.7644 25.7636
      vertex 17.1247 56.3343 24.5866
    endloop
  endfacet
  facet normal -0.180451 0.964154 -0.194537
    outer loop
      vertex 12.2883 55.0655 24.7185
      vertex 12.2951 55.0402 24.5866
      vertex 12.1966 55.4078 26.5
    endloop
  endfacet
  facet normal -0.253847 0.947366 -0.19509
    outer loop
      vertex 14.0932 55.7644 25.7636
      vertex 12.2951 55.0402 24.5866
      vertex 12.2883 55.0655 24.7185
    endloop
  endfacet
  facet normal -0.253846 0.947366 -0.195091
    outer loop
      vertex 17.1247 56.3343 24.5866
      vertex 14.0932 55.7644 25.7636
      vertex 17.0695 56.5403 25.659
    endloop
  endfacet
  facet normal 0.956071 0.289219 -0.0477642
    outer loop
      vertex 17.4998 54.5621 20.4645
      vertex 17.4053 55.2873 22.9645
      vertex 17.9196 52.9953 19.3806
    endloop
  endfacet
  facet normal -0.98317 -0.182023 0.0156432
    outer loop
      vertex 12.3896 54.3149 25.9134
      vertex 12.1966 55.4078 26.5
      vertex 12.2911 54.6826 24
    endloop
  endfacet
  facet normal -0.98317 -0.182023 0.0156428
    outer loop
      vertex 12.1966 55.4078 26.5
      vertex 12.3896 54.3149 25.9134
      vertex 12.2951 55.0402 28.4134
    endloop
  endfacet
  facet normal -0.965926 -0.258819 -0
    outer loop
      vertex 14.0286 48.1979 19.4204
      vertex 13.5852 49.853 19
      vertex 14.0286 48.1979 19.3408
    endloop
  endfacet
  facet normal -0.965926 -0.258819 7.80814e-007
    outer loop
      vertex 13.5852 49.853 19
      vertex 14.0286 48.1979 19.4204
      vertex 12.6701 53.268 20.4645
    endloop
  endfacet
  facet normal -0.965926 -0.258819 0
    outer loop
      vertex 14.0286 48.1979 19.4204
      vertex 14.0286 48.1979 22.6386
      vertex 12.6701 53.268 20.4645
    endloop
  endfacet
  facet normal -0.965926 -0.258819 8.7143e-007
    outer loop
      vertex 12.6701 53.268 27.5355
      vertex 13.5852 49.853 29
      vertex 13.09 51.7012 28.6194
    endloop
  endfacet
  facet normal -0.967135 -0.251638 0.0364438
    outer loop
      vertex 13.09 51.7012 28.6194
      vertex 13.4907 50.5782 31.5
      vertex 12.9955 52.4264 31.1194
    endloop
  endfacet
  facet normal -0.967135 -0.251638 0.036444
    outer loop
      vertex 13.4907 50.5782 31.5
      vertex 13.09 51.7012 28.6194
      vertex 13.5852 49.853 29
    endloop
  endfacet
  facet normal -0.965926 -0.258819 0
    outer loop
      vertex 12.6701 53.268 20.4645
      vertex 12.3896 54.3149 25.9134
      vertex 12.3896 54.3149 22.0866
    endloop
  endfacet
  facet normal -0.965926 -0.258819 0
    outer loop
      vertex 12.3896 54.3149 25.9134
      vertex 12.6701 53.268 20.4645
      vertex 12.6701 53.268 27.5355
    endloop
  endfacet
  facet normal -0.2152 0.803138 -0.555571
    outer loop
      vertex 12.6701 53.268 20.4645
      vertex 17.2192 55.609 22.0866
      vertex 17.4998 54.5621 20.4645
    endloop
  endfacet
  facet normal -0.2152 0.803138 -0.55557
    outer loop
      vertex 17.2192 55.609 22.0866
      vertex 12.6701 53.268 20.4645
      vertex 12.3896 54.3149 22.0866
    endloop
  endfacet
  facet normal -0.965926 -0.258819 6.88704e-007
    outer loop
      vertex 14.3203 47.1093 28
      vertex 14.0804 48.0047 28.6194
      vertex 14.2407 47.4064 28
    endloop
  endfacet
  facet normal -0.965926 -0.258817 -1.53389e-006
    outer loop
      vertex 14.2407 47.4064 28
      vertex 14.0804 48.0047 28.6194
      vertex 14.1875 47.605 28
    endloop
  endfacet
  facet normal 0.970781 0.237786 -0.0322878
    outer loop
      vertex 18.8155 50.0241 21.8806
      vertex 19.2354 48.4572 22.9645
      vertex 18.91 49.2988 19.3806
    endloop
  endfacet
  facet normal -0.143792 0.53664 -0.83147
    outer loop
      vertex 13.09 51.7012 19.3806
      vertex 17.4998 54.5621 20.4645
      vertex 17.9196 52.9953 19.3806
    endloop
  endfacet
  facet normal -0.143792 0.53664 -0.83147
    outer loop
      vertex 17.4998 54.5621 20.4645
      vertex 13.09 51.7012 19.3806
      vertex 12.6701 53.268 20.4645
    endloop
  endfacet
  facet normal -0.970781 -0.237785 0.0322874
    outer loop
      vertex 13.09 51.7012 28.6194
      vertex 12.5756 53.9932 30.0355
      vertex 12.6701 53.268 27.5355
    endloop
  endfacet
  facet normal -0.970781 -0.237785 0.0322874
    outer loop
      vertex 12.5756 53.9932 30.0355
      vertex 13.09 51.7012 28.6194
      vertex 12.9955 52.4264 31.1194
    endloop
  endfacet
  facet normal -0.248578 0.927706 -0.278516
    outer loop
      vertex 12.3896 54.3149 22.0866
      vertex 12.2951 55.0402 24.5866
      vertex 17.1247 56.3343 24.5866
    endloop
  endfacet
  facet normal -0.248578 0.927706 -0.278516
    outer loop
      vertex 12.3896 54.3149 22.0866
      vertex 17.1247 56.3343 24.5866
      vertex 17.2192 55.609 22.0866
    endloop
  endfacet
  facet normal -0.965925 -0.258821 0
    outer loop
      vertex 12.3896 54.3149 22.0866
      vertex 12.3896 54.3149 25.9134
      vertex 12.2911 54.6826 24
    endloop
  endfacet
  facet normal 0.129409 -0.482963 0.866026
    outer loop
      vertex 17.9281 53.3362 25.625
      vertex 13.4907 50.5782 24.75
      vertex 18.3203 51.8723 24.75
    endloop
  endfacet
  facet normal 0.129409 -0.482963 0.866026
    outer loop
      vertex 13.0053 52.0171 25.625
      vertex 13.4907 50.5782 24.75
      vertex 17.9281 53.3362 25.625
    endloop
  endfacet
  facet normal 0.129413 -0.482961 0.866026
    outer loop
      vertex 13.4907 50.5782 24.75
      vertex 13.0053 52.0171 25.625
      vertex 13.3975 50.5532 24.75
    endloop
  endfacet
  facet normal 0.12941 -0.482964 -0.866025
    outer loop
      vertex 13.353 51.092 27.9429
      vertex 18.3203 51.8723 28.25
      vertex 13.4907 50.5782 28.25
    endloop
  endfacet
  facet normal 0.129413 -0.482961 -0.866026
    outer loop
      vertex 13.2913 50.9499 28.0129
      vertex 13.4907 50.5782 28.25
      vertex 13.3975 50.5532 28.25
    endloop
  endfacet
  facet normal 0.12941 -0.482964 -0.866025
    outer loop
      vertex 18.3203 51.8723 28.25
      vertex 13.353 51.092 27.9429
      vertex 18.1367 52.5577 27.8403
    endloop
  endfacet
  facet normal 0.129401 -0.482966 -0.866025
    outer loop
      vertex 13.4907 50.5782 28.25
      vertex 13.2913 50.9499 28.0129
      vertex 13.353 51.092 27.9429
    endloop
  endfacet
  facet normal 0.129399 -0.482966 -0.866026
    outer loop
      vertex 13.0053 52.0171 27.375
      vertex 13.353 51.092 27.9429
      vertex 13.2913 50.9499 28.0129
    endloop
  endfacet
  facet normal 0.129395 -0.482967 -0.866025
    outer loop
      vertex 13.353 51.092 27.9429
      vertex 13.0053 52.0171 27.375
      vertex 13.0984 52.0421 27.375
    endloop
  endfacet
  facet normal 0.25879 -0.965934 0
    outer loop
      vertex 13.0053 52.0171 26.9991
      vertex 13.0984 52.0421 27.375
      vertex 13.0053 52.0171 27.375
    endloop
  endfacet
  facet normal 0.25882 -0.965926 -7.82718e-006
    outer loop
      vertex 13.0984 52.0421 27.375
      vertex 13.0053 52.0171 26.9991
      vertex 17.9281 53.3362 27.375
    endloop
  endfacet
  facet normal 0.258819 -0.965926 0
    outer loop
      vertex 17.9281 53.3362 25.625
      vertex 13.0053 52.0171 26.9991
      vertex 13.0053 52.0171 25.625
    endloop
  endfacet
  facet normal 0.258819 -0.965926 0
    outer loop
      vertex 13.0053 52.0171 26.9991
      vertex 17.9281 53.3362 25.625
      vertex 17.9281 53.3362 27.375
    endloop
  endfacet
  facet normal -0.129413 0.482961 0.866026
    outer loop
      vertex 13.3975 50.5532 24.75
      vertex 13.7685 49.5413 25.3698
      vertex 13.4907 50.5782 24.75
    endloop
  endfacet
  facet normal -0.129391 0.482968 0.866025
    outer loop
      vertex 13.7685 49.5413 25.3698
      vertex 13.3975 50.5532 24.75
      vertex 13.6785 49.5045 25.3768
    endloop
  endfacet
  facet normal -0.258793 0.965933 0
    outer loop
      vertex 13.8829 49.1143 27.375
      vertex 13.7898 49.0893 25.7436
      vertex 13.7898 49.0893 27.375
    endloop
  endfacet
  facet normal -0.258793 0.965933 0
    outer loop
      vertex 13.8829 49.1143 25.625
      vertex 13.7898 49.0893 25.7436
      vertex 13.8829 49.1143 27.375
    endloop
  endfacet
  facet normal -0.258793 0.965933 0
    outer loop
      vertex 13.7898 49.0893 25.7436
      vertex 13.8829 49.1143 25.625
      vertex 13.7898 49.0893 25.625
    endloop
  endfacet
  facet normal -0.129396 0.482967 -0.866025
    outer loop
      vertex 13.6785 49.5045 27.6232
      vertex 13.8829 49.1143 27.375
      vertex 13.7898 49.0893 27.375
    endloop
  endfacet
  facet normal -0.129392 0.482969 -0.866025
    outer loop
      vertex 13.8829 49.1143 27.375
      vertex 13.6785 49.5045 27.6232
      vertex 13.7685 49.5413 27.6302
    endloop
  endfacet
  facet normal -0.129391 0.482968 -0.866026
    outer loop
      vertex 13.4494 50.3598 28.1344
      vertex 13.7685 49.5413 27.6302
      vertex 13.6785 49.5045 27.6232
    endloop
  endfacet
  facet normal -0.1294 0.482964 -0.866026
    outer loop
      vertex 13.7685 49.5413 27.6302
      vertex 13.4494 50.3598 28.1344
      vertex 13.4907 50.5782 28.25
    endloop
  endfacet
  facet normal -0.129415 0.482966 -0.866023
    outer loop
      vertex 13.4907 50.5782 28.25
      vertex 13.4494 50.3598 28.1344
      vertex 13.3975 50.5532 28.25
    endloop
  endfacet
  facet normal -0.129392 0.482969 0.866025
    outer loop
      vertex 13.6785 49.5045 25.3768
      vertex 13.8829 49.1143 25.625
      vertex 13.7685 49.5413 25.3698
    endloop
  endfacet
  facet normal -0.129396 0.482967 0.866025
    outer loop
      vertex 13.8829 49.1143 25.625
      vertex 13.6785 49.5045 25.3768
      vertex 13.7898 49.0893 25.625
    endloop
  endfacet
  facet normal 0 0 0
    outer loop
      vertex 30.9184 3.5 28
      vertex 31.1311 3.5 28
      vertex 31.2662 3.5 28
    endloop
  endfacet
endsolid OpenSCAD_Model
