solid OpenSCAD_Model
  facet normal -0.970942 -0.239316 0
    outer loop
      vertex -13.0418 5.14111 19
      vertex -13.5 7 28
      vertex -13.5 7 19
    endloop
  endfacet
  facet normal -0.970942 -0.239316 0
    outer loop
      vertex -13.5 7 28
      vertex -13.0418 5.14111 19
      vertex -13.0418 5.14111 28
    endloop
  endfacet
  facet normal 1 -0 0
    outer loop
      vertex 33.3838 6.04274 28
      vertex 33.3838 7.95726 23.5
      vertex 33.3838 7.95726 28
    endloop
  endfacet
  facet normal 1 0 0
    outer loop
      vertex 33.3838 7.95726 23.5
      vertex 33.3838 7 19
      vertex 33.3838 7.95726 19
    endloop
  endfacet
  facet normal 1 0 0
    outer loop
      vertex 33.3838 6.04274 19
      vertex 33.3838 7.95726 23.5
      vertex 33.3838 6.04274 28
    endloop
  endfacet
  facet normal 1 0 0
    outer loop
      vertex 33.3838 7.95726 23.5
      vertex 33.3838 6.04274 19
      vertex 33.3838 7 19
    endloop
  endfacet
  facet normal -0 0 -1
    outer loop
      vertex -10.1335 10.8 19
      vertex -13.0418 8.85889 19
      vertex -10.2296 10.8 19
    endloop
  endfacet
  facet normal 0 -0 -1
    outer loop
      vertex -13.0418 8.85889 19
      vertex -10.1335 10.8 19
      vertex -13.5 7 19
    endloop
  endfacet
  facet normal 0 0 -1
    outer loop
      vertex 29.0179 3.02917 19
      vertex 31.2662 3.5 19
      vertex 30.9184 3.25994 19
    endloop
  endfacet
  facet normal 0 0 -1
    outer loop
      vertex 29.0179 3.02917 19
      vertex 17.7764 3.5 19
      vertex 31.2662 3.5 19
    endloop
  endfacet
  facet normal -0 0 -1
    outer loop
      vertex 15.9582 5.14111 19
      vertex 15.0956 4.5816 19
      vertex 15.8187 5.70688 19
    endloop
  endfacet
  facet normal 0 0 -1
    outer loop
      vertex 17.2277 3.70806 19
      vertex 15.0956 4.5816 19
      vertex 15.9582 5.14111 19
    endloop
  endfacet
  facet normal 0 0 -1
    outer loop
      vertex 17.2277 3.70806 19
      vertex 13.4554 3.83257 19
      vertex 15.0956 4.5816 19
    endloop
  endfacet
  facet normal 0 0 -1
    outer loop
      vertex 17.7764 3.5 19
      vertex 13.4554 3.83257 19
      vertex 17.2277 3.70806 19
    endloop
  endfacet
  facet normal 0 0 -1
    outer loop
      vertex 17.7764 3.5 19
      vertex 6.45541 3.83257 19
      vertex 13.4554 3.83257 19
    endloop
  endfacet
  facet normal 0 0 -1
    outer loop
      vertex -9.98215 3.02917 19
      vertex 17.7764 3.5 19
      vertex 29.0179 3.02917 19
    endloop
  endfacet
  facet normal 0 0 -1
    outer loop
      vertex 3.30799 5.26995 19
      vertex 2.07038 6.09846 19
      vertex 2.8 7 19
    endloop
  endfacet
  facet normal 0 0 -1
    outer loop
      vertex 1.09555 4.5816 19
      vertex 3.30799 5.26995 19
      vertex 4.67067 4.08918 19
    endloop
  endfacet
  facet normal -0 0 -1
    outer loop
      vertex 3.30799 5.26995 19
      vertex 1.09555 4.5816 19
      vertex 2.07038 6.09846 19
    endloop
  endfacet
  facet normal 0 0 -1
    outer loop
      vertex -0.544592 3.83257 19
      vertex 4.67067 4.08918 19
      vertex 6.45541 3.83257 19
    endloop
  endfacet
  facet normal -0 0 -1
    outer loop
      vertex 4.67067 4.08918 19
      vertex -0.544592 3.83257 19
      vertex 1.09555 4.5816 19
    endloop
  endfacet
  facet normal -0 0 -1
    outer loop
      vertex 17.7764 3.5 19
      vertex -9.98215 3.02917 19
      vertex 6.45541 3.83257 19
    endloop
  endfacet
  facet normal -0 0 -1
    outer loop
      vertex 6.45541 3.83257 19
      vertex -9.98215 3.02917 19
      vertex -0.544592 3.83257 19
    endloop
  endfacet
  facet normal -0 0 -1
    outer loop
      vertex -0.544592 3.83257 19
      vertex -9.98215 3.02917 19
      vertex -7.54459 3.83257 19
    endloop
  endfacet
  facet normal 0 0 -1
    outer loop
      vertex -9.98215 3.02917 19
      vertex -9.32933 4.08918 19
      vertex -7.54459 3.83257 19
    endloop
  endfacet
  facet normal -0 0 -1
    outer loop
      vertex -9.32933 4.08918 19
      vertex -9.98215 3.02917 19
      vertex -9.98215 4.65485 19
    endloop
  endfacet
  facet normal 0 0 -1
    outer loop
      vertex 33.3838 7 19
      vertex 32.494 9.65249 19
      vertex 33.3838 7.95726 19
    endloop
  endfacet
  facet normal 0 0 -1
    outer loop
      vertex 30.4248 10.8 19
      vertex 32.494 9.65249 19
      vertex 33.3838 7 19
    endloop
  endfacet
  facet normal 0 0 -1
    outer loop
      vertex 32.494 9.65249 19
      vertex 30.4248 10.8 19
      vertex 30.9184 10.7401 19
    endloop
  endfacet
  facet normal 0 0 -1
    outer loop
      vertex 16.0704 7 19
      vertex 30.4248 10.8 19
      vertex 33.3838 7 19
    endloop
  endfacet
  facet normal 0 0 -1
    outer loop
      vertex 16.0704 7.90154 19
      vertex 30.4248 10.8 19
      vertex 16.0704 7 19
    endloop
  endfacet
  facet normal 0 0 -1
    outer loop
      vertex 15.0956 9.4184 19
      vertex 30.4248 10.8 19
      vertex 16.0704 7.90154 19
    endloop
  endfacet
  facet normal 0 0 -1
    outer loop
      vertex 13.4554 10.1674 19
      vertex 30.4248 10.8 19
      vertex 15.0956 9.4184 19
    endloop
  endfacet
  facet normal 0 0 -1
    outer loop
      vertex 6.45541 10.1674 19
      vertex 30.4248 10.8 19
      vertex 13.4554 10.1674 19
    endloop
  endfacet
  facet normal 0 0 -1
    outer loop
      vertex 2.07038 7.90154 19
      vertex 2.8 7 19
      vertex 2.07038 6.09846 19
    endloop
  endfacet
  facet normal 0 0 -1
    outer loop
      vertex 2.8 7 19
      vertex 2.07038 7.90154 19
      vertex 3.30799 8.73005 19
    endloop
  endfacet
  facet normal 0 0 -1
    outer loop
      vertex 1.09555 9.4184 19
      vertex 3.30799 8.73005 19
      vertex 2.07038 7.90154 19
    endloop
  endfacet
  facet normal 0 0 -1
    outer loop
      vertex 3.30799 8.73005 19
      vertex 1.09555 9.4184 19
      vertex 4.67067 9.91082 19
    endloop
  endfacet
  facet normal 0 0 -1
    outer loop
      vertex -0.544592 10.1674 19
      vertex 4.67067 9.91082 19
      vertex 1.09555 9.4184 19
    endloop
  endfacet
  facet normal 0 0 -1
    outer loop
      vertex 4.67067 9.91082 19
      vertex -0.544592 10.1674 19
      vertex 6.45541 10.1674 19
    endloop
  endfacet
  facet normal 0 0 -1
    outer loop
      vertex -9.98215 10.8 19
      vertex 6.45541 10.1674 19
      vertex -0.544592 10.1674 19
    endloop
  endfacet
  facet normal 0 0 -1
    outer loop
      vertex -9.98215 10.8 19
      vertex -0.544592 10.1674 19
      vertex -7.54459 10.1674 19
    endloop
  endfacet
  facet normal 0 0 -1
    outer loop
      vertex 6.45541 10.1674 19
      vertex -9.98215 10.8 19
      vertex 30.4248 10.8 19
    endloop
  endfacet
  facet normal 0 0 -1
    outer loop
      vertex -9.32933 9.91082 19
      vertex -9.98215 10.8 19
      vertex -7.54459 10.1674 19
    endloop
  endfacet
  facet normal 0 0 -1
    outer loop
      vertex -9.98215 10.8 19
      vertex -9.32933 9.91082 19
      vertex -9.98215 9.34515 19
    endloop
  endfacet
  facet normal -0.748511 -0.663123 0
    outer loop
      vertex -11.7723 3.70807 19
      vertex -13.0418 5.14111 28
      vertex -13.0418 5.14111 19
    endloop
  endfacet
  facet normal -0.748511 -0.663123 0
    outer loop
      vertex -13.0418 5.14111 28
      vertex -11.7723 3.70807 19
      vertex -11.7723 3.70807 28
    endloop
  endfacet
  facet normal -0.970942 0.239316 0
    outer loop
      vertex -13.5 7 19
      vertex -13.0418 8.85889 28
      vertex -13.0418 8.85889 19
    endloop
  endfacet
  facet normal -0.970942 0.239316 0
    outer loop
      vertex -13.0418 8.85889 28
      vertex -13.5 7 19
      vertex -13.5 7 28
    endloop
  endfacet
  facet normal 0 0 1
    outer loop
      vertex 15.5 7 28
      vertex 14.7452 7.00833 28
      vertex 14.75 7 28
    endloop
  endfacet
  facet normal 0 0 1
    outer loop
      vertex 15.5 7 28
      vertex 13.875 8.51554 28
      vertex 14.7452 7.00833 28
    endloop
  endfacet
  facet normal 0 0 1
    outer loop
      vertex 15.2512 10.8 28
      vertex 5.125 8.51554 28
      vertex 13.875 8.51554 28
    endloop
  endfacet
  facet normal 0 0 1
    outer loop
      vertex 5.125 8.51554 28
      vertex 0.750001 7 28
      vertex 4.25 7 28
    endloop
  endfacet
  facet normal 0 0 1
    outer loop
      vertex 5.125 8.51554 28
      vertex -0.124999 8.51554 28
      vertex 0.750001 7 28
    endloop
  endfacet
  facet normal 0 0 1
    outer loop
      vertex 15.2512 10.8 28
      vertex -0.124999 8.51554 28
      vertex 5.125 8.51554 28
    endloop
  endfacet
  facet normal -0 0 1
    outer loop
      vertex -10.4326 10.8 28
      vertex -0.124999 8.51554 28
      vertex 15.2512 10.8 28
    endloop
  endfacet
  facet normal 0 0 1
    outer loop
      vertex -0.124999 8.51554 28
      vertex -10.4326 10.8 28
      vertex -8.875 8.51554 28
    endloop
  endfacet
  facet normal -0 0 1
    outer loop
      vertex -11.7723 10.2919 28
      vertex -8.875 8.51554 28
      vertex -10.4326 10.8 28
    endloop
  endfacet
  facet normal 0 0 1
    outer loop
      vertex -8.875 8.51554 28
      vertex -11.7723 10.2919 28
      vertex -9.75 7 28
    endloop
  endfacet
  facet normal 0 0 1
    outer loop
      vertex -9.75 7 28
      vertex -11.7723 10.2919 28
      vertex -13.0418 8.85889 28
    endloop
  endfacet
  facet normal 0 0 1
    outer loop
      vertex -9.75 7 28
      vertex -11.7723 3.70807 28
      vertex -9.98215 3.02917 28
    endloop
  endfacet
  facet normal 0 0 1
    outer loop
      vertex -9.75 7 28
      vertex -13.0418 8.85889 28
      vertex -13.5 7 28
    endloop
  endfacet
  facet normal 0 0 1
    outer loop
      vertex -9.75 7 28
      vertex -13.0418 5.14111 28
      vertex -11.7723 3.70807 28
    endloop
  endfacet
  facet normal 0 0 1
    outer loop
      vertex -9.75 7 28
      vertex -13.5 7 28
      vertex -13.0418 5.14111 28
    endloop
  endfacet
  facet normal 0 0 1
    outer loop
      vertex 30.9184 7 28
      vertex 29.0179 3.02917 28
      vertex 30.9184 3.25994 28
    endloop
  endfacet
  facet normal -0 0 1
    outer loop
      vertex 15.5 7 28
      vertex 29.0179 3.02917 28
      vertex 30.9184 7 28
    endloop
  endfacet
  facet normal -0 0 1
    outer loop
      vertex 13.875 8.51554 28
      vertex 15.5 7 28
      vertex 15.2512 10.8 28
    endloop
  endfacet
  facet normal 0 0 1
    outer loop
      vertex 13.875 5.48446 28
      vertex 15.5 7 28
      vertex 14.75 7 28
    endloop
  endfacet
  facet normal 0 0 1
    outer loop
      vertex 15.5 7 28
      vertex 13.875 5.48446 28
      vertex 29.0179 3.02917 28
    endloop
  endfacet
  facet normal -0 0 1
    outer loop
      vertex 5.125 5.48446 28
      vertex 29.0179 3.02917 28
      vertex 13.875 5.48446 28
    endloop
  endfacet
  facet normal -0 0 1
    outer loop
      vertex 0.750001 7 28
      vertex 5.125 5.48446 28
      vertex 4.25 7 28
    endloop
  endfacet
  facet normal 0 0 1
    outer loop
      vertex -0.124999 5.48446 28
      vertex 5.125 5.48446 28
      vertex 0.750001 7 28
    endloop
  endfacet
  facet normal 0 0 1
    outer loop
      vertex -9.98215 3.02917 28
      vertex 5.125 5.48446 28
      vertex -0.124999 5.48446 28
    endloop
  endfacet
  facet normal 0 0 1
    outer loop
      vertex -9.98215 3.02917 28
      vertex -0.124999 5.48446 28
      vertex -8.875 5.48446 28
    endloop
  endfacet
  facet normal 0 0 1
    outer loop
      vertex 5.125 5.48446 28
      vertex -9.98215 3.02917 28
      vertex 29.0179 3.02917 28
    endloop
  endfacet
  facet normal 0 0 1
    outer loop
      vertex -9.98215 3.02917 28
      vertex -8.875 5.48446 28
      vertex -9.75 7 28
    endloop
  endfacet
  facet normal -0.354605 -0.935016 0
    outer loop
      vertex -11.7723 3.70807 19
      vertex -9.98215 3.02917 28
      vertex -11.7723 3.70807 28
    endloop
  endfacet
  facet normal -0.354605 -0.935016 -0
    outer loop
      vertex -9.98215 3.02917 28
      vertex -11.7723 3.70807 19
      vertex -9.98215 3.02917 19
    endloop
  endfacet
  facet normal 0 0 -1
    outer loop
      vertex -9.98215 3.02917 19
      vertex -11.7723 3.70807 19
      vertex -13.0418 5.14111 19
    endloop
  endfacet
  facet normal 0.568065 -0.822984 0
    outer loop
      vertex 30.9184 3.25994 19
      vertex 31.2662 3.5 28
      vertex 30.9184 3.25994 28
    endloop
  endfacet
  facet normal 0.568065 -0.822984 0
    outer loop
      vertex 31.2662 3.5 28
      vertex 30.9184 3.25994 19
      vertex 31.2662 3.5 19
    endloop
  endfacet
  facet normal -0 0 1
    outer loop
      vertex 31.1311 3.5 28
      vertex 30.9184 3.25994 28
      vertex 31.2662 3.5 28
    endloop
  endfacet
  facet normal 0.120536 -0.992709 0
    outer loop
      vertex 29.0179 3.02917 19
      vertex 30.9184 3.25994 28
      vertex 29.0179 3.02917 28
    endloop
  endfacet
  facet normal 0.120536 -0.992709 0
    outer loop
      vertex 30.9184 3.25994 28
      vertex 29.0179 3.02917 19
      vertex 30.9184 3.25994 19
    endloop
  endfacet
  facet normal 0 0 -1
    outer loop
      vertex -9.98215 3.02917 19
      vertex -10.692 5.26995 19
      vertex -9.98215 4.65485 19
    endloop
  endfacet
  facet normal 0 0 -1
    outer loop
      vertex -10.692 5.26995 19
      vertex -13.5 7 19
      vertex -11.2 7 19
    endloop
  endfacet
  facet normal 0 0 -1
    outer loop
      vertex -13.5 7 19
      vertex -10.692 5.26995 19
      vertex -9.98215 3.02917 19
    endloop
  endfacet
  facet normal 0 0 -1
    outer loop
      vertex -9.98215 9.34515 19
      vertex -10.1335 10.8 19
      vertex -9.98215 10.8 19
    endloop
  endfacet
  facet normal 0 0 -1
    outer loop
      vertex -10.692 8.73005 19
      vertex -10.1335 10.8 19
      vertex -9.98215 9.34515 19
    endloop
  endfacet
  facet normal 0 0 -1
    outer loop
      vertex -13.5 7 19
      vertex -10.692 8.73005 19
      vertex -11.2 7 19
    endloop
  endfacet
  facet normal -0 0 -1
    outer loop
      vertex -10.692 8.73005 19
      vertex -13.5 7 19
      vertex -10.1335 10.8 19
    endloop
  endfacet
  facet normal 0 0 -1
    outer loop
      vertex -9.98215 3.02917 19
      vertex -13.0418 5.14111 19
      vertex -13.5 7 19
    endloop
  endfacet
  facet normal -0 0 -1
    outer loop
      vertex -10.2296 10.8 19
      vertex -11.7723 10.2919 19
      vertex -10.4326 10.8 19
    endloop
  endfacet
  facet normal 0 -0 -1
    outer loop
      vertex -11.7723 10.2919 19
      vertex -10.2296 10.8 19
      vertex -13.0418 8.85889 19
    endloop
  endfacet
  facet normal 0 -1 0
    outer loop
      vertex -9.98215 3.02917 19
      vertex 29.0179 3.02917 28
      vertex -9.98215 3.02917 28
    endloop
  endfacet
  facet normal 0 -1 -0
    outer loop
      vertex 29.0179 3.02917 28
      vertex -9.98215 3.02917 19
      vertex 29.0179 3.02917 19
    endloop
  endfacet
  facet normal 0 0 1
    outer loop
      vertex 31.1311 3.5 28
      vertex 30.9184 3.5 28
      vertex 30.9184 3.25994 28
    endloop
  endfacet
  facet normal 0 0 0
    outer loop
      vertex 30.9184 3.5 28
      vertex 30.9184 7 28
      vertex 30.9184 3.25994 28
    endloop
  endfacet
  facet normal -0.748511 0.663123 0
    outer loop
      vertex -13.0418 8.85889 19
      vertex -11.7723 10.2919 28
      vertex -11.7723 10.2919 19
    endloop
  endfacet
  facet normal -0.748511 0.663123 0
    outer loop
      vertex -11.7723 10.2919 28
      vertex -13.0418 8.85889 19
      vertex -13.0418 8.85889 28
    endloop
  endfacet
  facet normal -0.354605 0.935016 0
    outer loop
      vertex -10.4326 10.8 19
      vertex -11.7723 10.2919 28
      vertex -10.4326 10.8 28
    endloop
  endfacet
  facet normal -0.354605 0.935016 0
    outer loop
      vertex -11.7723 10.2919 28
      vertex -10.4326 10.8 19
      vertex -11.7723 10.2919 19
    endloop
  endfacet
  facet normal 0.959493 0.281733 0
    outer loop
      vertex -10.692 5.26995 22.99
      vertex -11.2 7 19
      vertex -11.2 7 22.99
    endloop
  endfacet
  facet normal 0.959493 0.281733 0
    outer loop
      vertex -11.2 7 19
      vertex -10.692 5.26995 22.99
      vertex -10.692 5.26995 19
    endloop
  endfacet
  facet normal -1 0 0
    outer loop
      vertex 2.07038 6.09846 19
      vertex 2.07038 7.90154 22.99
      vertex 2.07038 7.90154 19
    endloop
  endfacet
  facet normal -1 -0 0
    outer loop
      vertex 2.07038 7.90154 22.99
      vertex 2.07038 6.09846 19
      vertex 2.07038 6.09846 22.99
    endloop
  endfacet
  facet normal 0.142315 -0.989821 0
    outer loop
      vertex -9.32933 9.91082 19
      vertex -7.54459 10.1674 22.99
      vertex -9.32933 9.91082 22.99
    endloop
  endfacet
  facet normal 0.142315 -0.989821 0
    outer loop
      vertex -7.54459 10.1674 22.99
      vertex -9.32933 9.91082 19
      vertex -7.54459 10.1674 19
    endloop
  endfacet
  facet normal 0.654861 0.75575 0
    outer loop
      vertex -9.98215 4.65485 19
      vertex -9.32933 4.08918 22.99
      vertex -9.32933 4.08918 19
    endloop
  endfacet
  facet normal 0.654861 0.75575 -2.46687e-008
    outer loop
      vertex -9.32933 4.08918 22.99
      vertex -9.98215 4.65485 19
      vertex -10.692 5.26995 22.99
    endloop
  endfacet
  facet normal 0.654861 0.755749 0
    outer loop
      vertex -10.692 5.26995 22.99
      vertex -9.98215 4.65485 19
      vertex -10.692 5.26995 19
    endloop
  endfacet
  facet normal 0 1 -0
    outer loop
      vertex -0.544592 3.83257 19
      vertex -7.54459 3.83257 22.99
      vertex -0.544592 3.83257 22.99
    endloop
  endfacet
  facet normal 0 1 0
    outer loop
      vertex -7.54459 3.83257 22.99
      vertex -0.544592 3.83257 19
      vertex -7.54459 3.83257 19
    endloop
  endfacet
  facet normal -0.841253 0.540641 0
    outer loop
      vertex 1.09555 4.5816 19
      vertex 2.07038 6.09846 22.99
      vertex 2.07038 6.09846 19
    endloop
  endfacet
  facet normal -0.841253 0.540641 0
    outer loop
      vertex 2.07038 6.09846 22.99
      vertex 1.09555 4.5816 19
      vertex 1.09555 4.5816 22.99
    endloop
  endfacet
  facet normal -0.415415 0.909632 0
    outer loop
      vertex 1.09555 4.5816 19
      vertex -0.544592 3.83257 22.99
      vertex 1.09555 4.5816 22.99
    endloop
  endfacet
  facet normal -0.415415 0.909632 0
    outer loop
      vertex -0.544592 3.83257 22.99
      vertex 1.09555 4.5816 19
      vertex -0.544592 3.83257 19
    endloop
  endfacet
  facet normal 0.959493 -0.281733 0
    outer loop
      vertex -11.2 7 22.99
      vertex -10.692 8.73005 19
      vertex -10.692 8.73005 22.99
    endloop
  endfacet
  facet normal 0.959493 -0.281733 0
    outer loop
      vertex -10.692 8.73005 19
      vertex -11.2 7 22.99
      vertex -11.2 7 19
    endloop
  endfacet
  facet normal 0 0 -1
    outer loop
      vertex -0.125 5.48446 22.99
      vertex 2.07038 6.09846 22.99
      vertex 1.09555 4.5816 22.99
    endloop
  endfacet
  facet normal 0 0 -1
    outer loop
      vertex 2.07038 6.09846 22.99
      vertex 0.75 7 22.99
      vertex 2.07038 7.90154 22.99
    endloop
  endfacet
  facet normal 6.16342e-007 -9.02679e-007 -1
    outer loop
      vertex -0.125 8.51554 22.99
      vertex 2.07038 7.90154 22.99
      vertex 0.75 7 22.99
    endloop
  endfacet
  facet normal -0 0 -1
    outer loop
      vertex 2.07038 6.09846 22.99
      vertex -0.125 5.48446 22.99
      vertex 0.75 7 22.99
    endloop
  endfacet
  facet normal 0 0 -1
    outer loop
      vertex -0.544592 3.83257 22.99
      vertex -0.125 5.48446 22.99
      vertex 1.09555 4.5816 22.99
    endloop
  endfacet
  facet normal 2.72478e-007 -6.92118e-008 -1
    outer loop
      vertex -7.54459 3.83257 22.99
      vertex -0.125 5.48446 22.99
      vertex -0.544592 3.83257 22.99
    endloop
  endfacet
  facet normal 2.17983e-007 1.75561e-007 -1
    outer loop
      vertex -7.54459 3.83257 22.99
      vertex -8.875 5.48446 22.99
      vertex -0.125 5.48446 22.99
    endloop
  endfacet
  facet normal 0 0 -1
    outer loop
      vertex -9.32933 4.08918 22.99
      vertex -8.875 5.48446 22.99
      vertex -7.54459 3.83257 22.99
    endloop
  endfacet
  facet normal 0 0 -1
    outer loop
      vertex -10.692 5.26995 22.99
      vertex -8.875 5.48446 22.99
      vertex -9.32933 4.08918 22.99
    endloop
  endfacet
  facet normal -0 0 -1
    outer loop
      vertex -8.875 5.48446 22.99
      vertex -10.692 5.26995 22.99
      vertex -9.75 7 22.99
    endloop
  endfacet
  facet normal 6.30438e-007 -8.52279e-007 -1
    outer loop
      vertex 2.07038 7.90154 22.99
      vertex -0.125 8.51554 22.99
      vertex 1.09555 9.4184 22.99
    endloop
  endfacet
  facet normal 0 0 -1
    outer loop
      vertex -0.125 8.51554 22.99
      vertex -0.544592 10.1674 22.99
      vertex 1.09555 9.4184 22.99
    endloop
  endfacet
  facet normal 0 0 -1
    outer loop
      vertex -0.125 8.51554 22.99
      vertex -7.54459 10.1674 22.99
      vertex -0.544592 10.1674 22.99
    endloop
  endfacet
  facet normal 0 0 -1
    outer loop
      vertex -8.875 8.51554 22.99
      vertex -7.54459 10.1674 22.99
      vertex -0.125 8.51554 22.99
    endloop
  endfacet
  facet normal 0 0 -1
    outer loop
      vertex -8.875 8.51554 22.99
      vertex -9.32933 9.91082 22.99
      vertex -7.54459 10.1674 22.99
    endloop
  endfacet
  facet normal 0 0 -1
    outer loop
      vertex -10.692 8.73005 22.99
      vertex -8.875 8.51554 22.99
      vertex -9.75 7 22.99
    endloop
  endfacet
  facet normal 0 0 -1
    outer loop
      vertex -11.2 7 22.99
      vertex -9.75 7 22.99
      vertex -10.692 5.26995 22.99
    endloop
  endfacet
  facet normal 0 0 -1
    outer loop
      vertex -8.875 8.51554 22.99
      vertex -10.692 8.73005 22.99
      vertex -9.32933 9.91082 22.99
    endloop
  endfacet
  facet normal 0 0 -1
    outer loop
      vertex -9.75 7 22.99
      vertex -11.2 7 22.99
      vertex -10.692 8.73005 22.99
    endloop
  endfacet
  facet normal 0.654861 -0.75575 0
    outer loop
      vertex -9.98215 9.34515 19
      vertex -10.692 8.73005 22.99
      vertex -10.692 8.73005 19
    endloop
  endfacet
  facet normal 0.654861 -0.75575 6.56495e-008
    outer loop
      vertex -10.692 8.73005 22.99
      vertex -9.98215 9.34515 19
      vertex -9.32933 9.91082 22.99
    endloop
  endfacet
  facet normal 0.654861 -0.755749 0
    outer loop
      vertex -9.32933 9.91082 22.99
      vertex -9.98215 9.34515 19
      vertex -9.32933 9.91082 19
    endloop
  endfacet
  facet normal 0.142315 0.989821 -0
    outer loop
      vertex -7.54459 3.83257 19
      vertex -9.32933 4.08918 22.99
      vertex -7.54459 3.83257 22.99
    endloop
  endfacet
  facet normal 0.142315 0.989821 0
    outer loop
      vertex -9.32933 4.08918 22.99
      vertex -7.54459 3.83257 19
      vertex -9.32933 4.08918 19
    endloop
  endfacet
  facet normal 0 -1 0
    outer loop
      vertex -7.54459 10.1674 19
      vertex -0.544592 10.1674 22.99
      vertex -7.54459 10.1674 22.99
    endloop
  endfacet
  facet normal 0 -1 -0
    outer loop
      vertex -0.544592 10.1674 22.99
      vertex -7.54459 10.1674 19
      vertex -0.544592 10.1674 19
    endloop
  endfacet
  facet normal -0.415415 -0.909632 0
    outer loop
      vertex -0.544592 10.1674 19
      vertex 1.09555 9.4184 22.99
      vertex -0.544592 10.1674 22.99
    endloop
  endfacet
  facet normal -0.415415 -0.909632 -0
    outer loop
      vertex 1.09555 9.4184 22.99
      vertex -0.544592 10.1674 19
      vertex 1.09555 9.4184 19
    endloop
  endfacet
  facet normal -0.841253 -0.540641 0
    outer loop
      vertex 2.07038 7.90154 19
      vertex 1.09555 9.4184 22.99
      vertex 1.09555 9.4184 19
    endloop
  endfacet
  facet normal -0.841253 -0.540641 0
    outer loop
      vertex 1.09555 9.4184 22.99
      vertex 2.07038 7.90154 19
      vertex 2.07038 7.90154 22.99
    endloop
  endfacet
  facet normal 0.959493 0.281733 0
    outer loop
      vertex 3.30799 5.26995 22.99
      vertex 2.8 7 19
      vertex 2.8 7 22.99
    endloop
  endfacet
  facet normal 0.959493 0.281733 0
    outer loop
      vertex 2.8 7 19
      vertex 3.30799 5.26995 22.99
      vertex 3.30799 5.26995 19
    endloop
  endfacet
  facet normal 0.142315 -0.989821 0
    outer loop
      vertex 4.67067 9.91082 19
      vertex 6.45541 10.1674 22.99
      vertex 4.67067 9.91082 22.99
    endloop
  endfacet
  facet normal 0.142315 -0.989821 0
    outer loop
      vertex 6.45541 10.1674 22.99
      vertex 4.67067 9.91082 19
      vertex 6.45541 10.1674 19
    endloop
  endfacet
  facet normal 0.654861 0.75575 -0
    outer loop
      vertex 4.67067 4.08918 19
      vertex 3.30799 5.26995 22.99
      vertex 4.67067 4.08918 22.99
    endloop
  endfacet
  facet normal 0.654861 0.75575 0
    outer loop
      vertex 3.30799 5.26995 22.99
      vertex 4.67067 4.08918 19
      vertex 3.30799 5.26995 19
    endloop
  endfacet
  facet normal 0 1 -0
    outer loop
      vertex 13.4554 3.83257 19
      vertex 6.45541 3.83257 22.99
      vertex 13.4554 3.83257 22.99
    endloop
  endfacet
  facet normal 0 1 0
    outer loop
      vertex 6.45541 3.83257 22.99
      vertex 13.4554 3.83257 19
      vertex 6.45541 3.83257 19
    endloop
  endfacet
  facet normal -0.841253 0.540641 0
    outer loop
      vertex 15.0956 4.5816 19
      vertex 15.8187 5.70688 22.99
      vertex 15.8187 5.70688 19
    endloop
  endfacet
  facet normal -0.841253 0.540641 0
    outer loop
      vertex 15.8187 5.70688 22.99
      vertex 15.0956 4.5816 19
      vertex 15.0956 4.5816 22.99
    endloop
  endfacet
  facet normal -0.415415 0.909632 0
    outer loop
      vertex 15.0956 4.5816 19
      vertex 13.4554 3.83257 22.99
      vertex 15.0956 4.5816 22.99
    endloop
  endfacet
  facet normal -0.415415 0.909632 0
    outer loop
      vertex 13.4554 3.83257 22.99
      vertex 15.0956 4.5816 19
      vertex 13.4554 3.83257 19
    endloop
  endfacet
  facet normal 0.959493 -0.281733 0
    outer loop
      vertex 2.8 7 22.99
      vertex 3.30799 8.73005 19
      vertex 3.30799 8.73005 22.99
    endloop
  endfacet
  facet normal 0.959493 -0.281733 0
    outer loop
      vertex 3.30799 8.73005 19
      vertex 2.8 7 22.99
      vertex 2.8 7 19
    endloop
  endfacet
  facet normal 0 0 -1
    outer loop
      vertex 13.875 5.48446 22.99
      vertex 15.8187 5.70688 22.99
      vertex 15.0956 4.5816 22.99
    endloop
  endfacet
  facet normal 0 0 -1
    outer loop
      vertex 15.8187 5.70688 22.99
      vertex 14.75 7 22.99
      vertex 15.5 7 22.99
    endloop
  endfacet
  facet normal 0 0 -1
    outer loop
      vertex 14.2635 7.84271 22.99
      vertex 15.5 7 22.99
      vertex 14.75 7 22.99
    endloop
  endfacet
  facet normal 0 0 -1
    outer loop
      vertex 15.5 7 22.99
      vertex 14.2635 7.84271 22.99
      vertex 15.3696 8.99202 22.99
    endloop
  endfacet
  facet normal -0 0 -1
    outer loop
      vertex 15.8187 5.70688 22.99
      vertex 13.875 5.48446 22.99
      vertex 14.75 7 22.99
    endloop
  endfacet
  facet normal 0 0 -1
    outer loop
      vertex 13.4554 3.83257 22.99
      vertex 13.875 5.48446 22.99
      vertex 15.0956 4.5816 22.99
    endloop
  endfacet
  facet normal 0 0 -1
    outer loop
      vertex 6.45541 3.83257 22.99
      vertex 13.875 5.48446 22.99
      vertex 13.4554 3.83257 22.99
    endloop
  endfacet
  facet normal 0 0 -1
    outer loop
      vertex 6.45541 3.83257 22.99
      vertex 5.125 5.48446 22.99
      vertex 13.875 5.48446 22.99
    endloop
  endfacet
  facet normal 0 0 -1
    outer loop
      vertex 4.67067 4.08918 22.99
      vertex 5.125 5.48446 22.99
      vertex 6.45541 3.83257 22.99
    endloop
  endfacet
  facet normal 0 0 -1
    outer loop
      vertex 3.30799 5.26995 22.99
      vertex 5.125 5.48446 22.99
      vertex 4.67067 4.08918 22.99
    endloop
  endfacet
  facet normal -0 0 -1
    outer loop
      vertex 5.125 5.48446 22.99
      vertex 3.30799 5.26995 22.99
      vertex 4.25 7 22.99
    endloop
  endfacet
  facet normal 0 0 -1
    outer loop
      vertex 13.875 8.51554 22.99
      vertex 15.3696 8.99202 22.99
      vertex 14.2635 7.84271 22.99
    endloop
  endfacet
  facet normal -0 0 -1
    outer loop
      vertex 15.3696 8.99202 22.99
      vertex 13.875 8.51554 22.99
      vertex 15.0956 9.4184 22.99
    endloop
  endfacet
  facet normal 0 0 -1
    outer loop
      vertex 13.875 8.51554 22.99
      vertex 13.4554 10.1674 22.99
      vertex 15.0956 9.4184 22.99
    endloop
  endfacet
  facet normal 0 0 -1
    outer loop
      vertex 13.875 8.51554 22.99
      vertex 6.45541 10.1674 22.99
      vertex 13.4554 10.1674 22.99
    endloop
  endfacet
  facet normal 0 0 -1
    outer loop
      vertex 5.125 8.51554 22.99
      vertex 6.45541 10.1674 22.99
      vertex 13.875 8.51554 22.99
    endloop
  endfacet
  facet normal 0 0 -1
    outer loop
      vertex 5.125 8.51554 22.99
      vertex 4.67067 9.91082 22.99
      vertex 6.45541 10.1674 22.99
    endloop
  endfacet
  facet normal 0 0 -1
    outer loop
      vertex 3.30799 8.73005 22.99
      vertex 5.125 8.51554 22.99
      vertex 4.25 7 22.99
    endloop
  endfacet
  facet normal 0 0 -1
    outer loop
      vertex 2.8 7 22.99
      vertex 4.25 7 22.99
      vertex 3.30799 5.26995 22.99
    endloop
  endfacet
  facet normal 0 0 -1
    outer loop
      vertex 5.125 8.51554 22.99
      vertex 3.30799 8.73005 22.99
      vertex 4.67067 9.91082 22.99
    endloop
  endfacet
  facet normal 0 0 -1
    outer loop
      vertex 4.25 7 22.99
      vertex 2.8 7 22.99
      vertex 3.30799 8.73005 22.99
    endloop
  endfacet
  facet normal 0.654861 -0.75575 0
    outer loop
      vertex 3.30799 8.73005 19
      vertex 4.67067 9.91082 22.99
      vertex 3.30799 8.73005 22.99
    endloop
  endfacet
  facet normal 0.654861 -0.75575 0
    outer loop
      vertex 4.67067 9.91082 22.99
      vertex 3.30799 8.73005 19
      vertex 4.67067 9.91082 19
    endloop
  endfacet
  facet normal 0.142315 0.989821 -0
    outer loop
      vertex 6.45541 3.83257 19
      vertex 4.67067 4.08918 22.99
      vertex 6.45541 3.83257 22.99
    endloop
  endfacet
  facet normal 0.142315 0.989821 0
    outer loop
      vertex 4.67067 4.08918 22.99
      vertex 6.45541 3.83257 19
      vertex 4.67067 4.08918 19
    endloop
  endfacet
  facet normal 0 -1 0
    outer loop
      vertex 6.45541 10.1674 19
      vertex 13.4554 10.1674 22.99
      vertex 6.45541 10.1674 22.99
    endloop
  endfacet
  facet normal 0 -1 -0
    outer loop
      vertex 13.4554 10.1674 22.99
      vertex 6.45541 10.1674 19
      vertex 13.4554 10.1674 19
    endloop
  endfacet
  facet normal -0.415415 -0.909632 0
    outer loop
      vertex 13.4554 10.1674 19
      vertex 15.0956 9.4184 22.99
      vertex 13.4554 10.1674 22.99
    endloop
  endfacet
  facet normal -0.415415 -0.909632 -0
    outer loop
      vertex 15.0956 9.4184 22.99
      vertex 13.4554 10.1674 19
      vertex 15.0956 9.4184 19
    endloop
  endfacet
  facet normal -0.841254 -0.54064 0
    outer loop
      vertex 15.3696 8.99202 19
      vertex 15.0956 9.4184 22.99
      vertex 15.0956 9.4184 19
    endloop
  endfacet
  facet normal -0.841254 -0.54064 0
    outer loop
      vertex 15.0956 9.4184 22.99
      vertex 15.3696 8.99202 19
      vertex 15.3696 8.99202 22.99
    endloop
  endfacet
  facet normal 0 0 -1
    outer loop
      vertex 15.0956 9.4184 19
      vertex 16.0704 7.90154 19
      vertex 15.3696 8.99202 19
    endloop
  endfacet
  facet normal 0.866025 0.5 0
    outer loop
      vertex -8.875 5.48446 28
      vertex -9.75 7 22.99
      vertex -9.75 7 28
    endloop
  endfacet
  facet normal 0.866025 0.5 0
    outer loop
      vertex -9.75 7 22.99
      vertex -8.875 5.48446 28
      vertex -8.875 5.48446 22.99
    endloop
  endfacet
  facet normal -0.866025 -0.5 9.01532e-008
    outer loop
      vertex 0.75 7 22.99
      vertex -0.124999 8.51554 28
      vertex -0.125 8.51554 22.99
    endloop
  endfacet
  facet normal -0.866025 -0.5 9.2729e-008
    outer loop
      vertex -0.124999 8.51554 28
      vertex 0.75 7 22.99
      vertex 0.750001 7 28
    endloop
  endfacet
  facet normal 0.866025 -0.5 0
    outer loop
      vertex -9.75 7 28
      vertex -8.875 8.51554 22.99
      vertex -8.875 8.51554 28
    endloop
  endfacet
  facet normal 0.866025 -0.5 0
    outer loop
      vertex -8.875 8.51554 22.99
      vertex -9.75 7 28
      vertex -9.75 7 22.99
    endloop
  endfacet
  facet normal 0 -1 0
    outer loop
      vertex -8.875 8.51554 22.99
      vertex -0.124999 8.51554 28
      vertex -8.875 8.51554 28
    endloop
  endfacet
  facet normal 0 -1 0
    outer loop
      vertex -0.124999 8.51554 28
      vertex -8.875 8.51554 22.99
      vertex -0.125 8.51554 22.99
    endloop
  endfacet
  facet normal -0.866025 0.5 9.2729e-008
    outer loop
      vertex -0.125 5.48446 22.99
      vertex 0.750001 7 28
      vertex 0.75 7 22.99
    endloop
  endfacet
  facet normal -0.866025 0.5 9.01532e-008
    outer loop
      vertex 0.750001 7 28
      vertex -0.125 5.48446 22.99
      vertex -0.124999 5.48446 28
    endloop
  endfacet
  facet normal 0 1 -0
    outer loop
      vertex -0.125 5.48446 22.99
      vertex -8.875 5.48446 28
      vertex -0.124999 5.48446 28
    endloop
  endfacet
  facet normal 0 1 0
    outer loop
      vertex -8.875 5.48446 28
      vertex -0.125 5.48446 22.99
      vertex -8.875 5.48446 22.99
    endloop
  endfacet
  facet normal 0.866025 0.5 -8.24258e-008
    outer loop
      vertex 5.125 5.48446 28
      vertex 4.25 7 22.99
      vertex 4.25 7 28
    endloop
  endfacet
  facet normal 0.866025 0.5 -8.24258e-008
    outer loop
      vertex 4.25 7 22.99
      vertex 5.125 5.48446 28
      vertex 5.125 5.48446 22.99
    endloop
  endfacet
  facet normal -0.866025 -0.500001 0
    outer loop
      vertex 14.2635 7.84271 22.99
      vertex 13.875 8.51554 28
      vertex 13.875 8.51554 22.99
    endloop
  endfacet
  facet normal -0.866025 -0.5 -8.31014e-008
    outer loop
      vertex 13.875 8.51554 28
      vertex 14.2635 7.84271 22.99
      vertex 14.7452 7.00833 28
    endloop
  endfacet
  facet normal 0 1 -0
    outer loop
      vertex 13.875 5.48446 22.99
      vertex 5.125 5.48446 28
      vertex 13.875 5.48446 28
    endloop
  endfacet
  facet normal 0 1 0
    outer loop
      vertex 5.125 5.48446 28
      vertex 13.875 5.48446 22.99
      vertex 5.125 5.48446 22.99
    endloop
  endfacet
  facet normal 0 -1 0
    outer loop
      vertex 5.125 8.51554 22.99
      vertex 13.875 8.51554 28
      vertex 5.125 8.51554 28
    endloop
  endfacet
  facet normal 0 -1 -0
    outer loop
      vertex 13.875 8.51554 28
      vertex 5.125 8.51554 22.99
      vertex 13.875 8.51554 22.99
    endloop
  endfacet
  facet normal 0.866025 -0.5 -8.24258e-008
    outer loop
      vertex 4.25 7 28
      vertex 5.125 8.51554 22.99
      vertex 5.125 8.51554 28
    endloop
  endfacet
  facet normal 0.866025 -0.5 -8.24258e-008
    outer loop
      vertex 5.125 8.51554 22.99
      vertex 4.25 7 28
      vertex 4.25 7 22.99
    endloop
  endfacet
  facet normal -0.866026 -0.499999 1.84657e-007
    outer loop
      vertex 14.75 7 22.99
      vertex 14.7452 7.00833 28
      vertex 14.2635 7.84271 22.99
    endloop
  endfacet
  facet normal -0.866031 -0.49999 1.64853e-007
    outer loop
      vertex 14.7452 7.00833 28
      vertex 14.75 7 22.99
      vertex 14.75 7 28
    endloop
  endfacet
  facet normal -0.866025 0.5 1.64852e-007
    outer loop
      vertex 13.875 5.48446 22.99
      vertex 14.75 7 28
      vertex 14.75 7 22.99
    endloop
  endfacet
  facet normal -0.866025 0.5 1.64852e-007
    outer loop
      vertex 14.75 7 28
      vertex 13.875 5.48446 22.99
      vertex 13.875 5.48446 28
    endloop
  endfacet
  facet normal 0 1 0
    outer loop
      vertex -9.98215 10.8 19
      vertex 15.2512 10.8 28
      vertex 15.2512 10.8 19
    endloop
  endfacet
  facet normal 0 1 0
    outer loop
      vertex 15.2512 10.8 28
      vertex -9.98215 10.8 19
      vertex -10.4326 10.8 28
    endloop
  endfacet
  facet normal 0 1 -0
    outer loop
      vertex -10.1335 10.8 19
      vertex -10.4326 10.8 28
      vertex -9.98215 10.8 19
    endloop
  endfacet
  facet normal 0 1 -0
    outer loop
      vertex -10.2296 10.8 19
      vertex -10.4326 10.8 28
      vertex -10.1335 10.8 19
    endloop
  endfacet
  facet normal 0 1 0
    outer loop
      vertex -10.4326 10.8 28
      vertex -10.2296 10.8 19
      vertex -10.4326 10.8 19
    endloop
  endfacet
  facet normal 0 0 0
    outer loop
      vertex -9.98215 10.8 19
      vertex 15.2512 10.8 19
      vertex 30.4248 10.8 19
    endloop
  endfacet
  facet normal -0.271257 0.123877 -0.954502
    outer loop
      vertex 16.9251 55.1476 21.5049
      vertex 16.4363 56.9718 21.8806
      vertex 16.9315 55.1236 21.5
    endloop
  endfacet
  facet normal -0.258819 0.965926 0
    outer loop
      vertex 15.6374 59.9532 26.5
      vertex 10.8078 58.6591 61.5
      vertex 15.6374 59.9532 61.5
    endloop
  endfacet
  facet normal -0.258819 0.965926 0
    outer loop
      vertex 10.8078 58.6591 61.5
      vertex 15.6374 59.9532 26.5
      vertex 10.8078 58.6591 26.5
    endloop
  endfacet
  facet normal 0.0504929 -0.188442 0.980785
    outer loop
      vertex 16.9315 55.1236 66.5
      vertex 12.5971 51.9813 66.1194
      vertex 17.4267 53.2754 66.1194
    endloop
  endfacet
  facet normal 0.0504927 -0.188442 0.980786
    outer loop
      vertex 12.5971 51.9813 66.1194
      vertex 16.9315 55.1236 66.5
      vertex 12.1019 53.8295 66.5
    endloop
  endfacet
  facet normal 0.143792 -0.536639 0.83147
    outer loop
      vertex 17.4267 53.2754 66.1194
      vertex 13.0169 50.4145 65.0355
      vertex 17.8466 51.7085 65.0355
    endloop
  endfacet
  facet normal 0.143792 -0.536639 0.83147
    outer loop
      vertex 13.0169 50.4145 65.0355
      vertex 17.4267 53.2754 66.1194
      vertex 12.5971 51.9813 66.1194
    endloop
  endfacet
  facet normal -0.253846 0.947366 0.19509
    outer loop
      vertex 15.6374 59.9532 61.5
      vertex 10.9063 58.2915 63.4134
      vertex 15.7359 59.5856 63.4134
    endloop
  endfacet
  facet normal -0.253846 0.947366 0.19509
    outer loop
      vertex 10.9063 58.2915 63.4134
      vertex 15.6374 59.9532 61.5
      vertex 10.8078 58.6591 61.5
    endloop
  endfacet
  facet normal -0.0504927 0.188441 0.980786
    outer loop
      vertex 16.4363 56.9718 66.1194
      vertex 12.1019 53.8295 66.5
      vertex 16.9315 55.1236 66.5
    endloop
  endfacet
  facet normal -0.0504929 0.188442 0.980785
    outer loop
      vertex 12.1019 53.8295 66.5
      vertex 16.4363 56.9718 66.1194
      vertex 11.6066 55.6777 66.1194
    endloop
  endfacet
  facet normal -0.2152 0.803138 0.55557
    outer loop
      vertex 15.7359 59.5856 63.4134
      vertex 11.1868 57.2446 65.0355
      vertex 16.0164 58.5387 65.0355
    endloop
  endfacet
  facet normal -0.2152 0.803138 0.55557
    outer loop
      vertex 11.1868 57.2446 65.0355
      vertex 15.7359 59.5856 63.4134
      vertex 10.9063 58.2915 63.4134
    endloop
  endfacet
  facet normal 0.258819 -0.965926 0
    outer loop
      vertex 16.4011 49.8051 29.4099
      vertex 13.396 48.9999 61.5
      vertex 13.396 48.9999 29.4099
    endloop
  endfacet
  facet normal 0.25882 -0.965926 4.39417e-008
    outer loop
      vertex 13.396 48.9999 61.5
      vertex 16.4011 49.8051 29.4099
      vertex 18.2256 50.294 61.5
    endloop
  endfacet
  facet normal 0.25882 -0.965925 -4.54225e-009
    outer loop
      vertex 17.9282 50.2143 29.4099
      vertex 18.2256 50.294 61.5
      vertex 16.4011 49.8051 29.4099
    endloop
  endfacet
  facet normal 0.25882 -0.965926 -2.43925e-009
    outer loop
      vertex 18.0845 50.2562 29.2244
      vertex 18.2256 50.294 61.5
      vertex 17.9282 50.2143 29.4099
    endloop
  endfacet
  facet normal 0.25878 -0.965936 1.83536e-007
    outer loop
      vertex 18.1118 50.2635 28.9571
      vertex 18.2256 50.294 61.5
      vertex 18.0845 50.2562 29.2244
    endloop
  endfacet
  facet normal 0.258837 -0.965921 -2.81513e-008
    outer loop
      vertex 18.1889 50.2842 28.2026
      vertex 18.2256 50.294 61.5
      vertex 18.1118 50.2635 28.9571
    endloop
  endfacet
  facet normal 0.258813 -0.965927 0
    outer loop
      vertex 18.2256 50.294 61.5
      vertex 18.1889 50.2842 28.2026
      vertex 18.2256 50.294 26.5
    endloop
  endfacet
  facet normal -0.253846 0.947366 -0.195089
    outer loop
      vertex 15.6374 59.9532 26.5
      vertex 10.8364 58.5522 25.9436
      vertex 10.8078 58.6591 26.5
    endloop
  endfacet
  facet normal -0.253846 0.947366 -0.19509
    outer loop
      vertex 15.6374 59.9532 26.5
      vertex 15.6893 59.7595 25.4918
      vertex 10.8364 58.5522 25.9436
    endloop
  endfacet
  facet normal 0.81114 0.58067 -0.0698072
    outer loop
      vertex 15.7359 59.5856 24.5866
      vertex 15.6893 59.7595 25.4918
      vertex 15.6374 59.9532 26.5
    endloop
  endfacet
  facet normal -0.143793 0.53664 0.831469
    outer loop
      vertex 16.0164 58.5387 65.0355
      vertex 11.6066 55.6777 66.1194
      vertex 16.4363 56.9718 66.1194
    endloop
  endfacet
  facet normal -0.143792 0.536639 0.83147
    outer loop
      vertex 11.6066 55.6777 66.1194
      vertex 16.0164 58.5387 65.0355
      vertex 11.1868 57.2446 65.0355
    endloop
  endfacet
  facet normal -0.965926 -0.258818 0
    outer loop
      vertex 10.9063 58.2915 28.4134
      vertex 10.8078 58.6591 61.5
      vertex 10.8078 58.6591 26.5
    endloop
  endfacet
  facet normal -0.965926 -0.25882 1.30816e-008
    outer loop
      vertex 11.1868 57.2446 30.0355
      vertex 10.8078 58.6591 61.5
      vertex 10.9063 58.2915 28.4134
    endloop
  endfacet
  facet normal -0.965926 -0.258819 -2.79387e-008
    outer loop
      vertex 11.6066 55.6777 31.1194
      vertex 10.8078 58.6591 61.5
      vertex 11.1868 57.2446 30.0355
    endloop
  endfacet
  facet normal -0.965926 -0.258819 -0
    outer loop
      vertex 11.7096 55.2934 62.375
      vertex 10.8078 58.6591 61.5
      vertex 11.7096 55.2934 60.625
    endloop
  endfacet
  facet normal -0.965926 -0.258819 1.53709e-008
    outer loop
      vertex 12.1019 53.8295 59.75
      vertex 10.8078 58.6591 61.5
      vertex 11.6066 55.6777 31.1194
    endloop
  endfacet
  facet normal -0.965926 -0.258819 -1.56298e-007
    outer loop
      vertex 10.8078 58.6591 61.5
      vertex 11.7096 55.2934 62.375
      vertex 10.9063 58.2915 63.4134
    endloop
  endfacet
  facet normal -0.965926 -0.258819 1.74061e-007
    outer loop
      vertex 10.9063 58.2915 63.4134
      vertex 11.7096 55.2934 62.375
      vertex 11.1868 57.2446 65.0355
    endloop
  endfacet
  facet normal -0.965926 -0.258819 -0
    outer loop
      vertex 12.1019 53.8295 59.75
      vertex 11.6066 55.6777 31.1194
      vertex 12.1019 53.8295 31.5
    endloop
  endfacet
  facet normal -0.965926 -0.258819 7.05151e-007
    outer loop
      vertex 10.8078 58.6591 61.5
      vertex 12.1019 53.8295 59.75
      vertex 11.7096 55.2934 60.625
    endloop
  endfacet
  facet normal -0.965926 -0.258819 0
    outer loop
      vertex 12.5971 51.9813 31.1194
      vertex 12.1019 53.8295 59.75
      vertex 12.1019 53.8295 31.5
    endloop
  endfacet
  facet normal -0.965926 -0.258819 -2.85582e-008
    outer loop
      vertex 12.1019 53.8295 59.75
      vertex 13.396 48.9999 61.5
      vertex 12.4941 52.3656 60.625
    endloop
  endfacet
  facet normal -0.965926 -0.258819 5.43046e-009
    outer loop
      vertex 13.396 48.9999 61.5
      vertex 12.1019 53.8295 59.75
      vertex 12.5971 51.9813 31.1194
    endloop
  endfacet
  facet normal -0.965926 -0.258819 -2.16504e-007
    outer loop
      vertex 11.1868 57.2446 65.0355
      vertex 11.7096 55.2934 62.375
      vertex 11.6066 55.6777 66.1194
    endloop
  endfacet
  facet normal -0.965926 -0.258819 -1.90514e-007
    outer loop
      vertex 12.1019 53.8295 63.25
      vertex 11.6066 55.6777 66.1194
      vertex 11.7096 55.2934 62.375
    endloop
  endfacet
  facet normal -0.965926 -0.258819 0
    outer loop
      vertex 12.1019 53.8295 63.25
      vertex 12.1019 53.8295 66.5
      vertex 11.6066 55.6777 66.1194
    endloop
  endfacet
  facet normal -0.965926 -0.258819 -3.69116e-008
    outer loop
      vertex 12.5971 51.9813 66.1194
      vertex 12.1019 53.8295 63.25
      vertex 12.4941 52.3656 62.375
    endloop
  endfacet
  facet normal -0.965926 -0.258819 0
    outer loop
      vertex 12.1019 53.8295 63.25
      vertex 12.5971 51.9813 66.1194
      vertex 12.1019 53.8295 66.5
    endloop
  endfacet
  facet normal -0.965926 -0.258819 0
    outer loop
      vertex 12.4941 52.3656 60.625
      vertex 13.396 48.9999 61.5
      vertex 12.4941 52.3656 62.375
    endloop
  endfacet
  facet normal -0.965926 -0.258819 6.44073e-007
    outer loop
      vertex 13.2975 49.3675 63.4134
      vertex 12.4941 52.3656 62.375
      vertex 13.396 48.9999 61.5
    endloop
  endfacet
  facet normal -0.965926 -0.258819 -6.95445e-008
    outer loop
      vertex 12.4941 52.3656 62.375
      vertex 13.0169 50.4145 65.0355
      vertex 12.5971 51.9813 66.1194
    endloop
  endfacet
  facet normal -0.965926 -0.258819 -0
    outer loop
      vertex 13.396 48.9999 61.5
      vertex 12.5971 51.9813 31.1194
      vertex 13.396 48.9999 29.4099
    endloop
  endfacet
  facet normal -0.965926 -0.258819 -1.95748e-007
    outer loop
      vertex 12.4941 52.3656 62.375
      vertex 13.2975 49.3675 63.4134
      vertex 13.0169 50.4145 65.0355
    endloop
  endfacet
  facet normal -0.900516 0.0183754 -0.434435
    outer loop
      vertex 11.824 54.8664 25.3698
      vertex 11.9444 54.4172 25.1013
      vertex 11.7096 55.2934 25.625
    endloop
  endfacet
  facet normal -0.959024 -0.280561 -0.0394687
    outer loop
      vertex 12.0374 54.07 28.1063
      vertex 11.824 54.8664 27.6302
      vertex 11.7096 55.2934 27.375
    endloop
  endfacet
  facet normal 0.965926 0.258819 -0
    outer loop
      vertex 11.7096 55.2934 25.625
      vertex 11.7096 55.2934 27.375
      vertex 11.824 54.8664 27.6302
    endloop
  endfacet
  facet normal -0.965926 -0.25882 -0
    outer loop
      vertex 11.7096 55.2934 27.375
      vertex 11.7096 55.2934 25.625
      vertex 11.9444 54.4172 25.1013
    endloop
  endfacet
  facet normal -0.965925 -0.258821 -5.26387e-007
    outer loop
      vertex 11.7096 55.2934 25.625
      vertex 11.824 54.8664 27.6302
      vertex 11.7096 55.2934 27.375
    endloop
  endfacet
  facet normal 0.965926 0.258819 5.26388e-007
    outer loop
      vertex 11.7096 55.2934 25.625
      vertex 11.7096 55.2934 27.375
      vertex 11.9444 54.4172 25.1013
    endloop
  endfacet
  facet normal 0.783115 -0.197967 -0.589525
    outer loop
      vertex 17.8466 51.7085 22.9645
      vertex 17.8466 51.7086 22.9645
      vertex 17.4267 53.2754 21.8806
    endloop
  endfacet
  facet normal 0.215201 -0.803139 0.555568
    outer loop
      vertex 13.2975 49.3675 63.4134
      vertex 17.8466 51.7085 65.0355
      vertex 13.0169 50.4145 65.0355
    endloop
  endfacet
  facet normal 0.2152 -0.803139 0.555569
    outer loop
      vertex 17.8466 51.7085 65.0355
      vertex 13.2975 49.3675 63.4134
      vertex 18.1271 50.6616 63.4134
    endloop
  endfacet
  facet normal 0.253846 -0.947366 0.195092
    outer loop
      vertex 13.396 48.9999 61.5
      vertex 18.1271 50.6616 63.4134
      vertex 13.2975 49.3675 63.4134
    endloop
  endfacet
  facet normal 0.253846 -0.947366 0.19509
    outer loop
      vertex 18.1271 50.6616 63.4134
      vertex 13.396 48.9999 61.5
      vertex 18.2256 50.294 61.5
    endloop
  endfacet
  facet normal 0.965926 0.258819 -0
    outer loop
      vertex 16.9315 55.1236 28.25
      vertex 15.6374 59.9532 26.5
      vertex 16.9315 55.1236 59.75
    endloop
  endfacet
  facet normal 0.965926 0.258819 -1.15798e-006
    outer loop
      vertex 15.6374 59.9532 26.5
      vertex 16.9315 55.1236 28.25
      vertex 16.5392 56.5875 27.375
    endloop
  endfacet
  facet normal 0.965926 0.258818 -2.7787e-006
    outer loop
      vertex 18.2256 50.294 61.5
      vertex 16.9315 55.1236 59.75
      vertex 17.3237 53.6597 60.625
    endloop
  endfacet
  facet normal 0.965926 0.258819 0
    outer loop
      vertex 16.9315 55.1236 59.75
      vertex 18.2256 50.294 61.5
      vertex 16.9315 55.1236 28.25
    endloop
  endfacet
  facet normal 0.965926 0.258819 -3.50444e-007
    outer loop
      vertex 16.5392 56.5875 62.375
      vertex 15.6374 59.9532 61.5
      vertex 15.7359 59.5856 63.4134
    endloop
  endfacet
  facet normal 0.965926 0.258819 1.15798e-006
    outer loop
      vertex 16.9315 55.1236 59.75
      vertex 15.6374 59.9532 61.5
      vertex 16.5392 56.5875 60.625
    endloop
  endfacet
  facet normal 0.965926 0.258819 1.27996e-007
    outer loop
      vertex 16.5392 56.5875 62.375
      vertex 15.7359 59.5856 63.4134
      vertex 16.0164 58.5387 65.0355
    endloop
  endfacet
  facet normal 0.965926 0.258819 0
    outer loop
      vertex 15.6374 59.9532 61.5
      vertex 16.9315 55.1236 59.75
      vertex 15.6374 59.9532 26.5
    endloop
  endfacet
  facet normal 0.965926 0.258819 -9.0082e-008
    outer loop
      vertex 16.5392 56.5875 62.375
      vertex 16.0164 58.5387 65.0355
      vertex 16.4363 56.9718 66.1194
    endloop
  endfacet
  facet normal 0.965926 0.258819 -0
    outer loop
      vertex 16.5392 56.5875 25.625
      vertex 15.6374 59.9532 26.5
      vertex 16.5392 56.5875 27.375
    endloop
  endfacet
  facet normal 0.965926 0.258819 0
    outer loop
      vertex 15.6374 59.9532 61.5
      vertex 16.5392 56.5875 62.375
      vertex 16.5392 56.5875 60.625
    endloop
  endfacet
  facet normal 0.965926 0.258819 -0
    outer loop
      vertex 16.9315 55.1236 63.25
      vertex 16.4363 56.9718 66.1194
      vertex 16.9315 55.1236 66.5
    endloop
  endfacet
  facet normal 0.965926 0.258819 -1.18776e-007
    outer loop
      vertex 16.4363 56.9718 66.1194
      vertex 16.9315 55.1236 63.25
      vertex 16.5392 56.5875 62.375
    endloop
  endfacet
  facet normal 0.965926 0.258819 0
    outer loop
      vertex 17.4267 53.2754 66.1194
      vertex 16.9315 55.1236 63.25
      vertex 16.9315 55.1236 66.5
    endloop
  endfacet
  facet normal 0.965926 0.258819 0
    outer loop
      vertex 18.2256 50.294 61.5
      vertex 17.3237 53.6597 60.625
      vertex 17.3237 53.6597 62.375
    endloop
  endfacet
  facet normal 0.965926 0.258819 -0
    outer loop
      vertex 18.2256 50.294 26.5
      vertex 16.9315 55.1236 28.25
      vertex 18.2256 50.294 61.5
    endloop
  endfacet
  facet normal 0.965926 0.25882 3.55593e-007
    outer loop
      vertex 17.8466 51.7085 65.0355
      vertex 17.3237 53.6597 62.375
      vertex 17.4267 53.2754 66.1194
    endloop
  endfacet
  facet normal 0.965926 0.258819 3.33928e-007
    outer loop
      vertex 16.9315 55.1236 63.25
      vertex 17.4267 53.2754 66.1194
      vertex 17.3237 53.6597 62.375
    endloop
  endfacet
  facet normal 0.965926 0.258819 3.50444e-007
    outer loop
      vertex 15.6374 59.9532 26.5
      vertex 16.5392 56.5875 25.625
      vertex 15.7359 59.5856 24.5866
    endloop
  endfacet
  facet normal 0.965926 0.258819 -1.27997e-007
    outer loop
      vertex 15.7359 59.5856 24.5866
      vertex 16.5392 56.5875 25.625
      vertex 16.0164 58.5387 22.9645
    endloop
  endfacet
  facet normal 0.965926 0.258819 9.00821e-008
    outer loop
      vertex 16.0164 58.5387 22.9645
      vertex 16.5392 56.5875 25.625
      vertex 16.4363 56.9718 21.8806
    endloop
  endfacet
  facet normal 0.965926 0.258819 1.18776e-007
    outer loop
      vertex 16.9315 55.1236 24.75
      vertex 16.4363 56.9718 21.8806
      vertex 16.5392 56.5875 25.625
    endloop
  endfacet
  facet normal 0.965926 0.258819 0
    outer loop
      vertex 16.9315 55.1236 24.75
      vertex 16.9315 55.1236 21.5
      vertex 16.4363 56.9718 21.8806
    endloop
  endfacet
  facet normal 0.965926 0.258819 -3.33928e-007
    outer loop
      vertex 17.4267 53.2754 21.8806
      vertex 16.9315 55.1236 24.75
      vertex 17.3237 53.6597 25.625
    endloop
  endfacet
  facet normal 0.965926 0.258819 0
    outer loop
      vertex 16.9315 55.1236 24.75
      vertex 17.4267 53.2754 21.8806
      vertex 16.9315 55.1236 21.5
    endloop
  endfacet
  facet normal 0.965926 0.258818 2.7787e-006
    outer loop
      vertex 16.9315 55.1236 28.25
      vertex 18.2256 50.294 26.5
      vertex 17.3237 53.6597 27.375
    endloop
  endfacet
  facet normal 0.965926 0.258819 -4.30054e-007
    outer loop
      vertex 18.1271 50.6616 63.4134
      vertex 17.3237 53.6597 62.375
      vertex 17.8466 51.7085 65.0355
    endloop
  endfacet
  facet normal 0.965926 0.258819 0
    outer loop
      vertex 17.3237 53.6597 27.375
      vertex 18.2256 50.294 26.5
      vertex 17.3237 53.6597 25.625
    endloop
  endfacet
  facet normal 0.965926 0.258819 -4.55968e-008
    outer loop
      vertex 17.3237 53.6597 62.375
      vertex 18.1271 50.6616 63.4134
      vertex 18.2256 50.294 61.5
    endloop
  endfacet
  facet normal 0.965926 0.258819 4.55969e-008
    outer loop
      vertex 18.1271 50.6616 24.5866
      vertex 17.3237 53.6597 25.625
      vertex 18.2256 50.294 26.5
    endloop
  endfacet
  facet normal 0.965926 0.25882 -3.55593e-007
    outer loop
      vertex 17.3237 53.6597 25.625
      vertex 17.8466 51.7085 22.9645
      vertex 17.4267 53.2754 21.8806
    endloop
  endfacet
  facet normal 0.965926 0.258819 4.30054e-007
    outer loop
      vertex 17.3237 53.6597 25.625
      vertex 18.1271 50.6616 24.5866
      vertex 17.8466 51.7085 22.9645
    endloop
  endfacet
  facet normal 0.12941 -0.482963 0.866025
    outer loop
      vertex 16.5392 56.5875 60.625
      vertex 12.1019 53.8295 59.75
      vertex 16.9315 55.1236 59.75
    endloop
  endfacet
  facet normal 0.12941 -0.482963 0.866025
    outer loop
      vertex 12.1019 53.8295 59.75
      vertex 16.5392 56.5875 60.625
      vertex 11.7096 55.2934 60.625
    endloop
  endfacet
  facet normal 0.12941 -0.482963 -0.866025
    outer loop
      vertex 12.1019 53.8295 63.25
      vertex 16.5392 56.5875 62.375
      vertex 16.9315 55.1236 63.25
    endloop
  endfacet
  facet normal 0.12941 -0.482963 -0.866025
    outer loop
      vertex 16.5392 56.5875 62.375
      vertex 12.1019 53.8295 63.25
      vertex 11.7096 55.2934 62.375
    endloop
  endfacet
  facet normal 0.258819 -0.965926 0
    outer loop
      vertex 11.7096 55.2934 60.625
      vertex 16.5392 56.5875 62.375
      vertex 11.7096 55.2934 62.375
    endloop
  endfacet
  facet normal 0.258819 -0.965926 0
    outer loop
      vertex 16.5392 56.5875 62.375
      vertex 11.7096 55.2934 60.625
      vertex 16.5392 56.5875 60.625
    endloop
  endfacet
  facet normal -0.12941 0.482963 0.866025
    outer loop
      vertex 16.9315 55.1236 59.75
      vertex 12.4941 52.3656 60.625
      vertex 17.3237 53.6597 60.625
    endloop
  endfacet
  facet normal -0.129409 0.482963 0.866026
    outer loop
      vertex 12.4941 52.3656 60.625
      vertex 16.9315 55.1236 59.75
      vertex 12.1019 53.8295 59.75
    endloop
  endfacet
  facet normal -0.25882 0.965926 0
    outer loop
      vertex 17.3237 53.6597 60.625
      vertex 12.4941 52.3656 62.375
      vertex 17.3237 53.6597 62.375
    endloop
  endfacet
  facet normal -0.25882 0.965926 0
    outer loop
      vertex 12.4941 52.3656 62.375
      vertex 17.3237 53.6597 60.625
      vertex 12.4941 52.3656 60.625
    endloop
  endfacet
  facet normal -0.12941 0.482963 -0.866025
    outer loop
      vertex 12.4941 52.3656 62.375
      vertex 16.9315 55.1236 63.25
      vertex 17.3237 53.6597 62.375
    endloop
  endfacet
  facet normal -0.129409 0.482963 -0.866026
    outer loop
      vertex 16.9315 55.1236 63.25
      vertex 12.4941 52.3656 62.375
      vertex 12.1019 53.8295 63.25
    endloop
  endfacet
  facet normal -0.777418 -0.462866 0.425882
    outer loop
      vertex 16.5392 56.5875 25.625
      vertex 16.8587 55.3954 24.9124
      vertex 16.9315 55.1236 24.75
    endloop
  endfacet
  facet normal 0.12941 -0.482964 0.866025
    outer loop
      vertex 16.5392 56.5875 25.625
      vertex 11.9444 54.4172 25.1013
      vertex 16.8587 55.3954 24.9124
    endloop
  endfacet
  facet normal 0.129409 -0.482963 0.866025
    outer loop
      vertex 11.9444 54.4172 25.1013
      vertex 16.5392 56.5875 25.625
      vertex 11.7096 55.2934 25.625
    endloop
  endfacet
  facet normal 0.959046 0.0981662 -0.265694
    outer loop
      vertex 16.9017 55.2348 28.1835
      vertex 16.5392 56.5875 27.375
      vertex 16.9315 55.1236 28.25
    endloop
  endfacet
  facet normal 0.12941 -0.482963 -0.866025
    outer loop
      vertex 12.0374 54.07 28.1063
      vertex 16.5392 56.5875 27.375
      vertex 16.9017 55.2348 28.1835
    endloop
  endfacet
  facet normal 0.129409 -0.482963 -0.866025
    outer loop
      vertex 16.5392 56.5875 27.375
      vertex 12.0374 54.07 28.1063
      vertex 11.7096 55.2934 27.375
    endloop
  endfacet
  facet normal 0.258819 -0.965926 0
    outer loop
      vertex 11.7096 55.2934 25.625
      vertex 16.5392 56.5875 27.375
      vertex 11.7096 55.2934 27.375
    endloop
  endfacet
  facet normal 0.258819 -0.965926 0
    outer loop
      vertex 16.5392 56.5875 27.375
      vertex 11.7096 55.2934 25.625
      vertex 16.5392 56.5875 25.625
    endloop
  endfacet
  facet normal -0.12941 0.482963 -0.866025
    outer loop
      vertex 12.4941 52.3656 27.375
      vertex 16.9315 55.1236 28.25
      vertex 17.3237 53.6597 27.375
    endloop
  endfacet
  facet normal -0.129409 0.482963 -0.866026
    outer loop
      vertex 16.9315 55.1236 28.25
      vertex 12.4941 52.3656 27.375
      vertex 12.1019 53.8295 28.25
    endloop
  endfacet
  facet normal -0.12941 0.482963 0.866025
    outer loop
      vertex 16.9315 55.1236 24.75
      vertex 12.4941 52.3656 25.625
      vertex 17.3237 53.6597 25.625
    endloop
  endfacet
  facet normal -0.129409 0.482963 0.866026
    outer loop
      vertex 12.4941 52.3656 25.625
      vertex 16.9315 55.1236 24.75
      vertex 12.1019 53.8295 24.75
    endloop
  endfacet
  facet normal -0.25882 0.965926 0
    outer loop
      vertex 17.3237 53.6597 25.625
      vertex 12.4941 52.3656 27.375
      vertex 17.3237 53.6597 27.375
    endloop
  endfacet
  facet normal -0.25882 0.965926 0
    outer loop
      vertex 12.4941 52.3656 27.375
      vertex 17.3237 53.6597 25.625
      vertex 12.4941 52.3656 25.625
    endloop
  endfacet
  facet normal -0.970942 -0.239316 0
    outer loop
      vertex 15.8187 5.70688 19
      vertex 15.5 7 22.99
      vertex 15.5 7 19
    endloop
  endfacet
  facet normal -0.970942 -0.239316 0
    outer loop
      vertex 15.5 7 22.99
      vertex 15.8187 5.70688 19
      vertex 15.8187 5.70688 22.99
    endloop
  endfacet
  facet normal 0 0 1
    outer loop
      vertex 15.9582 5.14111 19
      vertex 15.8187 5.70688 19
      vertex 15.5 7 19
    endloop
  endfacet
  facet normal -0.997863 -0.0653365 0
    outer loop
      vertex 15.5 7 19
      vertex 15.3696 8.99202 22.99
      vertex 15.3696 8.99202 19
    endloop
  endfacet
  facet normal -0.997863 -0.0653365 0
    outer loop
      vertex 15.3696 8.99202 22.99
      vertex 15.5 7 19
      vertex 15.5 7 22.99
    endloop
  endfacet
  facet normal -0.997863 -0.0653363 0
    outer loop
      vertex 15.2512 10.8 19
      vertex 12.75 49 28
      vertex 12.75 49 19
    endloop
  endfacet
  facet normal -0.997863 -0.0653363 0
    outer loop
      vertex 12.75 49 28
      vertex 15.2512 10.8 19
      vertex 15.2512 10.8 28
    endloop
  endfacet
  facet normal 0 0 1
    outer loop
      vertex 12.75 49 28
      vertex 15.2512 10.8 28
      vertex 15.5 7 28
    endloop
  endfacet
  facet normal -0.382682 0.92388 0
    outer loop
      vertex 15.25 51.5 19
      vertex 13.4822 50.7678 19.2385
      vertex 15.25 51.5 19.2882
    endloop
  endfacet
  facet normal -0.382682 0.92388 0
    outer loop
      vertex 13.4822 50.7678 19.2385
      vertex 15.25 51.5 19
      vertex 13.4822 50.7678 19
    endloop
  endfacet
  facet normal -0 0 1
    outer loop
      vertex 30.9184 7 28
      vertex 33.3838 6.04274 28
      vertex 33.3838 7.95726 28
    endloop
  endfacet
  facet normal 0 0 1
    outer loop
      vertex 33.3838 6.04274 28
      vertex 30.9184 7 28
      vertex 32.494 4.34751 28
    endloop
  endfacet
  facet normal 0 0 1
    outer loop
      vertex 30.9184 3.5 28
      vertex 32.494 4.34751 28
      vertex 30.9184 7 28
    endloop
  endfacet
  facet normal 0 0 1
    outer loop
      vertex 18.1892 47.847 28
      vertex 30.9184 7 28
      vertex 33.3838 7.95726 28
    endloop
  endfacet
  facet normal 0 0 1
    outer loop
      vertex 18.1892 47.847 28
      vertex 15.5 7 28
      vertex 30.9184 7 28
    endloop
  endfacet
  facet normal -0 0 1
    outer loop
      vertex 13.5703 46.6093 28
      vertex 15.5 7 28
      vertex 18.1892 47.847 28
    endloop
  endfacet
  facet normal 0 0 1
    outer loop
      vertex 12.75 49 28
      vertex 13.5703 46.6093 28
      vertex 13.4907 46.9064 28
    endloop
  endfacet
  facet normal 0 0 1
    outer loop
      vertex 12.75 49 28
      vertex 13.4907 46.9064 28
      vertex 13.4375 47.105 28
    endloop
  endfacet
  facet normal -0 0 1
    outer loop
      vertex 12.75 49 28
      vertex 13.4375 47.105 28
      vertex 12.8591 49.2635 28
    endloop
  endfacet
  facet normal 0 0 1
    outer loop
      vertex 13.5703 46.6093 28
      vertex 12.75 49 28
      vertex 15.5 7 28
    endloop
  endfacet
  facet normal 0 0 1
    outer loop
      vertex 32.494 4.34751 28
      vertex 30.9184 3.5 28
      vertex 31.2662 3.5 28
    endloop
  endfacet
  facet normal 0 0 -1
    outer loop
      vertex 32.494 9.65249 19
      vertex 17.75 49 19
      vertex 33.3838 7.95726 19
    endloop
  endfacet
  facet normal 0 0 -1
    outer loop
      vertex 30.9184 10.7401 19
      vertex 17.75 49 19
      vertex 32.494 9.65249 19
    endloop
  endfacet
  facet normal 0 0 -1
    outer loop
      vertex 30.4248 10.8 19
      vertex 17.75 49 19
      vertex 30.9184 10.7401 19
    endloop
  endfacet
  facet normal 0 0 -1
    outer loop
      vertex 15.2512 10.8 19
      vertex 17.75 49 19
      vertex 30.4248 10.8 19
    endloop
  endfacet
  facet normal 0 0 -1
    outer loop
      vertex 12.75 49 19
      vertex 17.75 49 19
      vertex 15.2512 10.8 19
    endloop
  endfacet
  facet normal 0 -0 -1
    outer loop
      vertex 12.9038 49.3713 19
      vertex 17.75 49 19
      vertex 12.75 49 19
    endloop
  endfacet
  facet normal 0 0 -1
    outer loop
      vertex 17.75 49 19
      vertex 12.9038 49.3713 19
      vertex 17.1274 50.5031 19
    endloop
  endfacet
  facet normal 0 -0 -1
    outer loop
      vertex 15.25 51.5 19
      vertex 17.1274 50.5031 19
      vertex 12.9038 49.3713 19
    endloop
  endfacet
  facet normal 0 0 -1
    outer loop
      vertex 15.25 51.5 19
      vertex 12.9038 49.3713 19
      vertex 13.4822 50.7678 19
    endloop
  endfacet
  facet normal 0 0 -1
    outer loop
      vertex 17.1274 50.5031 19
      vertex 15.25 51.5 19
      vertex 17.0178 50.7678 19
    endloop
  endfacet
  facet normal 0 0 -1
    outer loop
      vertex 32.494 4.34751 19
      vertex 33.3838 7 19
      vertex 33.3838 6.04274 19
    endloop
  endfacet
  facet normal 0 0 -1
    outer loop
      vertex 31.2662 3.5 19
      vertex 33.3838 7 19
      vertex 32.494 4.34751 19
    endloop
  endfacet
  facet normal 0 0 -1
    outer loop
      vertex 16.0704 7 19
      vertex 31.2662 3.5 19
      vertex 17.7764 3.5 19
    endloop
  endfacet
  facet normal 0 0 -1
    outer loop
      vertex 16.0704 7 19
      vertex 17.7764 3.5 19
      vertex 17.2277 3.70806 19
    endloop
  endfacet
  facet normal 0 0 -1
    outer loop
      vertex 31.2662 3.5 19
      vertex 16.0704 7 19
      vertex 33.3838 7 19
    endloop
  endfacet
  facet normal 0 0 -1
    outer loop
      vertex 15.9582 5.14111 19
      vertex 16.0704 7 19
      vertex 17.2277 3.70806 19
    endloop
  endfacet
  facet normal 0 0 -1
    outer loop
      vertex 15.5 7 19
      vertex 16.0704 7 19
      vertex 15.9582 5.14111 19
    endloop
  endfacet
  facet normal 0 0 -1
    outer loop
      vertex 16.0704 7 19
      vertex 15.5 7 19
      vertex 16.0704 7.90154 19
    endloop
  endfacet
  facet normal -0 0 -1
    outer loop
      vertex 16.0704 7.90154 19
      vertex 15.5 7 19
      vertex 15.3696 8.99202 19
    endloop
  endfacet
  facet normal 0.568065 -0.822984 0
    outer loop
      vertex 31.2662 3.5 19
      vertex 32.494 4.34751 28
      vertex 31.2662 3.5 28
    endloop
  endfacet
  facet normal 0.568065 -0.822984 0
    outer loop
      vertex 32.494 4.34751 28
      vertex 31.2662 3.5 19
      vertex 32.494 4.34751 19
    endloop
  endfacet
  facet normal 0.885456 -0.464723 0
    outer loop
      vertex 32.494 4.34751 28
      vertex 33.3838 6.04274 19
      vertex 33.3838 6.04274 28
    endloop
  endfacet
  facet normal 0.885456 -0.464723 0
    outer loop
      vertex 33.3838 6.04274 19
      vertex 32.494 4.34751 28
      vertex 32.494 4.34751 19
    endloop
  endfacet
  facet normal 0.382683 0.92388 0
    outer loop
      vertex 15.25 51.5 19
      vertex 17.0178 50.7678 19.0565
      vertex 17.0178 50.7678 19
    endloop
  endfacet
  facet normal 0.382683 0.92388 0
    outer loop
      vertex 17.0178 50.7678 19.0565
      vertex 15.25 51.5 19
      vertex 15.25 51.5 19.2882
    endloop
  endfacet
  facet normal 0.934499 0.355965 5.7234e-006
    outer loop
      vertex 18.9509 45.8474 24.1558
      vertex 33.3838 7.95726 28
      vertex 18.9564 45.833 24.0087
    endloop
  endfacet
  facet normal 0.9345 0.355964 1.26547e-007
    outer loop
      vertex 18.8258 46.1758 25.9134
      vertex 33.3838 7.95726 28
      vertex 18.9509 45.8474 24.1558
    endloop
  endfacet
  facet normal 0.9345 0.355964 8.77512e-008
    outer loop
      vertex 18.4379 47.194 27.5355
      vertex 33.3838 7.95726 28
      vertex 18.8258 46.1758 25.9134
    endloop
  endfacet
  facet normal 0.9345 0.355964 -2.42234e-007
    outer loop
      vertex 33.3838 7.95726 28
      vertex 18.4379 47.194 27.5355
      vertex 18.1892 47.847 28
    endloop
  endfacet
  facet normal 0.934499 0.355966 0
    outer loop
      vertex 17.8575 48.7178 19.3806
      vertex 17.75 49 19
      vertex 17.75 49 19.3208
    endloop
  endfacet
  facet normal 0.934501 0.355961 -4.43155e-006
    outer loop
      vertex 18.4379 47.194 20.4645
      vertex 17.75 49 19
      vertex 17.8575 48.7178 19.3806
    endloop
  endfacet
  facet normal 0.9345 0.355964 -0
    outer loop
      vertex 33.3838 7.95726 23.5
      vertex 18.9564 45.833 24.0087
      vertex 33.3838 7.95726 28
    endloop
  endfacet
  facet normal 0.9345 0.355964 -5.16471e-006
    outer loop
      vertex 18.9564 45.833 24.0087
      vertex 33.3838 7.95726 23.5
      vertex 18.9509 45.8474 23.8442
    endloop
  endfacet
  facet normal 0.9345 0.355964 -0
    outer loop
      vertex 33.3838 7.95726 19
      vertex 18.9509 45.8474 23.8442
      vertex 33.3838 7.95726 23.5
    endloop
  endfacet
  facet normal 0.9345 0.355964 -1.25938e-007
    outer loop
      vertex 18.9509 45.8474 23.8442
      vertex 33.3838 7.95726 19
      vertex 18.8258 46.1758 22.0866
    endloop
  endfacet
  facet normal 0.9345 0.355964 -8.63795e-008
    outer loop
      vertex 18.8258 46.1758 22.0866
      vertex 33.3838 7.95726 19
      vertex 18.4379 47.194 20.4645
    endloop
  endfacet
  facet normal 0.9345 0.355964 2.29211e-007
    outer loop
      vertex 18.4379 47.194 20.4645
      vertex 33.3838 7.95726 19
      vertex 17.75 49 19
    endloop
  endfacet
  facet normal 0.923882 0.382678 -0
    outer loop
      vertex 17.0178 50.7678 19
      vertex 17.0178 50.7678 19.0565
      vertex 17.1274 50.5031 19
    endloop
  endfacet
  facet normal 0.923879 0.382684 0
    outer loop
      vertex 17.1274 50.5031 19
      vertex 17.75 49 19.3208
      vertex 17.75 49 19
    endloop
  endfacet
  facet normal -0.92388 0.382683 0
    outer loop
      vertex 12.75 49 19
      vertex 12.8591 49.2635 19.7428
      vertex 12.8591 49.2635 19.0184
    endloop
  endfacet
  facet normal -0.92388 0.382683 0
    outer loop
      vertex 12.8591 49.2635 19.7428
      vertex 12.75 49 19
      vertex 12.8591 49.2635 21.9673
    endloop
  endfacet
  facet normal -0.92388 0.382683 0
    outer loop
      vertex 12.75 49 28
      vertex 12.8591 49.2635 21.9673
      vertex 12.75 49 19
    endloop
  endfacet
  facet normal -0.92388 0.382682 7.68226e-006
    outer loop
      vertex 12.75 49 19
      vertex 12.8591 49.2635 19.0184
      vertex 12.9038 49.3713 19
    endloop
  endfacet
  facet normal -0.92388 0.382683 0
    outer loop
      vertex 12.8591 49.2635 21.9673
      vertex 12.75 49 28
      vertex 12.8591 49.2635 26.0327
    endloop
  endfacet
  facet normal -0.92388 0.382683 0
    outer loop
      vertex 12.8591 49.2635 26.0327
      vertex 12.75 49 28
      vertex 12.8591 49.2635 28
    endloop
  endfacet
  facet normal -0.92388 0.382683 0
    outer loop
      vertex 12.9038 49.3713 19
      vertex 13.4822 50.7678 19.2385
      vertex 13.4822 50.7678 19
    endloop
  endfacet
  facet normal -0.965926 -0.258819 -0
    outer loop
      vertex 12.8591 49.2635 28
      vertex 12.0592 52.2491 27.313
      vertex 12.8591 49.2635 26.0327
    endloop
  endfacet
  facet normal -0.965926 -0.258819 0
    outer loop
      vertex 12.0592 52.2491 27.313
      vertex 12.8591 49.2635 28
      vertex 12.0592 52.2491 27.375
    endloop
  endfacet
  facet normal -0.965926 -0.258819 -2.22709e-006
    outer loop
      vertex 12.0592 52.2491 27.375
      vertex 12.8591 49.2635 28
      vertex 11.97 52.5818 27.5739
    endloop
  endfacet
  facet normal -0.965926 -0.258819 1.89049e-006
    outer loop
      vertex 12.8591 49.2635 28
      vertex 13.3304 47.5047 28.6194
      vertex 11.97 52.5818 27.5739
    endloop
  endfacet
  facet normal -0.965926 -0.258819 2.60769e-007
    outer loop
      vertex 13.3304 47.5047 28.6194
      vertex 12.8591 49.2635 28
      vertex 13.4375 47.105 28
    endloop
  endfacet
  facet normal -0.965927 -0.258816 -0
    outer loop
      vertex 12.8591 49.2635 19.7428
      vertex 12.8352 49.353 19
      vertex 12.8591 49.2635 19.0184
    endloop
  endfacet
  facet normal -0.965926 -0.258819 -4.00995e-007
    outer loop
      vertex 12.8352 49.353 19
      vertex 12.8591 49.2635 19.7428
      vertex 11.9201 52.768 20.4645
    endloop
  endfacet
  facet normal -0.965926 -0.258817 -1.53389e-006
    outer loop
      vertex 13.4907 46.9064 28
      vertex 13.3304 47.5047 28.6194
      vertex 13.4375 47.105 28
    endloop
  endfacet
  facet normal 0.975354 0.205146 -0.0812417
    outer loop
      vertex 17.8466 51.7085 22.9645
      vertex 18.16 48.7988 19.3806
      vertex 17.4267 53.2754 21.8806
    endloop
  endfacet
  facet normal 0.975354 0.205147 -0.081242
    outer loop
      vertex 18.16 48.7988 19.3806
      vertex 17.8466 51.7085 22.9645
      vertex 18.5799 47.232 20.4645
    endloop
  endfacet
  facet normal -0.975353 -0.205148 0.0812441
    outer loop
      vertex 11.7748 53.7419 28.25
      vertex 11.1868 57.2446 30.0355
      vertex 11.7364 53.8896 28.1619
    endloop
  endfacet
  facet normal -0.975354 -0.205147 0.0812418
    outer loop
      vertex 11.7748 53.7419 28.25
      vertex 12.34 51.2012 28.6194
      vertex 11.1868 57.2446 30.0355
    endloop
  endfacet
  facet normal -0.975354 -0.205147 0.0812418
    outer loop
      vertex 12.34 51.2012 28.6194
      vertex 11.7748 53.7419 28.25
      vertex 11.9512 52.652 27.6158
    endloop
  endfacet
  facet normal 0.914664 0.300688 -0.270141
    outer loop
      vertex 17.1696 52.4953 19.3806
      vertex 16.9251 55.1476 21.5049
      vertex 16.9315 55.1236 21.5
    endloop
  endfacet
  facet normal 0.914644 0.300715 -0.270178
    outer loop
      vertex 16.9251 55.1476 21.5049
      vertex 17.1696 52.4953 19.3806
      vertex 16.4363 56.9718 21.8806
    endloop
  endfacet
  facet normal 0.914644 0.300717 -0.270179
    outer loop
      vertex 17.1696 52.4953 19.3806
      vertex 16.9315 55.1236 21.5
      vertex 17.6648 50.647 19
    endloop
  endfacet
  facet normal 0.25381 -0.947375 0.195091
    outer loop
      vertex 18.8604 46.1851 25.9134
      vertex 18.8258 46.1758 25.9134
      vertex 18.9509 45.8474 24.1558
    endloop
  endfacet
  facet normal -0.975354 -0.205147 0.0812416
    outer loop
      vertex 12.34 51.2012 28.6194
      vertex 11.6066 55.6777 31.1194
      vertex 11.1868 57.2446 30.0355
    endloop
  endfacet
  facet normal -0.965926 -0.258819 0
    outer loop
      vertex 12.8591 49.2635 19.7428
      vertex 12.8591 49.2635 21.9673
      vertex 11.9201 52.768 20.4645
    endloop
  endfacet
  facet normal 0.1254 -0.467995 0.874789
    outer loop
      vertex 17.9282 50.2143 29.4099
      vertex 16.4011 49.8051 29.4099
      vertex 18.16 48.7988 28.6194
    endloop
  endfacet
  facet normal 0.963988 0.231256 -0.131327
    outer loop
      vertex 17.4267 53.2754 21.8806
      vertex 17.6648 50.647 19
      vertex 16.9315 55.1236 21.5
    endloop
  endfacet
  facet normal 0.963989 0.231255 -0.131327
    outer loop
      vertex 17.6648 50.647 19
      vertex 17.4267 53.2754 21.8806
      vertex 18.16 48.7988 19.3806
    endloop
  endfacet
  facet normal -0.143793 0.53664 -0.831469
    outer loop
      vertex 11.6066 55.6777 21.8806
      vertex 16.0164 58.5387 22.9645
      vertex 16.4363 56.9718 21.8806
    endloop
  endfacet
  facet normal -0.143792 0.53664 -0.83147
    outer loop
      vertex 16.0164 58.5387 22.9645
      vertex 11.6066 55.6777 21.8806
      vertex 11.1868 57.2446 22.9645
    endloop
  endfacet
  facet normal -0.770441 0.209957 -0.601946
    outer loop
      vertex 11.9201 52.768 20.4645
      vertex 11.6066 55.6777 21.8806
      vertex 12.34 51.2012 19.3806
    endloop
  endfacet
  facet normal -0.965928 -0.258811 1.25757e-005
    outer loop
      vertex 11.9592 52.6222 27.598
      vertex 12.34 51.2012 28.6194
      vertex 11.9512 52.652 27.6158
    endloop
  endfacet
  facet normal -0.965926 -0.258818 1.84973e-006
    outer loop
      vertex 12.34 51.2012 28.6194
      vertex 11.9592 52.6222 27.598
      vertex 12.8352 49.353 29
    endloop
  endfacet
  facet normal -0.981017 -0.18777 0.0484655
    outer loop
      vertex 10.9063 58.2915 28.4134
      vertex 11.4425 55.2219 27.375
      vertex 11.1868 57.2446 30.0355
    endloop
  endfacet
  facet normal -0.981017 -0.18777 0.0484652
    outer loop
      vertex 11.4425 55.2219 27.375
      vertex 10.9063 58.2915 28.4134
      vertex 11.4105 55.2133 26.6943
    endloop
  endfacet
  facet normal -0.981015 -0.187776 0.0484702
    outer loop
      vertex 11.1868 57.2446 30.0355
      vertex 11.4425 55.2219 27.375
      vertex 11.4707 55.0939 27.4506
    endloop
  endfacet
  facet normal -0.989132 -0.103983 -0.103946
    outer loop
      vertex 11.6396 53.8149 22.0866
      vertex 10.9063 58.2915 24.5866
      vertex 11.1868 57.2446 22.9645
    endloop
  endfacet
  facet normal 0.0504917 -0.188441 -0.980786
    outer loop
      vertex 17.75 49 19.3208
      vertex 18.16 48.7988 19.3806
      vertex 17.8575 48.7178 19.3806
    endloop
  endfacet
  facet normal 0.0504908 -0.188443 -0.980785
    outer loop
      vertex 17.75 49 19.3208
      vertex 17.6648 50.647 19
      vertex 18.16 48.7988 19.3806
    endloop
  endfacet
  facet normal 0.0504936 -0.188443 -0.980785
    outer loop
      vertex 17.6648 50.647 19
      vertex 17.75 49 19.3208
      vertex 17.1274 50.5031 19
    endloop
  endfacet
  facet normal 0.0504948 -0.188434 -0.980787
    outer loop
      vertex 12.9038 49.3713 19
      vertex 12.8591 49.2635 19.0184
      vertex 12.8352 49.353 19
    endloop
  endfacet
  facet normal -0.965926 -0.258819 -4.35984e-007
    outer loop
      vertex 11.97 52.5818 27.5739
      vertex 12.8352 49.353 29
      vertex 11.9592 52.6222 27.598
    endloop
  endfacet
  facet normal -0.965926 -0.258819 -1.96887e-007
    outer loop
      vertex 12.8352 49.353 29
      vertex 11.97 52.5818 27.5739
      vertex 13.3304 47.5047 28.6194
    endloop
  endfacet
  facet normal -0.914644 -0.300716 0.270179
    outer loop
      vertex 12.8352 49.353 29
      vertex 12.5971 51.9813 31.1194
      vertex 12.1019 53.8295 31.5
    endloop
  endfacet
  facet normal -0.914644 -0.300716 0.270179
    outer loop
      vertex 12.5971 51.9813 31.1194
      vertex 12.8352 49.353 29
      vertex 13.3304 47.5047 28.6194
    endloop
  endfacet
  facet normal 0.770442 -0.209956 0.601945
    outer loop
      vertex 18.16 48.7988 28.6194
      vertex 18.0845 50.2562 29.2244
      vertex 17.9282 50.2143 29.4099
    endloop
  endfacet
  facet normal 0.770441 -0.209957 0.601946
    outer loop
      vertex 18.0845 50.2562 29.2244
      vertex 18.16 48.7988 28.6194
      vertex 18.5799 47.232 27.5355
    endloop
  endfacet
  facet normal -0.770441 0.209957 -0.601946
    outer loop
      vertex 11.9201 52.768 20.4645
      vertex 11.1868 57.2446 22.9645
      vertex 11.6066 55.6777 21.8806
    endloop
  endfacet
  facet normal -0.965926 -0.258819 -8.71426e-007
    outer loop
      vertex 12.8352 49.353 19
      vertex 11.9201 52.768 20.4645
      vertex 12.34 51.2012 19.3806
    endloop
  endfacet
  facet normal -0.125399 0.467996 -0.874788
    outer loop
      vertex 11.6066 55.6777 21.8806
      vertex 17.1696 52.4953 19.3806
      vertex 12.34 51.2012 19.3806
    endloop
  endfacet
  facet normal -0.125399 0.467996 -0.874789
    outer loop
      vertex 17.1696 52.4953 19.3806
      vertex 11.6066 55.6777 21.8806
      vertex 16.4363 56.9718 21.8806
    endloop
  endfacet
  facet normal -0.965926 -0.258819 0
    outer loop
      vertex 12.8591 49.2635 21.9673
      vertex 11.9201 52.768 25.3148
      vertex 11.9201 52.768 20.4645
    endloop
  endfacet
  facet normal -0.965926 -0.258819 -7.95902e-008
    outer loop
      vertex 11.9201 52.768 25.3148
      vertex 12.8591 49.2635 21.9673
      vertex 12.0592 52.2491 25.625
    endloop
  endfacet
  facet normal -0.965926 -0.258819 -0
    outer loop
      vertex 12.8591 49.2635 26.0327
      vertex 12.0592 52.2491 25.625
      vertex 12.8591 49.2635 21.9673
    endloop
  endfacet
  facet normal -0.965926 -0.258819 0
    outer loop
      vertex 12.0592 52.2491 25.625
      vertex 12.8591 49.2635 26.0327
      vertex 12.0592 52.2491 27.313
    endloop
  endfacet
  facet normal -0.0504927 0.188439 -0.980786
    outer loop
      vertex 17.0178 50.7678 19.0565
      vertex 17.6648 50.647 19
      vertex 17.1274 50.5031 19
    endloop
  endfacet
  facet normal -0.0504919 0.188443 -0.980785
    outer loop
      vertex 17.6648 50.647 19
      vertex 17.0178 50.7678 19.0565
      vertex 17.1696 52.4953 19.3806
    endloop
  endfacet
  facet normal -0.0504937 0.188443 -0.980785
    outer loop
      vertex 15.25 51.5 19.2882
      vertex 17.1696 52.4953 19.3806
      vertex 17.0178 50.7678 19.0565
    endloop
  endfacet
  facet normal -0.0504928 0.188443 -0.980785
    outer loop
      vertex 12.34 51.2012 19.3806
      vertex 15.25 51.5 19.2882
      vertex 13.4822 50.7678 19.2385
    endloop
  endfacet
  facet normal -0.0504968 0.188441 -0.980785
    outer loop
      vertex 12.34 51.2012 19.3806
      vertex 12.9038 49.3713 19
      vertex 12.8352 49.353 19
    endloop
  endfacet
  facet normal -0.0504926 0.188441 -0.980786
    outer loop
      vertex 15.25 51.5 19.2882
      vertex 12.34 51.2012 19.3806
      vertex 17.1696 52.4953 19.3806
    endloop
  endfacet
  facet normal -0.0504929 0.188443 -0.980785
    outer loop
      vertex 12.9038 49.3713 19
      vertex 12.34 51.2012 19.3806
      vertex 13.4822 50.7678 19.2385
    endloop
  endfacet
  facet normal -0.985057 -0.171306 0.0177991
    outer loop
      vertex 10.8078 58.6591 26.5
      vertex 11.4105 55.2133 26.6943
      vertex 10.9063 58.2915 28.4134
    endloop
  endfacet
  facet normal -0.985057 -0.171306 0.0177982
    outer loop
      vertex 10.8078 58.6591 26.5
      vertex 11.3921 55.2083 25.625
      vertex 11.4105 55.2133 26.6943
    endloop
  endfacet
  facet normal -0.985057 -0.171306 0.0178
    outer loop
      vertex 11.5411 54.1826 24
      vertex 11.3921 55.2083 25.625
      vertex 10.8078 58.6591 26.5
    endloop
  endfacet
  facet normal -0.985058 -0.171304 0.0177984
    outer loop
      vertex 11.3921 55.2083 25.625
      vertex 11.5411 54.1826 24
      vertex 11.4562 54.816 25.3967
    endloop
  endfacet
  facet normal -0.985057 -0.171305 0.0177991
    outer loop
      vertex 11.4562 54.816 25.3967
      vertex 11.5411 54.1826 24
      vertex 11.5887 54.0049 24.9245
    endloop
  endfacet
  facet normal -0.965925 -0.258821 -0
    outer loop
      vertex 11.6396 53.8149 24.811
      vertex 11.5411 54.1826 24
      vertex 11.6396 53.8149 22.0866
    endloop
  endfacet
  facet normal -0.965925 -0.258823 -1.04442e-006
    outer loop
      vertex 11.5411 54.1826 24
      vertex 11.6396 53.8149 24.811
      vertex 11.5887 54.0049 24.9245
    endloop
  endfacet
  facet normal -0.253846 0.947366 -0.195091
    outer loop
      vertex 10.9063 58.2915 24.5866
      vertex 15.6893 59.7595 25.4918
      vertex 15.7359 59.5856 24.5866
    endloop
  endfacet
  facet normal -0.253846 0.947366 -0.195091
    outer loop
      vertex 15.6893 59.7595 25.4918
      vertex 10.9063 58.2915 24.5866
      vertex 10.8364 58.5522 25.9436
    endloop
  endfacet
  facet normal -0.979676 -0.20023 -0.0119648
    outer loop
      vertex 10.8364 58.5522 25.9436
      vertex 10.9063 58.2915 24.5866
      vertex 10.8078 58.6591 26.5
    endloop
  endfacet
  facet normal -0.2152 0.803138 -0.55557
    outer loop
      vertex 11.1868 57.2446 22.9645
      vertex 15.7359 59.5856 24.5866
      vertex 16.0164 58.5387 22.9645
    endloop
  endfacet
  facet normal -0.2152 0.803138 -0.55557
    outer loop
      vertex 15.7359 59.5856 24.5866
      vertex 11.1868 57.2446 22.9645
      vertex 10.9063 58.2915 24.5866
    endloop
  endfacet
  facet normal 0.143788 -0.536641 -0.83147
    outer loop
      vertex 18.4379 47.194 20.4645
      vertex 18.16 48.7988 19.3806
      vertex 18.5799 47.232 20.4645
    endloop
  endfacet
  facet normal 0.14379 -0.53664 -0.83147
    outer loop
      vertex 18.16 48.7988 19.3806
      vertex 18.4379 47.194 20.4645
      vertex 17.8575 48.7178 19.3806
    endloop
  endfacet
  facet normal -0.963989 -0.231256 0.131327
    outer loop
      vertex 12.8352 49.353 29
      vertex 12.1019 53.8295 31.5
      vertex 12.34 51.2012 28.6194
    endloop
  endfacet
  facet normal -0.963989 -0.231256 0.131327
    outer loop
      vertex 12.34 51.2012 28.6194
      vertex 12.1019 53.8295 31.5
      vertex 11.6066 55.6777 31.1194
    endloop
  endfacet
  facet normal 0.989132 0.103984 0.103944
    outer loop
      vertex 18.1889 50.2842 28.2026
      vertex 18.1118 50.2635 28.9571
      vertex 18.8604 46.1851 25.9134
    endloop
  endfacet
  facet normal 0.989132 0.10398 0.103951
    outer loop
      vertex 18.5799 47.232 27.5355
      vertex 18.1118 50.2635 28.9571
      vertex 18.0845 50.2562 29.2244
    endloop
  endfacet
  facet normal 0.989132 0.103983 0.103945
    outer loop
      vertex 18.1118 50.2635 28.9571
      vertex 18.5799 47.232 27.5355
      vertex 18.8604 46.1851 25.9134
    endloop
  endfacet
  facet normal -0.965926 -0.258819 6.88704e-007
    outer loop
      vertex 13.5703 46.6093 28
      vertex 13.3304 47.5047 28.6194
      vertex 13.4907 46.9064 28
    endloop
  endfacet
  facet normal 0.215194 -0.80314 0.55557
    outer loop
      vertex 18.8258 46.1758 25.9134
      vertex 18.5799 47.232 27.5355
      vertex 18.4379 47.194 27.5355
    endloop
  endfacet
  facet normal 0.21517 -0.803146 0.55557
    outer loop
      vertex 18.5799 47.232 27.5355
      vertex 18.8258 46.1758 25.9134
      vertex 18.8604 46.1851 25.9134
    endloop
  endfacet
  facet normal 0.125399 -0.467997 0.874788
    outer loop
      vertex 13.3304 47.5047 28.6194
      vertex 16.4011 49.8051 29.4099
      vertex 13.396 48.9999 29.4099
    endloop
  endfacet
  facet normal 0.125399 -0.467996 0.874788
    outer loop
      vertex 16.4011 49.8051 29.4099
      vertex 13.3304 47.5047 28.6194
      vertex 18.16 48.7988 28.6194
    endloop
  endfacet
  facet normal 0.125393 -0.467997 0.874789
    outer loop
      vertex 13.396 48.9999 29.4099
      vertex 12.5971 51.9813 31.1194
      vertex 13.3304 47.5047 28.6194
    endloop
  endfacet
  facet normal 0.143788 -0.536641 0.83147
    outer loop
      vertex 18.5799 47.232 27.5355
      vertex 18.1892 47.847 28
      vertex 18.4379 47.194 27.5355
    endloop
  endfacet
  facet normal 0.143788 -0.536641 0.83147
    outer loop
      vertex 18.16 48.7988 28.6194
      vertex 18.1892 47.847 28
      vertex 18.5799 47.232 27.5355
    endloop
  endfacet
  facet normal 0.143792 -0.53664 0.831469
    outer loop
      vertex 13.3304 47.5047 28.6194
      vertex 18.1892 47.847 28
      vertex 18.16 48.7988 28.6194
    endloop
  endfacet
  facet normal 0.143792 -0.536638 0.83147
    outer loop
      vertex 18.1892 47.847 28
      vertex 13.3304 47.5047 28.6194
      vertex 13.5703 46.6093 28
    endloop
  endfacet
  facet normal 0.25381 -0.947375 -0.195091
    outer loop
      vertex 18.8604 46.1851 22.0866
      vertex 18.9509 45.8474 23.8442
      vertex 18.8258 46.1758 22.0866
    endloop
  endfacet
  facet normal -0.965926 -0.258817 0
    outer loop
      vertex 11.6396 53.8149 22.0866
      vertex 11.6669 53.713 24.75
      vertex 11.6396 53.8149 24.811
    endloop
  endfacet
  facet normal -0.965926 -0.258819 -0
    outer loop
      vertex 11.9201 52.768 25.3148
      vertex 11.6396 53.8149 22.0866
      vertex 11.9201 52.768 20.4645
    endloop
  endfacet
  facet normal -0.965926 -0.258819 -9.07861e-008
    outer loop
      vertex 11.6396 53.8149 22.0866
      vertex 11.9201 52.768 25.3148
      vertex 11.6669 53.713 24.75
    endloop
  endfacet
  facet normal -0.989132 -0.103983 -0.103946
    outer loop
      vertex 11.6396 53.8149 22.0866
      vertex 11.1868 57.2446 22.9645
      vertex 11.9201 52.768 20.4645
    endloop
  endfacet
  facet normal -0.988505 -0.149557 -0.0221552
    outer loop
      vertex 10.9063 58.2915 24.5866
      vertex 11.5411 54.1826 24
      vertex 10.8078 58.6591 26.5
    endloop
  endfacet
  facet normal -0.988505 -0.149557 -0.0221555
    outer loop
      vertex 11.5411 54.1826 24
      vertex 10.9063 58.2915 24.5866
      vertex 11.6396 53.8149 22.0866
    endloop
  endfacet
  facet normal -0.631039 -0.548539 -0.548539
    outer loop
      vertex 17.8466 51.7086 22.9645
      vertex 17.8466 51.7085 22.9645
      vertex 17.4267 53.2754 21.8806
    endloop
  endfacet
  facet normal 0.988505 0.149557 0.0221557
    outer loop
      vertex 18.8604 46.1851 25.9134
      vertex 18.2256 50.294 26.5
      vertex 18.1889 50.2842 28.2026
    endloop
  endfacet
  facet normal 0.988505 0.149557 0.0221561
    outer loop
      vertex 18.9509 45.8474 24.1558
      vertex 18.2256 50.294 26.5
      vertex 18.8604 46.1851 25.9134
    endloop
  endfacet
  facet normal 0.988505 0.149556 0.0221585
    outer loop
      vertex 18.2256 50.294 26.5
      vertex 18.9509 45.8474 24.1558
      vertex 18.9564 45.833 24.0087
    endloop
  endfacet
  facet normal 0.215194 -0.80314 -0.55557
    outer loop
      vertex 18.5799 47.232 20.4645
      vertex 18.8258 46.1758 22.0866
      vertex 18.4379 47.194 20.4645
    endloop
  endfacet
  facet normal 0.21517 -0.803146 -0.55557
    outer loop
      vertex 18.8258 46.1758 22.0866
      vertex 18.5799 47.232 20.4645
      vertex 18.8604 46.1851 22.0866
    endloop
  endfacet
  facet normal 0.981017 0.18777 -0.048465
    outer loop
      vertex 18.5799 47.232 20.4645
      vertex 17.8466 51.7085 22.9645
      vertex 18.8604 46.1851 22.0866
    endloop
  endfacet
  facet normal -0.981017 -0.18777 0.0484652
    outer loop
      vertex 11.5298 54.8261 27.6087
      vertex 11.1868 57.2446 30.0355
      vertex 11.4707 55.0939 27.4506
    endloop
  endfacet
  facet normal -0.981017 -0.187769 0.0484647
    outer loop
      vertex 11.1868 57.2446 30.0355
      vertex 11.5298 54.8261 27.6087
      vertex 11.7364 53.8896 28.1619
    endloop
  endfacet
  facet normal 0.985057 0.171306 -0.0177994
    outer loop
      vertex 18.9564 45.833 24.0087
      vertex 18.1271 50.6616 24.5866
      vertex 18.2256 50.294 26.5
    endloop
  endfacet
  facet normal 0.985057 0.171306 -0.0177999
    outer loop
      vertex 18.1271 50.6616 24.5866
      vertex 18.9509 45.8474 23.8442
      vertex 18.8604 46.1851 22.0866
    endloop
  endfacet
  facet normal 0.985057 0.171306 -0.0178022
    outer loop
      vertex 18.1271 50.6616 24.5866
      vertex 18.9564 45.833 24.0087
      vertex 18.9509 45.8474 23.8442
    endloop
  endfacet
  facet normal 0.981017 0.18777 -0.0484656
    outer loop
      vertex 17.8466 51.7085 22.9645
      vertex 18.1271 50.6616 24.5866
      vertex 18.8604 46.1851 22.0866
    endloop
  endfacet
  facet normal 0.129414 -0.482963 0.866025
    outer loop
      vertex 11.7096 55.2934 25.625
      vertex 11.4562 54.816 25.3967
      vertex 11.824 54.8664 25.3698
    endloop
  endfacet
  facet normal 0.129405 -0.48296 0.866028
    outer loop
      vertex 11.4562 54.816 25.3967
      vertex 11.7096 55.2934 25.625
      vertex 11.3921 55.2083 25.625
    endloop
  endfacet
  facet normal 0.129409 -0.482962 0.866026
    outer loop
      vertex 16.8587 55.3954 24.9124
      vertex 12.1019 53.8295 24.75
      vertex 16.9315 55.1236 24.75
    endloop
  endfacet
  facet normal 0.12941 -0.482964 0.866025
    outer loop
      vertex 11.9444 54.4172 25.1013
      vertex 12.1019 53.8295 24.75
      vertex 16.8587 55.3954 24.9124
    endloop
  endfacet
  facet normal 0.129414 -0.482961 0.866026
    outer loop
      vertex 11.4562 54.816 25.3967
      vertex 11.9444 54.4172 25.1013
      vertex 11.824 54.8664 25.3698
    endloop
  endfacet
  facet normal 0.129411 -0.482963 0.866025
    outer loop
      vertex 11.9444 54.4172 25.1013
      vertex 11.5887 54.0049 24.9245
      vertex 12.1019 53.8295 24.75
    endloop
  endfacet
  facet normal 0.129409 -0.482959 0.866028
    outer loop
      vertex 12.1019 53.8295 24.75
      vertex 11.6396 53.8149 24.811
      vertex 11.6669 53.713 24.75
    endloop
  endfacet
  facet normal 0.129408 -0.482969 0.866022
    outer loop
      vertex 12.1019 53.8295 24.75
      vertex 11.5887 54.0049 24.9245
      vertex 11.6396 53.8149 24.811
    endloop
  endfacet
  facet normal 0.129411 -0.482963 0.866025
    outer loop
      vertex 11.9444 54.4172 25.1013
      vertex 11.4562 54.816 25.3967
      vertex 11.5887 54.0049 24.9245
    endloop
  endfacet
  facet normal -0.12941 0.482964 -0.866025
    outer loop
      vertex 11.97 52.5818 27.5739
      vertex 12.4941 52.3656 27.375
      vertex 12.0592 52.2491 27.375
    endloop
  endfacet
  facet normal -0.12942 0.482948 -0.866032
    outer loop
      vertex 11.9592 52.6222 27.598
      vertex 12.4941 52.3656 27.375
      vertex 11.97 52.5818 27.5739
    endloop
  endfacet
  facet normal -0.129443 0.482913 -0.866048
    outer loop
      vertex 11.9512 52.652 27.6158
      vertex 12.4941 52.3656 27.375
      vertex 11.9592 52.6222 27.598
    endloop
  endfacet
  facet normal -0.129407 0.482963 -0.866026
    outer loop
      vertex 12.4941 52.3656 27.375
      vertex 11.9512 52.652 27.6158
      vertex 12.1019 53.8295 28.25
    endloop
  endfacet
  facet normal -0.129413 0.482963 -0.866025
    outer loop
      vertex 12.1019 53.8295 28.25
      vertex 11.9512 52.652 27.6158
      vertex 11.7748 53.7419 28.25
    endloop
  endfacet
  facet normal 0.258818 -0.965926 1.37434e-006
    outer loop
      vertex 11.4105 55.2133 26.6943
      vertex 11.7096 55.2934 27.375
      vertex 11.4425 55.2219 27.375
    endloop
  endfacet
  facet normal 0.258813 -0.965927 -2.43817e-006
    outer loop
      vertex 11.7096 55.2934 25.625
      vertex 11.4105 55.2133 26.6943
      vertex 11.3921 55.2083 25.625
    endloop
  endfacet
  facet normal 0.258821 -0.965925 0
    outer loop
      vertex 11.4105 55.2133 26.6943
      vertex 11.7096 55.2934 25.625
      vertex 11.7096 55.2934 27.375
    endloop
  endfacet
  facet normal -0.129408 0.482963 0.866026
    outer loop
      vertex 11.9201 52.768 25.3148
      vertex 12.4941 52.3656 25.625
      vertex 12.1019 53.8295 24.75
    endloop
  endfacet
  facet normal -0.129409 0.482961 0.866026
    outer loop
      vertex 12.4941 52.3656 25.625
      vertex 11.9201 52.768 25.3148
      vertex 12.0592 52.2491 25.625
    endloop
  endfacet
  facet normal -0.12941 0.482963 0.866025
    outer loop
      vertex 11.9201 52.768 25.3148
      vertex 12.1019 53.8295 24.75
      vertex 11.6669 53.713 24.75
    endloop
  endfacet
  facet normal -0.258819 0.965926 0
    outer loop
      vertex 12.4941 52.3656 27.375
      vertex 12.0592 52.2491 27.313
      vertex 12.0592 52.2491 27.375
    endloop
  endfacet
  facet normal -0.258819 0.965926 0
    outer loop
      vertex 12.4941 52.3656 25.625
      vertex 12.0592 52.2491 27.313
      vertex 12.4941 52.3656 27.375
    endloop
  endfacet
  facet normal -0.258819 0.965926 0
    outer loop
      vertex 12.0592 52.2491 27.313
      vertex 12.4941 52.3656 25.625
      vertex 12.0592 52.2491 25.625
    endloop
  endfacet
  facet normal 0.12941 -0.48296 -0.866027
    outer loop
      vertex 11.4707 55.0939 27.4506
      vertex 11.824 54.8664 27.6302
      vertex 11.5298 54.8261 27.6087
    endloop
  endfacet
  facet normal 0.129406 -0.482965 -0.866025
    outer loop
      vertex 11.824 54.8664 27.6302
      vertex 11.4707 55.0939 27.4506
      vertex 11.7096 55.2934 27.375
    endloop
  endfacet
  facet normal 0.129411 -0.48297 -0.866021
    outer loop
      vertex 11.7096 55.2934 27.375
      vertex 11.4707 55.0939 27.4506
      vertex 11.4425 55.2219 27.375
    endloop
  endfacet
  facet normal 0.12941 -0.482966 -0.866024
    outer loop
      vertex 12.1019 53.8295 28.25
      vertex 16.9017 55.2348 28.1835
      vertex 16.9315 55.1236 28.25
    endloop
  endfacet
  facet normal 0.12941 -0.482966 -0.866024
    outer loop
      vertex 12.1019 53.8295 28.25
      vertex 12.0374 54.07 28.1063
      vertex 16.9017 55.2348 28.1835
    endloop
  endfacet
  facet normal 0.129409 -0.482966 -0.866024
    outer loop
      vertex 11.7364 53.8896 28.1619
      vertex 12.0374 54.07 28.1063
      vertex 12.1019 53.8295 28.25
    endloop
  endfacet
  facet normal 0.129412 -0.482959 -0.866028
    outer loop
      vertex 11.7364 53.8896 28.1619
      vertex 12.1019 53.8295 28.25
      vertex 11.7748 53.7419 28.25
    endloop
  endfacet
  facet normal 0.129407 -0.482964 -0.866025
    outer loop
      vertex 11.5298 54.8261 27.6087
      vertex 12.0374 54.07 28.1063
      vertex 11.7364 53.8896 28.1619
    endloop
  endfacet
  facet normal 0.12941 -0.482962 -0.866026
    outer loop
      vertex 12.0374 54.07 28.1063
      vertex 11.5298 54.8261 27.6087
      vertex 11.824 54.8664 27.6302
    endloop
  endfacet
  facet normal 0 0 0
    outer loop
      vertex 30.9184 3.5 28
      vertex 31.1311 3.5 28
      vertex 31.2662 3.5 28
    endloop
  endfacet
endsolid OpenSCAD_Model
