solid OpenSCAD_Model
  facet normal 1 -0 0
    outer loop
      vertex -12.5 -17 10.05
      vertex -12.5 17 5.05
      vertex -12.5 17 10.05
    endloop
  endfacet
  facet normal 1 0 0
    outer loop
      vertex -12.5 17 5.05
      vertex -12.5 -17 10.05
      vertex -12.5 -17 5.05
    endloop
  endfacet
  facet normal 1 -0 0
    outer loop
      vertex -12.5 -17 -5.05
      vertex -12.5 17 -18.95
      vertex -12.5 17 -5.05
    endloop
  endfacet
  facet normal 1 0 0
    outer loop
      vertex -12.5 17 -18.95
      vertex -12.5 -17 -5.05
      vertex -12.5 -17 -18.95
    endloop
  endfacet
  facet normal 0 1 0
    outer loop
      vertex 12.5 17 -2.55
      vertex 12.5 17 -5.05
      vertex -2.4 17 -2.55
    endloop
  endfacet
  facet normal 0 1 -0
    outer loop
      vertex -2.4 17 3.55
      vertex -12.5 17 5.05
      vertex 12.5 17 5.05
    endloop
  endfacet
  facet normal 0 1 -0
    outer loop
      vertex -2.4 17 -2.55
      vertex -12.5 17 5.05
      vertex -2.4 17 3.55
    endloop
  endfacet
  facet normal 0 1 0
    outer loop
      vertex -12.5 17 5.05
      vertex -12.5 17 -5.05
      vertex -16.2865 17 4.66832
    endloop
  endfacet
  facet normal 0 1 0
    outer loop
      vertex -2.4 17 3.55
      vertex 12.5 17 5.05
      vertex 12.5 17 3.55
    endloop
  endfacet
  facet normal 0 1 0
    outer loop
      vertex -53.7 17 10.05
      vertex -47.4865 17 6.43168
      vertex -49.1635 17 6.97658
    endloop
  endfacet
  facet normal 0 1 -0
    outer loop
      vertex -19 17 5.55
      vertex -47.4865 17 6.43168
      vertex -17.9635 17 6.97658
    endloop
  endfacet
  facet normal 0 1 0
    outer loop
      vertex -19 17 5.55
      vertex -47.4865 17 4.66832
      vertex -47.4865 17 6.43168
    endloop
  endfacet
  facet normal 0 1 0
    outer loop
      vertex -17.9635 17 4.12341
      vertex -47.4865 17 4.66832
      vertex -19 17 5.55
    endloop
  endfacet
  facet normal 0 1 0
    outer loop
      vertex -47.4865 17 4.66832
      vertex -17.9635 17 4.12341
      vertex -49.1635 17 4.12341
    endloop
  endfacet
  facet normal 0 1 0
    outer loop
      vertex -12.5 17 10.05
      vertex -17.9635 17 6.97658
      vertex -53.7 17 10.05
    endloop
  endfacet
  facet normal 0 1 0
    outer loop
      vertex -12.5 17 10.05
      vertex -16.2865 17 6.43168
      vertex -17.9635 17 6.97658
    endloop
  endfacet
  facet normal 0 1 -0
    outer loop
      vertex -12.5 17 5.05
      vertex -16.2865 17 6.43168
      vertex -12.5 17 10.05
    endloop
  endfacet
  facet normal 0 1 0
    outer loop
      vertex -16.2865 17 6.43168
      vertex -12.5 17 5.05
      vertex -16.2865 17 4.66832
    endloop
  endfacet
  facet normal 0 1 -0
    outer loop
      vertex -47.4865 17 6.43168
      vertex -53.7 17 10.05
      vertex -17.9635 17 6.97658
    endloop
  endfacet
  facet normal 0 1 -0
    outer loop
      vertex -50.2 17 5.55
      vertex -53.7 17 10.05
      vertex -49.1635 17 6.97658
    endloop
  endfacet
  facet normal 0 1 0
    outer loop
      vertex -53.7 17 -18.95
      vertex -50.2 17 5.55
      vertex -49.1635 17 4.12341
    endloop
  endfacet
  facet normal 0 1 0
    outer loop
      vertex -16.2865 17 4.66832
      vertex -12.5 17 -5.05
      vertex -17.9635 17 4.12341
    endloop
  endfacet
  facet normal 0 1 0
    outer loop
      vertex -12.5 17 5.05
      vertex -2.4 17 -2.55
      vertex -12.5 17 -5.05
    endloop
  endfacet
  facet normal 0 1 0
    outer loop
      vertex -12.5 17 -5.05
      vertex -2.4 17 -2.55
      vertex 12.5 17 -5.05
    endloop
  endfacet
  facet normal 0 1 0
    outer loop
      vertex -53.7 17 -18.95
      vertex -17.9635 17 4.12341
      vertex -12.5 17 -5.05
    endloop
  endfacet
  facet normal 0 1 0
    outer loop
      vertex -53.7 17 -18.95
      vertex -12.5 17 -5.05
      vertex -12.5 17 -18.95
    endloop
  endfacet
  facet normal 0 1 0
    outer loop
      vertex -50.2 17 5.55
      vertex -53.7 17 -18.95
      vertex -53.7 17 10.05
    endloop
  endfacet
  facet normal 0 1 0
    outer loop
      vertex -17.9635 17 4.12341
      vertex -53.7 17 -18.95
      vertex -49.1635 17 4.12341
    endloop
  endfacet
  facet normal 0 0 -1
    outer loop
      vertex 27.5 -17 -5.05
      vertex 18.7135 -10.8817 -5.05
      vertex 27.5 -16.9 -5.05
    endloop
  endfacet
  facet normal 0 0 -1
    outer loop
      vertex 27.5 -17 -5.05
      vertex 17.0365 -11.4266 -5.05
      vertex 18.7135 -10.8817 -5.05
    endloop
  endfacet
  facet normal 0 0 -1
    outer loop
      vertex 18.7135 -9.11832 -5.05
      vertex 10.7135 9.11832 -5.05
      vertex 12.5 17 -5.05
    endloop
  endfacet
  facet normal 0 0 -1
    outer loop
      vertex 17.0365 -8.57341 -5.05
      vertex 9.03647 8.57341 -5.05
      vertex 10.7135 9.11832 -5.05
    endloop
  endfacet
  facet normal 0 0 -1
    outer loop
      vertex -12.5 -17 -5.05
      vertex 9.03647 8.57341 -5.05
      vertex 16 -10 -5.05
    endloop
  endfacet
  facet normal -0 0 -1
    outer loop
      vertex 9.03647 8.57341 -5.05
      vertex -12.5 -17 -5.05
      vertex 8 10 -5.05
    endloop
  endfacet
  facet normal -0 0 -1
    outer loop
      vertex 17.0365 -11.4266 -5.05
      vertex -12.5 -17 -5.05
      vertex 16 -10 -5.05
    endloop
  endfacet
  facet normal 0 0 -1
    outer loop
      vertex -12.5 -17 -5.05
      vertex 17.0365 -11.4266 -5.05
      vertex 27.5 -17 -5.05
    endloop
  endfacet
  facet normal 0 0 -1
    outer loop
      vertex 18.7135 -9.11832 -5.05
      vertex 27.5 -16.9 -5.05
      vertex 18.7135 -10.8817 -5.05
    endloop
  endfacet
  facet normal 0 0 -1
    outer loop
      vertex 18.7135 -9.11832 -5.05
      vertex 12.5 17 -5.05
      vertex 27.5 -16.9 -5.05
    endloop
  endfacet
  facet normal 0 0 -1
    outer loop
      vertex 10.7135 9.11832 -5.05
      vertex 18.7135 -9.11832 -5.05
      vertex 17.0365 -8.57341 -5.05
    endloop
  endfacet
  facet normal 0 0 -1
    outer loop
      vertex 9.03647 8.57341 -5.05
      vertex 17.0365 -8.57341 -5.05
      vertex 16 -10 -5.05
    endloop
  endfacet
  facet normal 0 0 -1
    outer loop
      vertex 10.7135 10.8817 -5.05
      vertex 12.5 17 -5.05
      vertex 10.7135 9.11832 -5.05
    endloop
  endfacet
  facet normal 0 0 -1
    outer loop
      vertex 9.03647 11.4266 -5.05
      vertex 12.5 17 -5.05
      vertex 10.7135 10.8817 -5.05
    endloop
  endfacet
  facet normal 0 0 -1
    outer loop
      vertex -12.5 17 -5.05
      vertex 9.03647 11.4266 -5.05
      vertex 8 10 -5.05
    endloop
  endfacet
  facet normal 0 0 -1
    outer loop
      vertex -12.5 17 -5.05
      vertex 8 10 -5.05
      vertex -12.5 -17 -5.05
    endloop
  endfacet
  facet normal 0 0 -1
    outer loop
      vertex 9.03647 11.4266 -5.05
      vertex -12.5 17 -5.05
      vertex 12.5 17 -5.05
    endloop
  endfacet
  facet normal 0 -1 0
    outer loop
      vertex -53.7 -17 10.05
      vertex -12.5 -17 5.05
      vertex -12.5 -17 10.05
    endloop
  endfacet
  facet normal 0 -1 0
    outer loop
      vertex -12.5 -17 5.05
      vertex 12.5779 -17 3.55
      vertex 27.5 -17 5.05
    endloop
  endfacet
  facet normal 0 -1 0
    outer loop
      vertex -12.5 -17 5.05
      vertex 12.5779 -17 -2.55
      vertex 12.5779 -17 3.55
    endloop
  endfacet
  facet normal 0 -1 0
    outer loop
      vertex -12.5 -17 -5.05
      vertex -12.5 -17 5.05
      vertex -53.7 -17 10.05
    endloop
  endfacet
  facet normal 0 -1 0
    outer loop
      vertex 27.5 -17 -5.05
      vertex 12.5779 -17 -2.55
      vertex -12.5 -17 -5.05
    endloop
  endfacet
  facet normal 0 -1 0
    outer loop
      vertex -12.5 -17 5.05
      vertex -12.5 -17 -5.05
      vertex 12.5779 -17 -2.55
    endloop
  endfacet
  facet normal 0 -1 0
    outer loop
      vertex -53.7 -17 -18.95
      vertex -12.5 -17 -5.05
      vertex -53.7 -17 10.05
    endloop
  endfacet
  facet normal 0 -1 -0
    outer loop
      vertex -12.5 -17 -5.05
      vertex -53.7 -17 -18.95
      vertex -12.5 -17 -18.95
    endloop
  endfacet
  facet normal 0 -1 -0
    outer loop
      vertex 27.5 -17 5.05
      vertex 12.5779 -17 3.55
      vertex 27.5 -17 3.55
    endloop
  endfacet
  facet normal 0 -1 0
    outer loop
      vertex 12.5779 -17 -2.55
      vertex 27.5 -17 -5.05
      vertex 27.5 -17 -2.55
    endloop
  endfacet
  facet normal 1 -0 0
    outer loop
      vertex 27.5 -17 5.05
      vertex 27.5 -16.9 3.55
      vertex 27.5 -16.9 5.05
    endloop
  endfacet
  facet normal 1 0 0
    outer loop
      vertex 27.5 -16.9 3.55
      vertex 27.5 -17 5.05
      vertex 27.5 -17 3.55
    endloop
  endfacet
  facet normal 1 -0 0
    outer loop
      vertex 27.5 -17 -2.55
      vertex 27.5 -16.9 -5.05
      vertex 27.5 -16.9 -2.55
    endloop
  endfacet
  facet normal 1 0 0
    outer loop
      vertex 27.5 -16.9 -5.05
      vertex 27.5 -17 -2.55
      vertex 27.5 -17 -5.05
    endloop
  endfacet
  facet normal 0.914478 0.404636 0
    outer loop
      vertex 27.5 -16.9 5.05
      vertex 12.5 17 3.55
      vertex 12.5 17 5.05
    endloop
  endfacet
  facet normal 0.914478 0.404636 0
    outer loop
      vertex 12.5 17 3.55
      vertex 27.5 -16.9 5.05
      vertex 27.5 -16.9 3.55
    endloop
  endfacet
  facet normal 0.914478 0.404636 0
    outer loop
      vertex 27.5 -16.9 -2.55
      vertex 12.5 17 -5.05
      vertex 12.5 17 -2.55
    endloop
  endfacet
  facet normal 0.914478 0.404636 0
    outer loop
      vertex 12.5 17 -5.05
      vertex 27.5 -16.9 -2.55
      vertex 27.5 -16.9 -5.05
    endloop
  endfacet
  facet normal 0 0 1
    outer loop
      vertex -12.5 -17 5.05
      vertex 27.5 -16.9 5.05
      vertex 12.5 17 5.05
    endloop
  endfacet
  facet normal 0 0 1
    outer loop
      vertex -12.5 -17 5.05
      vertex 12.5 17 5.05
      vertex -12.5 17 5.05
    endloop
  endfacet
  facet normal 0 0 1
    outer loop
      vertex 27.5 -16.9 5.05
      vertex -12.5 -17 5.05
      vertex 27.5 -17 5.05
    endloop
  endfacet
  facet normal -0 0 1
    outer loop
      vertex -53.1 13.15 10.05
      vertex -13.1 12.4 10.05
      vertex -13.1 13.15 10.05
    endloop
  endfacet
  facet normal 0 0 1
    outer loop
      vertex -13.1 12.4 10.05
      vertex -53.1 13.15 10.05
      vertex -53.1 12.4 10.05
    endloop
  endfacet
  facet normal 0 0 1
    outer loop
      vertex -13.1 13.15 10.05
      vertex -12.5 17 10.05
      vertex -13.1 15.65 10.05
    endloop
  endfacet
  facet normal 0 0 1
    outer loop
      vertex -12.5 17 10.05
      vertex -53.1 15.65 10.05
      vertex -13.1 15.65 10.05
    endloop
  endfacet
  facet normal 0 0 1
    outer loop
      vertex -53.7 17 10.05
      vertex -53.1 13.15 10.05
      vertex -53.1 15.65 10.05
    endloop
  endfacet
  facet normal 0 0 1
    outer loop
      vertex -53.1 13.15 10.05
      vertex -53.7 17 10.05
      vertex -53.1 12.4 10.05
    endloop
  endfacet
  facet normal 0 0 1
    outer loop
      vertex -53.1 12.4 10.05
      vertex -53.7 17 10.05
      vertex -53.7 -17 10.05
    endloop
  endfacet
  facet normal -0 0 1
    outer loop
      vertex -53.7 17 10.05
      vertex -53.1 15.65 10.05
      vertex -12.5 17 10.05
    endloop
  endfacet
  facet normal 0 0 1
    outer loop
      vertex -13.1 12.4 10.05
      vertex -12.5 17 10.05
      vertex -13.1 13.15 10.05
    endloop
  endfacet
  facet normal 0 0 1
    outer loop
      vertex -12.5 17 10.05
      vertex -13.1 12.4 10.05
      vertex -12.5 -17 10.05
    endloop
  endfacet
  facet normal -0 0 1
    outer loop
      vertex -13.1 -16.4 10.05
      vertex -12.5 -17 10.05
      vertex -13.1 12.4 10.05
    endloop
  endfacet
  facet normal -0 0 1
    outer loop
      vertex -53.1 -16.4 10.05
      vertex -12.5 -17 10.05
      vertex -13.1 -16.4 10.05
    endloop
  endfacet
  facet normal 0 0 1
    outer loop
      vertex -53.1 -16.4 10.05
      vertex -53.7 -17 10.05
      vertex -12.5 -17 10.05
    endloop
  endfacet
  facet normal 0 0 1
    outer loop
      vertex -53.1 12.4 10.05
      vertex -53.7 -17 10.05
      vertex -53.1 -16.4 10.05
    endloop
  endfacet
  facet normal -1 0 0
    outer loop
      vertex -53.7 -17 -18.95
      vertex -53.7 17 10.05
      vertex -53.7 17 -18.95
    endloop
  endfacet
  facet normal -1 -0 0
    outer loop
      vertex -53.7 17 10.05
      vertex -53.7 -17 -18.95
      vertex -53.7 -17 10.05
    endloop
  endfacet
  facet normal 0 0 -1
    outer loop
      vertex -53.7 -17 -18.95
      vertex -12.5 17 -18.95
      vertex -12.5 -17 -18.95
    endloop
  endfacet
  facet normal -0 0 -1
    outer loop
      vertex -12.5 17 -18.95
      vertex -53.7 -17 -18.95
      vertex -53.7 17 -18.95
    endloop
  endfacet
  facet normal 0.809017 0 -0.587786
    outer loop
      vertex -17.9635 15.65 6.97658
      vertex -19 17 5.55
      vertex -17.9635 17 6.97658
    endloop
  endfacet
  facet normal 0.809017 0 -0.587786
    outer loop
      vertex -19 17 5.55
      vertex -17.9635 15.65 6.97658
      vertex -19 15.65 5.55
    endloop
  endfacet
  facet normal 0.809017 0 -0.587786
    outer loop
      vertex -17.9635 12.4 6.97658
      vertex -19 13.15 5.55
      vertex -17.9635 13.15 6.97658
    endloop
  endfacet
  facet normal 0.809017 0 -0.587786
    outer loop
      vertex -19 13.15 5.55
      vertex -17.9635 12.4 6.97658
      vertex -19 12.4 5.55
    endloop
  endfacet
  facet normal -0.309017 0 -0.951056
    outer loop
      vertex -17.9635 15.65 6.97658
      vertex -16.2865 17 6.43168
      vertex -16.2865 15.65 6.43168
    endloop
  endfacet
  facet normal -0.309017 0 -0.951056
    outer loop
      vertex -16.2865 17 6.43168
      vertex -17.9635 15.65 6.97658
      vertex -17.9635 17 6.97658
    endloop
  endfacet
  facet normal -0.309017 0 -0.951056
    outer loop
      vertex -17.9635 12.4 6.97658
      vertex -16.2865 13.15 6.43168
      vertex -16.2865 12.4 6.43168
    endloop
  endfacet
  facet normal -0.309017 0 -0.951056
    outer loop
      vertex -16.2865 13.15 6.43168
      vertex -17.9635 12.4 6.97658
      vertex -17.9635 13.15 6.97658
    endloop
  endfacet
  facet normal -1 0 0
    outer loop
      vertex -16.2865 15.65 4.66832
      vertex -16.2865 17 6.43168
      vertex -16.2865 17 4.66832
    endloop
  endfacet
  facet normal -1 -0 0
    outer loop
      vertex -16.2865 17 6.43168
      vertex -16.2865 15.65 4.66832
      vertex -16.2865 15.65 6.43168
    endloop
  endfacet
  facet normal -1 0 0
    outer loop
      vertex -16.2865 12.4 4.66832
      vertex -16.2865 13.15 6.43168
      vertex -16.2865 13.15 4.66832
    endloop
  endfacet
  facet normal -1 -0 0
    outer loop
      vertex -16.2865 13.15 6.43168
      vertex -16.2865 12.4 4.66832
      vertex -16.2865 12.4 6.43168
    endloop
  endfacet
  facet normal -0.309017 0 0.951056
    outer loop
      vertex -17.9635 17 4.12341
      vertex -16.2865 15.65 4.66832
      vertex -16.2865 17 4.66832
    endloop
  endfacet
  facet normal -0.309017 0 0.951056
    outer loop
      vertex -16.2865 15.65 4.66832
      vertex -17.9635 17 4.12341
      vertex -17.9635 15.65 4.12341
    endloop
  endfacet
  facet normal -0.309017 0 0.951056
    outer loop
      vertex -17.9635 13.15 4.12341
      vertex -16.2865 12.4 4.66832
      vertex -16.2865 13.15 4.66832
    endloop
  endfacet
  facet normal -0.309017 0 0.951056
    outer loop
      vertex -16.2865 12.4 4.66832
      vertex -17.9635 13.15 4.12341
      vertex -17.9635 12.4 4.12341
    endloop
  endfacet
  facet normal 0.809016 -0 0.587786
    outer loop
      vertex -19 15.65 5.55
      vertex -17.9635 17 4.12341
      vertex -19 17 5.55
    endloop
  endfacet
  facet normal 0.809016 0 0.587786
    outer loop
      vertex -17.9635 17 4.12341
      vertex -19 15.65 5.55
      vertex -17.9635 15.65 4.12341
    endloop
  endfacet
  facet normal 0.809016 -0 0.587786
    outer loop
      vertex -19 12.4 5.55
      vertex -17.9635 13.15 4.12341
      vertex -19 13.15 5.55
    endloop
  endfacet
  facet normal 0.809016 0 0.587786
    outer loop
      vertex -17.9635 13.15 4.12341
      vertex -19 12.4 5.55
      vertex -17.9635 12.4 4.12341
    endloop
  endfacet
  facet normal 0.809017 0 -0.587786
    outer loop
      vertex -49.1635 15.65 6.97658
      vertex -50.2 17 5.55
      vertex -49.1635 17 6.97658
    endloop
  endfacet
  facet normal 0.809017 0 -0.587786
    outer loop
      vertex -50.2 17 5.55
      vertex -49.1635 15.65 6.97658
      vertex -50.2 15.65 5.55
    endloop
  endfacet
  facet normal 0.809017 0 -0.587786
    outer loop
      vertex -49.1635 12.4 6.97658
      vertex -50.2 13.15 5.55
      vertex -49.1635 13.15 6.97658
    endloop
  endfacet
  facet normal 0.809017 0 -0.587786
    outer loop
      vertex -50.2 13.15 5.55
      vertex -49.1635 12.4 6.97658
      vertex -50.2 12.4 5.55
    endloop
  endfacet
  facet normal -0.309017 0 -0.951057
    outer loop
      vertex -49.1635 15.65 6.97658
      vertex -47.4865 17 6.43168
      vertex -47.4865 15.65 6.43168
    endloop
  endfacet
  facet normal -0.309017 0 -0.951057
    outer loop
      vertex -47.4865 17 6.43168
      vertex -49.1635 15.65 6.97658
      vertex -49.1635 17 6.97658
    endloop
  endfacet
  facet normal -0.309017 0 -0.951057
    outer loop
      vertex -49.1635 12.4 6.97658
      vertex -47.4865 13.15 6.43168
      vertex -47.4865 12.4 6.43168
    endloop
  endfacet
  facet normal -0.309017 0 -0.951057
    outer loop
      vertex -47.4865 13.15 6.43168
      vertex -49.1635 12.4 6.97658
      vertex -49.1635 13.15 6.97658
    endloop
  endfacet
  facet normal -1 0 0
    outer loop
      vertex -47.4865 15.65 4.66832
      vertex -47.4865 17 6.43168
      vertex -47.4865 17 4.66832
    endloop
  endfacet
  facet normal -1 -0 0
    outer loop
      vertex -47.4865 17 6.43168
      vertex -47.4865 15.65 4.66832
      vertex -47.4865 15.65 6.43168
    endloop
  endfacet
  facet normal -1 0 0
    outer loop
      vertex -47.4865 12.4 4.66832
      vertex -47.4865 13.15 6.43168
      vertex -47.4865 13.15 4.66832
    endloop
  endfacet
  facet normal -1 -0 0
    outer loop
      vertex -47.4865 13.15 6.43168
      vertex -47.4865 12.4 4.66832
      vertex -47.4865 12.4 6.43168
    endloop
  endfacet
  facet normal -0.309017 0 0.951057
    outer loop
      vertex -49.1635 17 4.12341
      vertex -47.4865 15.65 4.66832
      vertex -47.4865 17 4.66832
    endloop
  endfacet
  facet normal -0.309017 0 0.951057
    outer loop
      vertex -47.4865 15.65 4.66832
      vertex -49.1635 17 4.12341
      vertex -49.1635 15.65 4.12341
    endloop
  endfacet
  facet normal -0.309017 0 0.951057
    outer loop
      vertex -49.1635 13.15 4.12341
      vertex -47.4865 12.4 4.66832
      vertex -47.4865 13.15 4.66832
    endloop
  endfacet
  facet normal -0.309017 0 0.951057
    outer loop
      vertex -47.4865 12.4 4.66832
      vertex -49.1635 13.15 4.12341
      vertex -49.1635 12.4 4.12341
    endloop
  endfacet
  facet normal 0.809016 -0 0.587786
    outer loop
      vertex -50.2 15.65 5.55
      vertex -49.1635 17 4.12341
      vertex -50.2 17 5.55
    endloop
  endfacet
  facet normal 0.809016 0 0.587786
    outer loop
      vertex -49.1635 17 4.12341
      vertex -50.2 15.65 5.55
      vertex -49.1635 15.65 4.12341
    endloop
  endfacet
  facet normal 0.809016 -0 0.587786
    outer loop
      vertex -50.2 12.4 5.55
      vertex -49.1635 13.15 4.12341
      vertex -50.2 13.15 5.55
    endloop
  endfacet
  facet normal 0.809016 0 0.587786
    outer loop
      vertex -49.1635 13.15 4.12341
      vertex -50.2 12.4 5.55
      vertex -49.1635 12.4 4.12341
    endloop
  endfacet
  facet normal 0.914918 0.40364 0
    outer loop
      vertex 12.5779 -17 3.55
      vertex -2.4 16.95 -2.55
      vertex -2.4 16.95 3.55
    endloop
  endfacet
  facet normal 0.914918 0.40364 0
    outer loop
      vertex -2.4 16.95 -2.55
      vertex 12.5779 -17 3.55
      vertex 12.5779 -17 -2.55
    endloop
  endfacet
  facet normal 1 -0 0
    outer loop
      vertex -2.4 16.95 3.55
      vertex -2.4 17 -2.55
      vertex -2.4 17 3.55
    endloop
  endfacet
  facet normal 1 0 0
    outer loop
      vertex -2.4 17 -2.55
      vertex -2.4 16.95 3.55
      vertex -2.4 16.95 -2.55
    endloop
  endfacet
  facet normal 0 0 -1
    outer loop
      vertex 12.5779 -17 3.55
      vertex 27.5 -16.9 3.55
      vertex 27.5 -17 3.55
    endloop
  endfacet
  facet normal 0 0 -1
    outer loop
      vertex 12.5779 -17 3.55
      vertex 12.5 17 3.55
      vertex 27.5 -16.9 3.55
    endloop
  endfacet
  facet normal 0 0 -1
    outer loop
      vertex -2.4 16.95 3.55
      vertex 12.5 17 3.55
      vertex 12.5779 -17 3.55
    endloop
  endfacet
  facet normal -0 0 -1
    outer loop
      vertex 12.5 17 3.55
      vertex -2.4 16.95 3.55
      vertex -2.4 17 3.55
    endloop
  endfacet
  facet normal 0 0 1
    outer loop
      vertex 12.5 17 -2.55
      vertex 9.03647 11.4266 -2.55
      vertex 10.7135 10.8817 -2.55
    endloop
  endfacet
  facet normal -0 0 1
    outer loop
      vertex -2.4 17 -2.55
      vertex 9.03647 11.4266 -2.55
      vertex 12.5 17 -2.55
    endloop
  endfacet
  facet normal 0 0 1
    outer loop
      vertex 9.03647 11.4266 -2.55
      vertex -2.4 17 -2.55
      vertex -2.4 16.95 -2.55
    endloop
  endfacet
  facet normal -0 0 1
    outer loop
      vertex 18.7135 -10.8817 -2.55
      vertex 27.5 -16.9 -2.55
      vertex 18.7135 -9.11832 -2.55
    endloop
  endfacet
  facet normal 0 0 1
    outer loop
      vertex 12.5 17 -2.55
      vertex 18.7135 -9.11832 -2.55
      vertex 27.5 -16.9 -2.55
    endloop
  endfacet
  facet normal -0 0 1
    outer loop
      vertex 10.7135 9.11832 -2.55
      vertex 18.7135 -9.11832 -2.55
      vertex 12.5 17 -2.55
    endloop
  endfacet
  facet normal 0 0 1
    outer loop
      vertex 18.7135 -9.11832 -2.55
      vertex 10.7135 9.11832 -2.55
      vertex 17.0365 -8.57341 -2.55
    endloop
  endfacet
  facet normal -0 0 1
    outer loop
      vertex 9.03647 8.57341 -2.55
      vertex 17.0365 -8.57341 -2.55
      vertex 10.7135 9.11832 -2.55
    endloop
  endfacet
  facet normal 0 0 1
    outer loop
      vertex 10.7135 9.11832 -2.55
      vertex 12.5 17 -2.55
      vertex 10.7135 10.8817 -2.55
    endloop
  endfacet
  facet normal 0 0 1
    outer loop
      vertex 17.0365 -8.57341 -2.55
      vertex 9.03647 8.57341 -2.55
      vertex 16 -10 -2.55
    endloop
  endfacet
  facet normal 0 0 1
    outer loop
      vertex 16 -10 -2.55
      vertex 9.03647 8.57341 -2.55
      vertex 12.5779 -17 -2.55
    endloop
  endfacet
  facet normal 0 0 1
    outer loop
      vertex -2.4 16.95 -2.55
      vertex 9.03647 8.57341 -2.55
      vertex 8 10 -2.55
    endloop
  endfacet
  facet normal 0 0 1
    outer loop
      vertex 9.03647 11.4266 -2.55
      vertex -2.4 16.95 -2.55
      vertex 8 10 -2.55
    endloop
  endfacet
  facet normal 0 0 1
    outer loop
      vertex 9.03647 8.57341 -2.55
      vertex -2.4 16.95 -2.55
      vertex 12.5779 -17 -2.55
    endloop
  endfacet
  facet normal 0 0 1
    outer loop
      vertex 27.5 -16.9 -2.55
      vertex 18.7135 -10.8817 -2.55
      vertex 27.5 -17 -2.55
    endloop
  endfacet
  facet normal -0 0 1
    outer loop
      vertex 17.0365 -11.4266 -2.55
      vertex 27.5 -17 -2.55
      vertex 18.7135 -10.8817 -2.55
    endloop
  endfacet
  facet normal 0 0 1
    outer loop
      vertex 17.0365 -11.4266 -2.55
      vertex 12.5779 -17 -2.55
      vertex 27.5 -17 -2.55
    endloop
  endfacet
  facet normal 0 0 1
    outer loop
      vertex 12.5779 -17 -2.55
      vertex 17.0365 -11.4266 -2.55
      vertex 16 -10 -2.55
    endloop
  endfacet
  facet normal -1 0 0
    outer loop
      vertex -13.1 -16.4 -17.65
      vertex -13.1 12.4 10.05
      vertex -13.1 12.4 -17.65
    endloop
  endfacet
  facet normal -1 -0 0
    outer loop
      vertex -13.1 12.4 10.05
      vertex -13.1 -16.4 -17.65
      vertex -13.1 -16.4 10.05
    endloop
  endfacet
  facet normal 1 -0 0
    outer loop
      vertex -53.1 -16.4 10.05
      vertex -53.1 12.4 -17.65
      vertex -53.1 12.4 10.05
    endloop
  endfacet
  facet normal 1 0 0
    outer loop
      vertex -53.1 12.4 -17.65
      vertex -53.1 -16.4 10.05
      vertex -53.1 -16.4 -17.65
    endloop
  endfacet
  facet normal -0 0 1
    outer loop
      vertex -53.1 12.4 -17.65
      vertex -13.1 -16.4 -17.65
      vertex -13.1 12.4 -17.65
    endloop
  endfacet
  facet normal 0 0 1
    outer loop
      vertex -13.1 -16.4 -17.65
      vertex -53.1 12.4 -17.65
      vertex -53.1 -16.4 -17.65
    endloop
  endfacet
  facet normal 0 1 -0
    outer loop
      vertex -13.1 -16.4 -17.65
      vertex -53.1 -16.4 10.05
      vertex -13.1 -16.4 10.05
    endloop
  endfacet
  facet normal 0 1 0
    outer loop
      vertex -53.1 -16.4 10.05
      vertex -13.1 -16.4 -17.65
      vertex -53.1 -16.4 -17.65
    endloop
  endfacet
  facet normal 0 -1 0
    outer loop
      vertex -53.1 12.4 10.05
      vertex -47.4865 12.4 6.43168
      vertex -17.9635 12.4 6.97658
    endloop
  endfacet
  facet normal 0 -1 0
    outer loop
      vertex -47.4865 12.4 6.43168
      vertex -19 12.4 5.55
      vertex -17.9635 12.4 6.97658
    endloop
  endfacet
  facet normal 0 -1 0
    outer loop
      vertex -47.4865 12.4 4.66832
      vertex -19 12.4 5.55
      vertex -47.4865 12.4 6.43168
    endloop
  endfacet
  facet normal 0 -1 0
    outer loop
      vertex -53.1 12.4 -17.65
      vertex -47.4865 12.4 4.66832
      vertex -49.1635 12.4 4.12341
    endloop
  endfacet
  facet normal 0 -1 0
    outer loop
      vertex -47.4865 12.4 4.66832
      vertex -17.9635 12.4 4.12341
      vertex -19 12.4 5.55
    endloop
  endfacet
  facet normal 0 -1 0
    outer loop
      vertex -47.4865 12.4 6.43168
      vertex -53.1 12.4 10.05
      vertex -49.1635 12.4 6.97658
    endloop
  endfacet
  facet normal 0 -1 0
    outer loop
      vertex -53.1 12.4 10.05
      vertex -50.2 12.4 5.55
      vertex -49.1635 12.4 6.97658
    endloop
  endfacet
  facet normal 0 -1 -0
    outer loop
      vertex -47.4865 12.4 4.66832
      vertex -53.1 12.4 -17.65
      vertex -17.9635 12.4 4.12341
    endloop
  endfacet
  facet normal 0 -1 -0
    outer loop
      vertex -50.2 12.4 5.55
      vertex -53.1 12.4 -17.65
      vertex -49.1635 12.4 4.12341
    endloop
  endfacet
  facet normal 0 -1 0
    outer loop
      vertex -53.1 12.4 -17.65
      vertex -50.2 12.4 5.55
      vertex -53.1 12.4 10.05
    endloop
  endfacet
  facet normal 0 -1 0
    outer loop
      vertex -53.1 12.4 10.05
      vertex -17.9635 12.4 6.97658
      vertex -13.1 12.4 10.05
    endloop
  endfacet
  facet normal 0 -1 0
    outer loop
      vertex -16.2865 12.4 6.43168
      vertex -13.1 12.4 10.05
      vertex -17.9635 12.4 6.97658
    endloop
  endfacet
  facet normal 0 -1 0
    outer loop
      vertex -16.2865 12.4 4.66832
      vertex -13.1 12.4 10.05
      vertex -16.2865 12.4 6.43168
    endloop
  endfacet
  facet normal 0 -1 0
    outer loop
      vertex -13.1 12.4 -17.65
      vertex -17.9635 12.4 4.12341
      vertex -53.1 12.4 -17.65
    endloop
  endfacet
  facet normal 0 -1 0
    outer loop
      vertex -16.2865 12.4 4.66832
      vertex -13.1 12.4 -17.65
      vertex -13.1 12.4 10.05
    endloop
  endfacet
  facet normal 0 -1 0
    outer loop
      vertex -17.9635 12.4 4.12341
      vertex -13.1 12.4 -17.65
      vertex -16.2865 12.4 4.66832
    endloop
  endfacet
  facet normal -1 0 0
    outer loop
      vertex -13.1 13.15 1.15
      vertex -13.1 15.65 10.05
      vertex -13.1 15.65 1.15
    endloop
  endfacet
  facet normal -1 -0 0
    outer loop
      vertex -13.1 15.65 10.05
      vertex -13.1 13.15 1.15
      vertex -13.1 13.15 10.05
    endloop
  endfacet
  facet normal 1 -0 0
    outer loop
      vertex -53.1 13.15 10.05
      vertex -53.1 15.65 1.15
      vertex -53.1 15.65 10.05
    endloop
  endfacet
  facet normal 1 0 0
    outer loop
      vertex -53.1 15.65 1.15
      vertex -53.1 13.15 10.05
      vertex -53.1 13.15 1.15
    endloop
  endfacet
  facet normal 0 -1 0
    outer loop
      vertex -53.1 15.65 10.05
      vertex -47.4865 15.65 6.43168
      vertex -17.9635 15.65 6.97658
    endloop
  endfacet
  facet normal 0 -1 0
    outer loop
      vertex -47.4865 15.65 6.43168
      vertex -19 15.65 5.55
      vertex -17.9635 15.65 6.97658
    endloop
  endfacet
  facet normal 0 -1 0
    outer loop
      vertex -47.4865 15.65 4.66832
      vertex -19 15.65 5.55
      vertex -47.4865 15.65 6.43168
    endloop
  endfacet
  facet normal 0 -1 0
    outer loop
      vertex -53.1 15.65 1.15
      vertex -47.4865 15.65 4.66832
      vertex -49.1635 15.65 4.12341
    endloop
  endfacet
  facet normal 0 -1 0
    outer loop
      vertex -47.4865 15.65 4.66832
      vertex -17.9635 15.65 4.12341
      vertex -19 15.65 5.55
    endloop
  endfacet
  facet normal 0 -1 0
    outer loop
      vertex -47.4865 15.65 6.43168
      vertex -53.1 15.65 10.05
      vertex -49.1635 15.65 6.97658
    endloop
  endfacet
  facet normal 0 -1 0
    outer loop
      vertex -53.1 15.65 10.05
      vertex -50.2 15.65 5.55
      vertex -49.1635 15.65 6.97658
    endloop
  endfacet
  facet normal 0 -1 -0
    outer loop
      vertex -47.4865 15.65 4.66832
      vertex -53.1 15.65 1.15
      vertex -17.9635 15.65 4.12341
    endloop
  endfacet
  facet normal 0 -1 -0
    outer loop
      vertex -50.2 15.65 5.55
      vertex -53.1 15.65 1.15
      vertex -49.1635 15.65 4.12341
    endloop
  endfacet
  facet normal 0 -1 0
    outer loop
      vertex -53.1 15.65 1.15
      vertex -50.2 15.65 5.55
      vertex -53.1 15.65 10.05
    endloop
  endfacet
  facet normal 0 -1 0
    outer loop
      vertex -53.1 15.65 10.05
      vertex -17.9635 15.65 6.97658
      vertex -13.1 15.65 10.05
    endloop
  endfacet
  facet normal 0 -1 0
    outer loop
      vertex -16.2865 15.65 6.43168
      vertex -13.1 15.65 10.05
      vertex -17.9635 15.65 6.97658
    endloop
  endfacet
  facet normal 0 -1 0
    outer loop
      vertex -13.1 15.65 1.15
      vertex -16.2865 15.65 6.43168
      vertex -16.2865 15.65 4.66832
    endloop
  endfacet
  facet normal 0 -1 0
    outer loop
      vertex -16.2865 15.65 6.43168
      vertex -13.1 15.65 1.15
      vertex -13.1 15.65 10.05
    endloop
  endfacet
  facet normal 0 -1 0
    outer loop
      vertex -17.9635 15.65 4.12341
      vertex -13.1 15.65 1.15
      vertex -16.2865 15.65 4.66832
    endloop
  endfacet
  facet normal 0 -1 0
    outer loop
      vertex -13.1 15.65 1.15
      vertex -17.9635 15.65 4.12341
      vertex -53.1 15.65 1.15
    endloop
  endfacet
  facet normal -0 0 1
    outer loop
      vertex -53.1 15.65 1.15
      vertex -13.1 13.15 1.15
      vertex -13.1 15.65 1.15
    endloop
  endfacet
  facet normal 0 0 1
    outer loop
      vertex -13.1 13.15 1.15
      vertex -53.1 15.65 1.15
      vertex -53.1 13.15 1.15
    endloop
  endfacet
  facet normal 0 1 0
    outer loop
      vertex -53.1 13.15 10.05
      vertex -47.4865 13.15 6.43168
      vertex -49.1635 13.15 6.97658
    endloop
  endfacet
  facet normal 0 1 -0
    outer loop
      vertex -19 13.15 5.55
      vertex -47.4865 13.15 6.43168
      vertex -17.9635 13.15 6.97658
    endloop
  endfacet
  facet normal 0 1 0
    outer loop
      vertex -19 13.15 5.55
      vertex -47.4865 13.15 4.66832
      vertex -47.4865 13.15 6.43168
    endloop
  endfacet
  facet normal 0 1 0
    outer loop
      vertex -17.9635 13.15 4.12341
      vertex -47.4865 13.15 4.66832
      vertex -19 13.15 5.55
    endloop
  endfacet
  facet normal 0 1 0
    outer loop
      vertex -53.1 13.15 1.15
      vertex -47.4865 13.15 4.66832
      vertex -17.9635 13.15 4.12341
    endloop
  endfacet
  facet normal 0 1 0
    outer loop
      vertex -13.1 13.15 10.05
      vertex -17.9635 13.15 6.97658
      vertex -53.1 13.15 10.05
    endloop
  endfacet
  facet normal 0 1 0
    outer loop
      vertex -13.1 13.15 10.05
      vertex -16.2865 13.15 6.43168
      vertex -17.9635 13.15 6.97658
    endloop
  endfacet
  facet normal 0 1 -0
    outer loop
      vertex -13.1 13.15 1.15
      vertex -16.2865 13.15 6.43168
      vertex -13.1 13.15 10.05
    endloop
  endfacet
  facet normal 0 1 0
    outer loop
      vertex -53.1 13.15 1.15
      vertex -17.9635 13.15 4.12341
      vertex -13.1 13.15 1.15
    endloop
  endfacet
  facet normal 0 1 0
    outer loop
      vertex -16.2865 13.15 4.66832
      vertex -13.1 13.15 1.15
      vertex -17.9635 13.15 4.12341
    endloop
  endfacet
  facet normal 0 1 0
    outer loop
      vertex -16.2865 13.15 6.43168
      vertex -13.1 13.15 1.15
      vertex -16.2865 13.15 4.66832
    endloop
  endfacet
  facet normal 0 1 -0
    outer loop
      vertex -47.4865 13.15 6.43168
      vertex -53.1 13.15 10.05
      vertex -17.9635 13.15 6.97658
    endloop
  endfacet
  facet normal 0 1 -0
    outer loop
      vertex -50.2 13.15 5.55
      vertex -53.1 13.15 10.05
      vertex -49.1635 13.15 6.97658
    endloop
  endfacet
  facet normal 0 1 0
    outer loop
      vertex -50.2 13.15 5.55
      vertex -53.1 13.15 1.15
      vertex -53.1 13.15 10.05
    endloop
  endfacet
  facet normal 0 1 0
    outer loop
      vertex -49.1635 13.15 4.12341
      vertex -53.1 13.15 1.15
      vertex -50.2 13.15 5.55
    endloop
  endfacet
  facet normal 0 1 0
    outer loop
      vertex -47.4865 13.15 4.66832
      vertex -53.1 13.15 1.15
      vertex -49.1635 13.15 4.12341
    endloop
  endfacet
  facet normal 0.809017 -0.587785 0
    outer loop
      vertex 8 10 -2.55
      vertex 9.03647 11.4266 -5.05
      vertex 9.03647 11.4266 -2.55
    endloop
  endfacet
  facet normal 0.809017 -0.587785 0
    outer loop
      vertex 9.03647 11.4266 -5.05
      vertex 8 10 -2.55
      vertex 8 10 -5.05
    endloop
  endfacet
  facet normal -1 0 0
    outer loop
      vertex 10.7135 9.11832 -5.05
      vertex 10.7135 10.8817 -2.55
      vertex 10.7135 10.8817 -5.05
    endloop
  endfacet
  facet normal -1 -0 0
    outer loop
      vertex 10.7135 10.8817 -2.55
      vertex 10.7135 9.11832 -5.05
      vertex 10.7135 9.11832 -2.55
    endloop
  endfacet
  facet normal -0.309017 -0.951057 0
    outer loop
      vertex 9.03647 11.4266 -5.05
      vertex 10.7135 10.8817 -2.55
      vertex 9.03647 11.4266 -2.55
    endloop
  endfacet
  facet normal -0.309017 -0.951057 -0
    outer loop
      vertex 10.7135 10.8817 -2.55
      vertex 9.03647 11.4266 -5.05
      vertex 10.7135 10.8817 -5.05
    endloop
  endfacet
  facet normal -0.309017 0.951057 0
    outer loop
      vertex 10.7135 9.11832 -5.05
      vertex 9.03647 8.57341 -2.55
      vertex 10.7135 9.11832 -2.55
    endloop
  endfacet
  facet normal -0.309017 0.951057 0
    outer loop
      vertex 9.03647 8.57341 -2.55
      vertex 10.7135 9.11832 -5.05
      vertex 9.03647 8.57341 -5.05
    endloop
  endfacet
  facet normal 0.809017 0.587785 0
    outer loop
      vertex 9.03647 8.57341 -2.55
      vertex 8 10 -5.05
      vertex 8 10 -2.55
    endloop
  endfacet
  facet normal 0.809017 0.587785 0
    outer loop
      vertex 8 10 -5.05
      vertex 9.03647 8.57341 -2.55
      vertex 9.03647 8.57341 -5.05
    endloop
  endfacet
  facet normal 0.809017 -0.587785 0
    outer loop
      vertex 16 -10 -2.55
      vertex 17.0365 -8.57341 -5.05
      vertex 17.0365 -8.57341 -2.55
    endloop
  endfacet
  facet normal 0.809017 -0.587785 0
    outer loop
      vertex 17.0365 -8.57341 -5.05
      vertex 16 -10 -2.55
      vertex 16 -10 -5.05
    endloop
  endfacet
  facet normal -1 0 0
    outer loop
      vertex 18.7135 -10.8817 -5.05
      vertex 18.7135 -9.11832 -2.55
      vertex 18.7135 -9.11832 -5.05
    endloop
  endfacet
  facet normal -1 -0 0
    outer loop
      vertex 18.7135 -9.11832 -2.55
      vertex 18.7135 -10.8817 -5.05
      vertex 18.7135 -10.8817 -2.55
    endloop
  endfacet
  facet normal -0.309017 -0.951056 0
    outer loop
      vertex 17.0365 -8.57341 -5.05
      vertex 18.7135 -9.11832 -2.55
      vertex 17.0365 -8.57341 -2.55
    endloop
  endfacet
  facet normal -0.309017 -0.951056 -0
    outer loop
      vertex 18.7135 -9.11832 -2.55
      vertex 17.0365 -8.57341 -5.05
      vertex 18.7135 -9.11832 -5.05
    endloop
  endfacet
  facet normal -0.309017 0.951056 0
    outer loop
      vertex 18.7135 -10.8817 -5.05
      vertex 17.0365 -11.4266 -2.55
      vertex 18.7135 -10.8817 -2.55
    endloop
  endfacet
  facet normal -0.309017 0.951056 0
    outer loop
      vertex 17.0365 -11.4266 -2.55
      vertex 18.7135 -10.8817 -5.05
      vertex 17.0365 -11.4266 -5.05
    endloop
  endfacet
  facet normal 0.809017 0.587785 0
    outer loop
      vertex 17.0365 -11.4266 -2.55
      vertex 16 -10 -5.05
      vertex 16 -10 -2.55
    endloop
  endfacet
  facet normal 0.809017 0.587785 0
    outer loop
      vertex 16 -10 -5.05
      vertex 17.0365 -11.4266 -2.55
      vertex 17.0365 -11.4266 -5.05
    endloop
  endfacet
endsolid OpenSCAD_Model
