solid OpenSCAD_Model
  facet normal -0.900969 -0.433884 0
    outer loop
      vertex -9.545 19.148 -7.5
      vertex -10.298 20.7117 -2.55
      vertex -10.298 20.7117 -7.5
    endloop
  endfacet
  facet normal -0.900969 -0.433884 0
    outer loop
      vertex -10.298 20.7117 -2.55
      vertex -9.545 19.148 -7.5
      vertex -9.545 19.148 -2.55
    endloop
  endfacet
  facet normal 1 -0 0
    outer loop
      vertex -13.3469 18.2802 -2.55
      vertex -13.3469 20.0158 -7.5
      vertex -13.3469 20.0158 -2.55
    endloop
  endfacet
  facet normal 1 0 0
    outer loop
      vertex -13.3469 20.0158 -7.5
      vertex -13.3469 18.2802 -2.55
      vertex -13.3469 18.2802 -7.5
    endloop
  endfacet
  facet normal -0.222522 -0.974928 0
    outer loop
      vertex -11.99 21.0979 -7.5
      vertex -10.298 20.7117 -2.55
      vertex -11.99 21.0979 -2.55
    endloop
  endfacet
  facet normal -0.222522 -0.974928 -0
    outer loop
      vertex -10.298 20.7117 -2.55
      vertex -11.99 21.0979 -7.5
      vertex -10.298 20.7117 -7.5
    endloop
  endfacet
  facet normal 0.62349 0.781831 -0
    outer loop
      vertex -11.99 17.1981 -7.5
      vertex -13.3469 18.2802 -2.55
      vertex -11.99 17.1981 -2.55
    endloop
  endfacet
  facet normal 0.62349 0.781831 0
    outer loop
      vertex -13.3469 18.2802 -2.55
      vertex -11.99 17.1981 -7.5
      vertex -13.3469 18.2802 -7.5
    endloop
  endfacet
  facet normal 0.62349 -0.781831 0
    outer loop
      vertex -13.3469 20.0158 -7.5
      vertex -11.99 21.0979 -2.55
      vertex -13.3469 20.0158 -2.55
    endloop
  endfacet
  facet normal 0.62349 -0.781831 0
    outer loop
      vertex -11.99 21.0979 -2.55
      vertex -13.3469 20.0158 -7.5
      vertex -11.99 21.0979 -7.5
    endloop
  endfacet
  facet normal -0.222521 0.974928 0
    outer loop
      vertex -10.298 17.5843 -7.5
      vertex -11.99 17.1981 -2.55
      vertex -10.298 17.5843 -2.55
    endloop
  endfacet
  facet normal -0.222521 0.974928 0
    outer loop
      vertex -11.99 17.1981 -2.55
      vertex -10.298 17.5843 -7.5
      vertex -11.99 17.1981 -7.5
    endloop
  endfacet
  facet normal -0.900969 0.433884 0
    outer loop
      vertex -10.298 17.5843 -7.5
      vertex -9.545 19.148 -2.55
      vertex -9.545 19.148 -7.5
    endloop
  endfacet
  facet normal -0.900969 0.433884 0
    outer loop
      vertex -9.545 19.148 -2.55
      vertex -10.298 17.5843 -7.5
      vertex -10.298 17.5843 -2.55
    endloop
  endfacet
  facet normal -0.959493 -0.281733 0
    outer loop
      vertex -8.045 19.148 -2.55
      vertex -8.60061 21.0402 7.5
      vertex -8.60061 21.0402 -2.55
    endloop
  endfacet
  facet normal -0.959493 -0.281733 0
    outer loop
      vertex -8.60061 21.0402 7.5
      vertex -8.045 19.148 -2.55
      vertex -8.045 19.148 7.5
    endloop
  endfacet
  facet normal 1 -0 0
    outer loop
      vertex -14.9032 18.1619 7.5
      vertex -14.9032 20.1341 -2.55
      vertex -14.9032 20.1341 7.5
    endloop
  endfacet
  facet normal 1 0 0
    outer loop
      vertex -14.9032 20.1341 -2.55
      vertex -14.9032 18.1619 7.5
      vertex -14.9032 18.1619 -2.55
    endloop
  endfacet
  facet normal 0.415415 -0.909632 0
    outer loop
      vertex -13.837 21.7931 -2.55
      vertex -12.0431 22.6124 7.5
      vertex -13.837 21.7931 7.5
    endloop
  endfacet
  facet normal 0.415415 -0.909632 0
    outer loop
      vertex -12.0431 22.6124 7.5
      vertex -13.837 21.7931 -2.55
      vertex -12.0431 22.6124 -2.55
    endloop
  endfacet
  facet normal 0.841254 -0.540641 0
    outer loop
      vertex -14.9032 20.1341 7.5
      vertex -13.837 21.7931 -2.55
      vertex -13.837 21.7931 7.5
    endloop
  endfacet
  facet normal 0.841254 -0.540641 0
    outer loop
      vertex -13.837 21.7931 -2.55
      vertex -14.9032 20.1341 7.5
      vertex -14.9032 20.1341 -2.55
    endloop
  endfacet
  facet normal -0.959493 0.281733 0
    outer loop
      vertex -8.60061 17.2558 -2.55
      vertex -8.045 19.148 7.5
      vertex -8.045 19.148 -2.55
    endloop
  endfacet
  facet normal -0.959493 0.281733 0
    outer loop
      vertex -8.045 19.148 7.5
      vertex -8.60061 17.2558 -2.55
      vertex -8.60061 17.2558 7.5
    endloop
  endfacet
  facet normal 0 0 1
    outer loop
      vertex -9.545 19.148 -2.55
      vertex -8.045 19.148 -2.55
      vertex -8.60061 21.0402 -2.55
    endloop
  endfacet
  facet normal 0 0 1
    outer loop
      vertex -8.045 19.148 -2.55
      vertex -9.545 19.148 -2.55
      vertex -8.60061 17.2558 -2.55
    endloop
  endfacet
  facet normal 0 0 1
    outer loop
      vertex -10.298 20.7117 -2.55
      vertex -8.60061 21.0402 -2.55
      vertex -10.091 22.3317 -2.55
    endloop
  endfacet
  facet normal 0 0 1
    outer loop
      vertex -8.60061 21.0402 -2.55
      vertex -10.298 20.7117 -2.55
      vertex -9.545 19.148 -2.55
    endloop
  endfacet
  facet normal 0 0 1
    outer loop
      vertex -10.091 22.3317 -2.55
      vertex -11.99 21.0979 -2.55
      vertex -10.298 20.7117 -2.55
    endloop
  endfacet
  facet normal 0 0 1
    outer loop
      vertex -12.0431 22.6124 -2.55
      vertex -11.99 21.0979 -2.55
      vertex -10.091 22.3317 -2.55
    endloop
  endfacet
  facet normal -0 0 1
    outer loop
      vertex -13.837 21.7931 -2.55
      vertex -11.99 21.0979 -2.55
      vertex -12.0431 22.6124 -2.55
    endloop
  endfacet
  facet normal -0 0 1
    outer loop
      vertex -14.9032 20.1341 -2.55
      vertex -13.3469 20.0158 -2.55
      vertex -13.837 21.7931 -2.55
    endloop
  endfacet
  facet normal 0 0 1
    outer loop
      vertex -11.99 21.0979 -2.55
      vertex -13.837 21.7931 -2.55
      vertex -13.3469 20.0158 -2.55
    endloop
  endfacet
  facet normal -0 0 1
    outer loop
      vertex -10.298 17.5843 -2.55
      vertex -8.60061 17.2558 -2.55
      vertex -9.545 19.148 -2.55
    endloop
  endfacet
  facet normal 0 0 1
    outer loop
      vertex -8.60061 17.2558 -2.55
      vertex -10.298 17.5843 -2.55
      vertex -10.091 15.9643 -2.55
    endloop
  endfacet
  facet normal -0 0 1
    outer loop
      vertex -11.99 17.1981 -2.55
      vertex -10.091 15.9643 -2.55
      vertex -10.298 17.5843 -2.55
    endloop
  endfacet
  facet normal 0 0 1
    outer loop
      vertex -11.99 17.1981 -2.55
      vertex -12.0431 15.6836 -2.55
      vertex -10.091 15.9643 -2.55
    endloop
  endfacet
  facet normal 0 0 1
    outer loop
      vertex -13.837 16.5029 -2.55
      vertex -11.99 17.1981 -2.55
      vertex -13.3469 18.2802 -2.55
    endloop
  endfacet
  facet normal 0 0 1
    outer loop
      vertex -11.99 17.1981 -2.55
      vertex -13.837 16.5029 -2.55
      vertex -12.0431 15.6836 -2.55
    endloop
  endfacet
  facet normal 0 0 1
    outer loop
      vertex -13.3469 20.0158 -2.55
      vertex -14.9032 20.1341 -2.55
      vertex -13.3469 18.2802 -2.55
    endloop
  endfacet
  facet normal 0 0 1
    outer loop
      vertex -14.9032 18.1619 -2.55
      vertex -13.3469 18.2802 -2.55
      vertex -14.9032 20.1341 -2.55
    endloop
  endfacet
  facet normal 0 0 1
    outer loop
      vertex -13.3469 18.2802 -2.55
      vertex -14.9032 18.1619 -2.55
      vertex -13.837 16.5029 -2.55
    endloop
  endfacet
  facet normal -0.142316 -0.989821 0
    outer loop
      vertex -12.0431 22.6124 -2.55
      vertex -10.091 22.3317 7.5
      vertex -12.0431 22.6124 7.5
    endloop
  endfacet
  facet normal -0.142316 -0.989821 -0
    outer loop
      vertex -10.091 22.3317 7.5
      vertex -12.0431 22.6124 -2.55
      vertex -10.091 22.3317 -2.55
    endloop
  endfacet
  facet normal -0.65486 -0.75575 0
    outer loop
      vertex -10.091 22.3317 -2.55
      vertex -8.60061 21.0402 7.5
      vertex -10.091 22.3317 7.5
    endloop
  endfacet
  facet normal -0.65486 -0.75575 -0
    outer loop
      vertex -8.60061 21.0402 7.5
      vertex -10.091 22.3317 -2.55
      vertex -8.60061 21.0402 -2.55
    endloop
  endfacet
  facet normal 0.841254 0.54064 0
    outer loop
      vertex -13.837 16.5029 7.5
      vertex -14.9032 18.1619 -2.55
      vertex -14.9032 18.1619 7.5
    endloop
  endfacet
  facet normal 0.841254 0.54064 0
    outer loop
      vertex -14.9032 18.1619 -2.55
      vertex -13.837 16.5029 7.5
      vertex -13.837 16.5029 -2.55
    endloop
  endfacet
  facet normal -0.654861 0.755749 0
    outer loop
      vertex -8.60061 17.2558 -2.55
      vertex -10.091 15.9643 7.5
      vertex -8.60061 17.2558 7.5
    endloop
  endfacet
  facet normal -0.654861 0.755749 0
    outer loop
      vertex -10.091 15.9643 7.5
      vertex -8.60061 17.2558 -2.55
      vertex -10.091 15.9643 -2.55
    endloop
  endfacet
  facet normal -0.142315 0.989821 0
    outer loop
      vertex -10.091 15.9643 -2.55
      vertex -12.0431 15.6836 7.5
      vertex -10.091 15.9643 7.5
    endloop
  endfacet
  facet normal -0.142315 0.989821 0
    outer loop
      vertex -12.0431 15.6836 7.5
      vertex -10.091 15.9643 -2.55
      vertex -12.0431 15.6836 -2.55
    endloop
  endfacet
  facet normal 0.415415 0.909632 -0
    outer loop
      vertex -12.0431 15.6836 -2.55
      vertex -13.837 16.5029 7.5
      vertex -12.0431 15.6836 7.5
    endloop
  endfacet
  facet normal 0.415415 0.909632 0
    outer loop
      vertex -13.837 16.5029 7.5
      vertex -12.0431 15.6836 -2.55
      vertex -13.837 16.5029 -2.55
    endloop
  endfacet
  facet normal -1 0 0
    outer loop
      vertex -1 -29 -7.5
      vertex -1 -28 7.5
      vertex -1 -28 -7.5
    endloop
  endfacet
  facet normal -1 -0 0
    outer loop
      vertex -1 -28 7.5
      vertex -1 -29 -7.5
      vertex -1 -29 7.5
    endloop
  endfacet
  facet normal -0.347314 0 0.937749
    outer loop
      vertex -1 -28 7.5
      vertex 12.5 -27 12.5
      vertex -1 -27 7.5
    endloop
  endfacet
  facet normal -0.347314 0 0.937749
    outer loop
      vertex 12.5 -27 12.5
      vertex -1 -28 7.5
      vertex 12.5 -29 12.5
    endloop
  endfacet
  facet normal -0.347314 0 0.937749
    outer loop
      vertex 12.5 -29 12.5
      vertex -1 -28 7.5
      vertex -1 -29 7.5
    endloop
  endfacet
  facet normal 0 1 0
    outer loop
      vertex 62.5 -27 0
      vertex 62.5 -27 -7.5
      vertex 49 -27 0
    endloop
  endfacet
  facet normal 0 1 0
    outer loop
      vertex 49 -27 20
      vertex 62.5 -27 27.5
      vertex 62.5 -27 20
    endloop
  endfacet
  facet normal 0 1 0
    outer loop
      vertex 62.5 -27 27.5
      vertex 49 -27 20
      vertex 47 -27 27.5
    endloop
  endfacet
  facet normal 0 1 0
    outer loop
      vertex 49 -27 20
      vertex 12.5 -27 12.5
      vertex 47 -27 27.5
    endloop
  endfacet
  facet normal 0 1 -0
    outer loop
      vertex 49 -27 0
      vertex 12.5 -27 12.5
      vertex 49 -27 20
    endloop
  endfacet
  facet normal 0 1 0
    outer loop
      vertex 12.5 -27 12.5
      vertex 49 -27 0
      vertex 11 -27 7.5
    endloop
  endfacet
  facet normal 0 1 0
    outer loop
      vertex 11 -27 -7.5
      vertex 49 -27 0
      vertex 62.5 -27 -7.5
    endloop
  endfacet
  facet normal 0 1 0
    outer loop
      vertex 49 -27 0
      vertex 11 -27 -7.5
      vertex 11 -27 7.5
    endloop
  endfacet
  facet normal 0 1 0
    outer loop
      vertex 12.5 -27 12.5
      vertex 11 -27 7.5
      vertex -1 -27 7.5
    endloop
  endfacet
  facet normal -0 0 -1
    outer loop
      vertex -8.19935 22.8637 -7.5
      vertex -10.298 20.7117 -7.5
      vertex -9.045 23.4781 -7.5
    endloop
  endfacet
  facet normal -0 0 -1
    outer loop
      vertex -9.045 23.4781 -7.5
      vertex -10.298 20.7117 -7.5
      vertex -9.99991 23.9033 -7.5
    endloop
  endfacet
  facet normal 0 0 -1
    outer loop
      vertex -11.99 21.0979 -7.5
      vertex -9.99991 23.9033 -7.5
      vertex -10.298 20.7117 -7.5
    endloop
  endfacet
  facet normal -0 0 -1
    outer loop
      vertex -9.99991 23.9033 -7.5
      vertex -11.99 21.0979 -7.5
      vertex -11.0224 24.1206 -7.5
    endloop
  endfacet
  facet normal 0 0 -1
    outer loop
      vertex -11.99 21.0979 -7.5
      vertex -12.0676 24.1206 -7.5
      vertex -11.0224 24.1206 -7.5
    endloop
  endfacet
  facet normal 0 0 -1
    outer loop
      vertex -11.99 21.0979 -7.5
      vertex -13.0901 23.9033 -7.5
      vertex -12.0676 24.1206 -7.5
    endloop
  endfacet
  facet normal 0 0 -1
    outer loop
      vertex -14.8907 22.8637 -7.5
      vertex -11.99 21.0979 -7.5
      vertex -13.3469 20.0158 -7.5
    endloop
  endfacet
  facet normal 0 0 -1
    outer loop
      vertex -11.99 21.0979 -7.5
      vertex -14.045 23.4781 -7.5
      vertex -13.0901 23.9033 -7.5
    endloop
  endfacet
  facet normal 0 0 -1
    outer loop
      vertex 2 0 -7.5
      vertex 5 0 -7.5
      vertex 4.89074 -1.03956 -7.5
    endloop
  endfacet
  facet normal 0 0 -1
    outer loop
      vertex 5 0 -7.5
      vertex 2 0 -7.5
      vertex 4.89074 1.03956 -7.5
    endloop
  endfacet
  facet normal -0 0 -1
    outer loop
      vertex 4.89074 1.03956 -7.5
      vertex 2 0 -7.5
      vertex 4.56773 2.03368 -7.5
    endloop
  endfacet
  facet normal 0 0 -1
    outer loop
      vertex 1.24698 -1.56366 -7.5
      vertex 4.89074 -1.03956 -7.5
      vertex 2.38778 -18.3835 -7.5
    endloop
  endfacet
  facet normal 0 -0 -1
    outer loop
      vertex 2 0 -7.5
      vertex 4.89074 -1.03956 -7.5
      vertex 1.24698 -1.56366 -7.5
    endloop
  endfacet
  facet normal -0 0 -1
    outer loop
      vertex 4.56773 2.03368 -7.5
      vertex 1.24698 1.56366 -7.5
      vertex 4.04508 2.93893 -7.5
    endloop
  endfacet
  facet normal 0 0 -1
    outer loop
      vertex -0.445042 1.94986 -7.5
      vertex 4.04508 2.93893 -7.5
      vertex 1.24698 1.56366 -7.5
    endloop
  endfacet
  facet normal 0 0 -1
    outer loop
      vertex -10.298 17.5843 -7.5
      vertex 4.04508 2.93893 -7.5
      vertex -0.445042 1.94986 -7.5
    endloop
  endfacet
  facet normal 0 0 -1
    outer loop
      vertex -10.298 17.5843 -7.5
      vertex -0.445042 1.94986 -7.5
      vertex -1.80194 0.867767 -7.5
    endloop
  endfacet
  facet normal 0 0 -1
    outer loop
      vertex -11.99 17.1981 -7.5
      vertex -1.80194 0.867767 -7.5
      vertex -4.79648 -1.69269 -7.5
    endloop
  endfacet
  facet normal 0 0 -1
    outer loop
      vertex 4.04508 2.93893 -7.5
      vertex -9.545 19.148 -7.5
      vertex -7.49991 22.0869 -7.5
    endloop
  endfacet
  facet normal 0 0 -1
    outer loop
      vertex -10.298 20.7117 -7.5
      vertex -7.49991 22.0869 -7.5
      vertex -9.545 19.148 -7.5
    endloop
  endfacet
  facet normal -0 0 -1
    outer loop
      vertex -7.49991 22.0869 -7.5
      vertex -10.298 20.7117 -7.5
      vertex -8.19935 22.8637 -7.5
    endloop
  endfacet
  facet normal 0 0 -1
    outer loop
      vertex 4.04508 2.93893 -7.5
      vertex -10.298 17.5843 -7.5
      vertex -9.545 19.148 -7.5
    endloop
  endfacet
  facet normal 0 0 -1
    outer loop
      vertex -1.80194 0.867767 -7.5
      vertex -11.99 17.1981 -7.5
      vertex -10.298 17.5843 -7.5
    endloop
  endfacet
  facet normal 0 0 -1
    outer loop
      vertex -15.5901 16.2091 -7.5
      vertex -11.99 17.1981 -7.5
      vertex -4.79648 -1.69269 -7.5
    endloop
  endfacet
  facet normal 0 0 -1
    outer loop
      vertex -16.545 19.148 -7.5
      vertex -13.3469 20.0158 -7.5
      vertex -13.3469 18.2802 -7.5
    endloop
  endfacet
  facet normal 0 0 -1
    outer loop
      vertex -11.99 21.0979 -7.5
      vertex -14.8907 22.8637 -7.5
      vertex -14.045 23.4781 -7.5
    endloop
  endfacet
  facet normal -0 0 -1
    outer loop
      vertex -11.99 17.1981 -7.5
      vertex -15.5901 16.2091 -7.5
      vertex -13.3469 18.2802 -7.5
    endloop
  endfacet
  facet normal 0 0 -1
    outer loop
      vertex -16.1127 17.1143 -7.5
      vertex -13.3469 18.2802 -7.5
      vertex -15.5901 16.2091 -7.5
    endloop
  endfacet
  facet normal 0 0 -1
    outer loop
      vertex -13.3469 20.0158 -7.5
      vertex -15.5901 22.0869 -7.5
      vertex -14.8907 22.8637 -7.5
    endloop
  endfacet
  facet normal 0 0 -1
    outer loop
      vertex -16.4357 18.1084 -7.5
      vertex -13.3469 18.2802 -7.5
      vertex -16.1127 17.1143 -7.5
    endloop
  endfacet
  facet normal 0 0 -1
    outer loop
      vertex -13.3469 20.0158 -7.5
      vertex -16.1127 21.1817 -7.5
      vertex -15.5901 22.0869 -7.5
    endloop
  endfacet
  facet normal 0 0 -1
    outer loop
      vertex -16.545 19.148 -7.5
      vertex -13.3469 18.2802 -7.5
      vertex -16.4357 18.1084 -7.5
    endloop
  endfacet
  facet normal 0 0 -1
    outer loop
      vertex -13.3469 20.0158 -7.5
      vertex -16.4357 20.1876 -7.5
      vertex -16.1127 21.1817 -7.5
    endloop
  endfacet
  facet normal -0 0 -1
    outer loop
      vertex -13.3469 20.0158 -7.5
      vertex -16.545 19.148 -7.5
      vertex -16.4357 20.1876 -7.5
    endloop
  endfacet
  facet normal 0 0 -1
    outer loop
      vertex 62.5 -31.2 -7.5
      vertex 57.5 -29 -7.5
      vertex 62.5 -27 -7.5
    endloop
  endfacet
  facet normal 0 0 -1
    outer loop
      vertex 62.5 -31.2 -7.5
      vertex 56.809 -29.9511 -7.5
      vertex 57.5 -29 -7.5
    endloop
  endfacet
  facet normal 0 0 -1
    outer loop
      vertex 47 -29 -7.5
      vertex 55.691 -29.5878 -7.5
      vertex 55.5 -31.2 -7.5
    endloop
  endfacet
  facet normal -0 0 -1
    outer loop
      vertex 56.809 -29.9511 -7.5
      vertex 55.5 -31.2 -7.5
      vertex 55.691 -29.5878 -7.5
    endloop
  endfacet
  facet normal 0 0 -1
    outer loop
      vertex 55.5 -31.2 -7.5
      vertex 56.809 -29.9511 -7.5
      vertex 62.5 -31.2 -7.5
    endloop
  endfacet
  facet normal 0 0 -1
    outer loop
      vertex 56.809 -28.0489 -7.5
      vertex 62.5 -27 -7.5
      vertex 57.5 -29 -7.5
    endloop
  endfacet
  facet normal 0 0 -1
    outer loop
      vertex 55.691 -29.5878 -7.5
      vertex 47 -29 -7.5
      vertex 55.691 -28.4122 -7.5
    endloop
  endfacet
  facet normal 0 0 -1
    outer loop
      vertex 47 -29 -7.5
      vertex 56.809 -28.0489 -7.5
      vertex 55.691 -28.4122 -7.5
    endloop
  endfacet
  facet normal 0 0 -1
    outer loop
      vertex 47 -29 -7.5
      vertex 62.5 -27 -7.5
      vertex 56.809 -28.0489 -7.5
    endloop
  endfacet
  facet normal 0 0 -1
    outer loop
      vertex 47 -29 -7.5
      vertex 11 -27 -7.5
      vertex 62.5 -27 -7.5
    endloop
  endfacet
  facet normal 0 0 -1
    outer loop
      vertex 1.24698 1.56366 -7.5
      vertex 4.56773 2.03368 -7.5
      vertex 2 0 -7.5
    endloop
  endfacet
  facet normal 0 0 -1
    outer loop
      vertex 2.38778 -18.3835 -7.5
      vertex -0.445042 -1.94986 -7.5
      vertex 1.24698 -1.56366 -7.5
    endloop
  endfacet
  facet normal 0 0 -1
    outer loop
      vertex -1 -29 -7.5
      vertex 11 -27 -7.5
      vertex 47 -29 -7.5
    endloop
  endfacet
  facet normal 0 0 -1
    outer loop
      vertex -1 -28 -7.5
      vertex 11 -27 -7.5
      vertex -1 -29 -7.5
    endloop
  endfacet
  facet normal -0 0 -1
    outer loop
      vertex 11 -27 -7.5
      vertex -1 -28 -7.5
      vertex 2.38778 -18.3835 -7.5
    endloop
  endfacet
  facet normal 0 0 -1
    outer loop
      vertex -4.79648 -1.69269 -7.5
      vertex 2.38778 -18.3835 -7.5
      vertex -1 -28 -7.5
    endloop
  endfacet
  facet normal 0 0 -1
    outer loop
      vertex 2.38778 -18.3835 -7.5
      vertex -4.79648 -1.69269 -7.5
      vertex -0.445042 -1.94986 -7.5
    endloop
  endfacet
  facet normal -0 0 -1
    outer loop
      vertex -1.80194 -0.867767 -7.5
      vertex -4.79648 -1.69269 -7.5
      vertex -1.80194 0.867767 -7.5
    endloop
  endfacet
  facet normal 0 0 -1
    outer loop
      vertex -0.445042 -1.94986 -7.5
      vertex -4.79648 -1.69269 -7.5
      vertex -1.80194 -0.867767 -7.5
    endloop
  endfacet
  facet normal 0 0 1
    outer loop
      vertex 62.5 -27 27.5
      vertex 57.5 -29 27.5
      vertex 62.5 -31.2 27.5
    endloop
  endfacet
  facet normal 0 0 1
    outer loop
      vertex 62.5 -27 27.5
      vertex 56.809 -28.0489 27.5
      vertex 57.5 -29 27.5
    endloop
  endfacet
  facet normal -0 0 1
    outer loop
      vertex 47 -29 27.5
      vertex 55.691 -29.5878 27.5
      vertex 55.691 -28.4122 27.5
    endloop
  endfacet
  facet normal -0 0 1
    outer loop
      vertex 47 -27 27.5
      vertex 56.809 -28.0489 27.5
      vertex 62.5 -27 27.5
    endloop
  endfacet
  facet normal 0 0 1
    outer loop
      vertex 47 -27 27.5
      vertex 55.691 -28.4122 27.5
      vertex 56.809 -28.0489 27.5
    endloop
  endfacet
  facet normal 0 0 1
    outer loop
      vertex 47 -29 27.5
      vertex 55.691 -28.4122 27.5
      vertex 47 -27 27.5
    endloop
  endfacet
  facet normal 0 0 1
    outer loop
      vertex 55.691 -29.5878 27.5
      vertex 47 -29 27.5
      vertex 55.5 -31.2 27.5
    endloop
  endfacet
  facet normal -0 0 1
    outer loop
      vertex 56.809 -29.9511 27.5
      vertex 62.5 -31.2 27.5
      vertex 57.5 -29 27.5
    endloop
  endfacet
  facet normal 0 0 1
    outer loop
      vertex 56.809 -29.9511 27.5
      vertex 55.5 -31.2 27.5
      vertex 62.5 -31.2 27.5
    endloop
  endfacet
  facet normal 0 0 1
    outer loop
      vertex 55.5 -31.2 27.5
      vertex 56.809 -29.9511 27.5
      vertex 55.691 -29.5878 27.5
    endloop
  endfacet
  facet normal 0 -1 0
    outer loop
      vertex -1 -29 -7.5
      vertex 12.5 -29 12.5
      vertex -1 -29 7.5
    endloop
  endfacet
  facet normal 0 -1 0
    outer loop
      vertex 47 -29 -7.5
      vertex 12.5 -29 12.5
      vertex -1 -29 -7.5
    endloop
  endfacet
  facet normal 0 -1 0
    outer loop
      vertex 12.5 -29 12.5
      vertex 47 -29 -7.5
      vertex 47 -29 27.5
    endloop
  endfacet
  facet normal 0.856382 0.516343 0
    outer loop
      vertex 4.04508 2.93893 7.5
      vertex -7.49991 22.0869 -7.5
      vertex -7.49991 22.0869 7.5
    endloop
  endfacet
  facet normal 0.856382 0.516343 0
    outer loop
      vertex -7.49991 22.0869 -7.5
      vertex 4.04508 2.93893 7.5
      vertex 4.04508 2.93893 -7.5
    endloop
  endfacet
  facet normal -0.951057 0.309016 0
    outer loop
      vertex -16.4357 20.1876 -7.5
      vertex -16.1127 21.1817 7.5
      vertex -16.1127 21.1817 -7.5
    endloop
  endfacet
  facet normal -0.951057 0.309016 0
    outer loop
      vertex -16.1127 21.1817 7.5
      vertex -16.4357 20.1876 -7.5
      vertex -16.4357 20.1876 7.5
    endloop
  endfacet
  facet normal 0.994522 -0.104529 0
    outer loop
      vertex 4.89074 -1.03956 7.5
      vertex 5 0 -7.5
      vertex 5 0 7.5
    endloop
  endfacet
  facet normal 0.994522 -0.104529 0
    outer loop
      vertex 5 0 -7.5
      vertex 4.89074 -1.03956 7.5
      vertex 4.89074 -1.03956 -7.5
    endloop
  endfacet
  facet normal 0.866025 0.5 0
    outer loop
      vertex 4.56773 2.03368 7.5
      vertex 4.04508 2.93893 -7.5
      vertex 4.04508 2.93893 7.5
    endloop
  endfacet
  facet normal 0.866025 0.5 0
    outer loop
      vertex 4.04508 2.93893 -7.5
      vertex 4.56773 2.03368 7.5
      vertex 4.56773 2.03368 -7.5
    endloop
  endfacet
  facet normal 0.951057 0.309017 0
    outer loop
      vertex 4.89074 1.03956 7.5
      vertex 4.56773 2.03368 -7.5
      vertex 4.56773 2.03368 7.5
    endloop
  endfacet
  facet normal 0.951057 0.309017 0
    outer loop
      vertex 4.56773 2.03368 -7.5
      vertex 4.89074 1.03956 7.5
      vertex 4.89074 1.03956 -7.5
    endloop
  endfacet
  facet normal 0.743145 0.669131 0
    outer loop
      vertex -7.49991 22.0869 7.5
      vertex -8.19935 22.8637 -7.5
      vertex -8.19935 22.8637 7.5
    endloop
  endfacet
  facet normal 0.743145 0.669131 0
    outer loop
      vertex -8.19935 22.8637 -7.5
      vertex -7.49991 22.0869 7.5
      vertex -7.49991 22.0869 -7.5
    endloop
  endfacet
  facet normal 0.207912 0.978148 -0
    outer loop
      vertex -9.99991 23.9033 -7.5
      vertex -11.0224 24.1206 7.5
      vertex -9.99991 23.9033 7.5
    endloop
  endfacet
  facet normal 0.207912 0.978148 0
    outer loop
      vertex -11.0224 24.1206 7.5
      vertex -9.99991 23.9033 -7.5
      vertex -11.0224 24.1206 -7.5
    endloop
  endfacet
  facet normal -0.866025 0.500001 0
    outer loop
      vertex -16.1127 21.1817 -7.5
      vertex -15.5901 22.0869 7.5
      vertex -15.5901 22.0869 -7.5
    endloop
  endfacet
  facet normal -0.866025 0.500001 0
    outer loop
      vertex -15.5901 22.0869 7.5
      vertex -16.1127 21.1817 -7.5
      vertex -16.1127 21.1817 7.5
    endloop
  endfacet
  facet normal -0.951057 -0.309016 0
    outer loop
      vertex -16.1127 17.1143 -7.5
      vertex -16.4357 18.1084 7.5
      vertex -16.4357 18.1084 -7.5
    endloop
  endfacet
  facet normal -0.951057 -0.309016 0
    outer loop
      vertex -16.4357 18.1084 7.5
      vertex -16.1127 17.1143 -7.5
      vertex -16.1127 17.1143 7.5
    endloop
  endfacet
  facet normal -0.856382 -0.516343 0
    outer loop
      vertex -4.79648 -1.69269 -7.5
      vertex -15.5901 16.2091 7.5
      vertex -15.5901 16.2091 -7.5
    endloop
  endfacet
  facet normal -0.856382 -0.516343 0
    outer loop
      vertex -15.5901 16.2091 7.5
      vertex -4.79648 -1.69269 -7.5
      vertex -4.79648 -1.69269 7.5
    endloop
  endfacet
  facet normal -0.866025 -0.500001 0
    outer loop
      vertex -15.5901 16.2091 -7.5
      vertex -16.1127 17.1143 7.5
      vertex -16.1127 17.1143 -7.5
    endloop
  endfacet
  facet normal -0.866025 -0.500001 0
    outer loop
      vertex -16.1127 17.1143 7.5
      vertex -15.5901 16.2091 -7.5
      vertex -15.5901 16.2091 7.5
    endloop
  endfacet
  facet normal -0.587785 0.809017 0
    outer loop
      vertex -14.045 23.4781 -7.5
      vertex -14.8907 22.8637 7.5
      vertex -14.045 23.4781 7.5
    endloop
  endfacet
  facet normal -0.587785 0.809017 0
    outer loop
      vertex -14.8907 22.8637 7.5
      vertex -14.045 23.4781 -7.5
      vertex -14.8907 22.8637 -7.5
    endloop
  endfacet
  facet normal 0 1 -0
    outer loop
      vertex -11.0224 24.1206 -7.5
      vertex -12.0676 24.1206 7.5
      vertex -11.0224 24.1206 7.5
    endloop
  endfacet
  facet normal 0 1 0
    outer loop
      vertex -12.0676 24.1206 7.5
      vertex -11.0224 24.1206 -7.5
      vertex -12.0676 24.1206 -7.5
    endloop
  endfacet
  facet normal 0.587785 0.809017 -0
    outer loop
      vertex -8.19935 22.8637 -7.5
      vertex -9.045 23.4781 7.5
      vertex -8.19935 22.8637 7.5
    endloop
  endfacet
  facet normal 0.587785 0.809017 0
    outer loop
      vertex -9.045 23.4781 7.5
      vertex -8.19935 22.8637 -7.5
      vertex -9.045 23.4781 -7.5
    endloop
  endfacet
  facet normal -0.207912 0.978148 0
    outer loop
      vertex -12.0676 24.1206 -7.5
      vertex -13.0901 23.9033 7.5
      vertex -12.0676 24.1206 7.5
    endloop
  endfacet
  facet normal -0.207912 0.978148 0
    outer loop
      vertex -13.0901 23.9033 7.5
      vertex -12.0676 24.1206 -7.5
      vertex -13.0901 23.9033 -7.5
    endloop
  endfacet
  facet normal 0.994522 0.104529 0
    outer loop
      vertex 5 0 7.5
      vertex 4.89074 1.03956 -7.5
      vertex 4.89074 1.03956 7.5
    endloop
  endfacet
  facet normal 0.994522 0.104529 0
    outer loop
      vertex 4.89074 1.03956 -7.5
      vertex 5 0 7.5
      vertex 5 0 -7.5
    endloop
  endfacet
  facet normal -0.994522 -0.104527 0
    outer loop
      vertex -16.4357 18.1084 -7.5
      vertex -16.545 19.148 7.5
      vertex -16.545 19.148 -7.5
    endloop
  endfacet
  facet normal -0.994522 -0.104527 0
    outer loop
      vertex -16.545 19.148 7.5
      vertex -16.4357 18.1084 -7.5
      vertex -16.4357 18.1084 7.5
    endloop
  endfacet
  facet normal -0.743145 0.66913 0
    outer loop
      vertex -15.5901 22.0869 -7.5
      vertex -14.8907 22.8637 7.5
      vertex -14.8907 22.8637 -7.5
    endloop
  endfacet
  facet normal -0.743145 0.66913 0
    outer loop
      vertex -14.8907 22.8637 7.5
      vertex -15.5901 22.0869 -7.5
      vertex -15.5901 22.0869 7.5
    endloop
  endfacet
  facet normal -0.406737 0.913545 0
    outer loop
      vertex -13.0901 23.9033 -7.5
      vertex -14.045 23.4781 7.5
      vertex -13.0901 23.9033 7.5
    endloop
  endfacet
  facet normal -0.406737 0.913545 0
    outer loop
      vertex -14.045 23.4781 7.5
      vertex -13.0901 23.9033 -7.5
      vertex -14.045 23.4781 -7.5
    endloop
  endfacet
  facet normal 0 0 1
    outer loop
      vertex 4.89074 1.03956 7.5
      vertex 2.94439 1.89224 7.5
      vertex 3.5 0 7.5
    endloop
  endfacet
  facet normal 0 0 1
    outer loop
      vertex 4.04508 2.93893 7.5
      vertex 1.45395 3.18371 7.5
      vertex 2.94439 1.89224 7.5
    endloop
  endfacet
  facet normal 0 0 1
    outer loop
      vertex -8.045 19.148 7.5
      vertex 1.45395 3.18371 7.5
      vertex 4.04508 2.93893 7.5
    endloop
  endfacet
  facet normal 0 0 1
    outer loop
      vertex -3.35822 0.986063 7.5
      vertex -4.79648 -1.69269 7.5
      vertex -3.35822 -0.986063 7.5
    endloop
  endfacet
  facet normal -0 0 1
    outer loop
      vertex -8.045 19.148 7.5
      vertex 4.04508 2.93893 7.5
      vertex -7.49991 22.0869 7.5
    endloop
  endfacet
  facet normal -0 0 1
    outer loop
      vertex -8.60061 17.2558 7.5
      vertex 1.45395 3.18371 7.5
      vertex -8.045 19.148 7.5
    endloop
  endfacet
  facet normal 0 0 1
    outer loop
      vertex 1.45395 3.18371 7.5
      vertex -8.60061 17.2558 7.5
      vertex -0.498101 3.46437 7.5
    endloop
  endfacet
  facet normal -0 0 1
    outer loop
      vertex -10.091 15.9643 7.5
      vertex -0.498101 3.46437 7.5
      vertex -8.60061 17.2558 7.5
    endloop
  endfacet
  facet normal 0 0 1
    outer loop
      vertex -0.498101 3.46437 7.5
      vertex -10.091 15.9643 7.5
      vertex -2.29201 2.64512 7.5
    endloop
  endfacet
  facet normal -0 0 1
    outer loop
      vertex -12.0431 15.6836 7.5
      vertex -2.29201 2.64512 7.5
      vertex -10.091 15.9643 7.5
    endloop
  endfacet
  facet normal 0 0 1
    outer loop
      vertex -2.29201 2.64512 7.5
      vertex -12.0431 15.6836 7.5
      vertex -3.35822 0.986063 7.5
    endloop
  endfacet
  facet normal 0 0 1
    outer loop
      vertex -3.35822 0.986063 7.5
      vertex -12.0431 15.6836 7.5
      vertex -4.79648 -1.69269 7.5
    endloop
  endfacet
  facet normal -0 0 1
    outer loop
      vertex -15.5901 16.2091 7.5
      vertex -12.0431 15.6836 7.5
      vertex -13.837 16.5029 7.5
    endloop
  endfacet
  facet normal 0 0 1
    outer loop
      vertex -15.5901 16.2091 7.5
      vertex -13.837 16.5029 7.5
      vertex -14.9032 18.1619 7.5
    endloop
  endfacet
  facet normal 0 0 1
    outer loop
      vertex -12.0431 15.6836 7.5
      vertex -15.5901 16.2091 7.5
      vertex -4.79648 -1.69269 7.5
    endloop
  endfacet
  facet normal -0 0 1
    outer loop
      vertex -16.4357 20.1876 7.5
      vertex -14.9032 20.1341 7.5
      vertex -16.1127 21.1817 7.5
    endloop
  endfacet
  facet normal 0 0 1
    outer loop
      vertex -16.545 19.148 7.5
      vertex -14.9032 20.1341 7.5
      vertex -16.4357 20.1876 7.5
    endloop
  endfacet
  facet normal 0 0 1
    outer loop
      vertex -14.9032 18.1619 7.5
      vertex -16.1127 17.1143 7.5
      vertex -15.5901 16.2091 7.5
    endloop
  endfacet
  facet normal 0 0 1
    outer loop
      vertex -14.9032 20.1341 7.5
      vertex -16.545 19.148 7.5
      vertex -14.9032 18.1619 7.5
    endloop
  endfacet
  facet normal 0 0 1
    outer loop
      vertex -14.9032 18.1619 7.5
      vertex -16.4357 18.1084 7.5
      vertex -16.1127 17.1143 7.5
    endloop
  endfacet
  facet normal 0 0 1
    outer loop
      vertex -14.9032 18.1619 7.5
      vertex -16.545 19.148 7.5
      vertex -16.4357 18.1084 7.5
    endloop
  endfacet
  facet normal 0 0 1
    outer loop
      vertex 3.5 0 7.5
      vertex 5 0 7.5
      vertex 4.89074 1.03956 7.5
    endloop
  endfacet
  facet normal -0 0 1
    outer loop
      vertex 2.94439 1.89224 7.5
      vertex 4.89074 1.03956 7.5
      vertex 4.56773 2.03368 7.5
    endloop
  endfacet
  facet normal 0 0 1
    outer loop
      vertex 2.94439 1.89224 7.5
      vertex 4.56773 2.03368 7.5
      vertex 4.04508 2.93893 7.5
    endloop
  endfacet
  facet normal 0 0 1
    outer loop
      vertex 5 0 7.5
      vertex 3.5 0 7.5
      vertex 4.89074 -1.03956 7.5
    endloop
  endfacet
  facet normal 0 0 1
    outer loop
      vertex 2.94439 -1.89224 7.5
      vertex 4.89074 -1.03956 7.5
      vertex 3.5 0 7.5
    endloop
  endfacet
  facet normal 0 0 1
    outer loop
      vertex 1.45395 -3.18371 7.5
      vertex 4.89074 -1.03956 7.5
      vertex 2.94439 -1.89224 7.5
    endloop
  endfacet
  facet normal 0 0 1
    outer loop
      vertex 4.89074 -1.03956 7.5
      vertex 1.45395 -3.18371 7.5
      vertex 2.38778 -18.3835 7.5
    endloop
  endfacet
  facet normal -0 0 1
    outer loop
      vertex -0.498101 -3.46437 7.5
      vertex 2.38778 -18.3835 7.5
      vertex 1.45395 -3.18371 7.5
    endloop
  endfacet
  facet normal 0 0 1
    outer loop
      vertex 2.38778 -18.3835 7.5
      vertex -1 -27 7.5
      vertex 11 -27 7.5
    endloop
  endfacet
  facet normal 0 0 1
    outer loop
      vertex -2.29201 -2.64512 7.5
      vertex 2.38778 -18.3835 7.5
      vertex -0.498101 -3.46437 7.5
    endloop
  endfacet
  facet normal 0 0 1
    outer loop
      vertex -4.79648 -1.69269 7.5
      vertex 2.38778 -18.3835 7.5
      vertex -2.29201 -2.64512 7.5
    endloop
  endfacet
  facet normal 0 0 1
    outer loop
      vertex 2.38778 -18.3835 7.5
      vertex -4.79648 -1.69269 7.5
      vertex -1 -27 7.5
    endloop
  endfacet
  facet normal -0 0 1
    outer loop
      vertex -4.79648 -1.69269 7.5
      vertex -2.29201 -2.64512 7.5
      vertex -3.35822 -0.986063 7.5
    endloop
  endfacet
  facet normal 0 0 1
    outer loop
      vertex -1 -27 7.5
      vertex -4.79648 -1.69269 7.5
      vertex -1 -28 7.5
    endloop
  endfacet
  facet normal 0 0 1
    outer loop
      vertex -8.60061 21.0402 7.5
      vertex -7.49991 22.0869 7.5
      vertex -8.19935 22.8637 7.5
    endloop
  endfacet
  facet normal 0 0 1
    outer loop
      vertex -7.49991 22.0869 7.5
      vertex -8.60061 21.0402 7.5
      vertex -8.045 19.148 7.5
    endloop
  endfacet
  facet normal 0 0 1
    outer loop
      vertex -10.091 22.3317 7.5
      vertex -8.19935 22.8637 7.5
      vertex -9.045 23.4781 7.5
    endloop
  endfacet
  facet normal 0 0 1
    outer loop
      vertex -10.091 22.3317 7.5
      vertex -9.045 23.4781 7.5
      vertex -9.99991 23.9033 7.5
    endloop
  endfacet
  facet normal 0 0 1
    outer loop
      vertex -8.19935 22.8637 7.5
      vertex -10.091 22.3317 7.5
      vertex -8.60061 21.0402 7.5
    endloop
  endfacet
  facet normal 0 0 1
    outer loop
      vertex -11.0224 24.1206 7.5
      vertex -10.091 22.3317 7.5
      vertex -9.99991 23.9033 7.5
    endloop
  endfacet
  facet normal 0 0 1
    outer loop
      vertex -11.0224 24.1206 7.5
      vertex -12.0431 22.6124 7.5
      vertex -10.091 22.3317 7.5
    endloop
  endfacet
  facet normal -0 0 1
    outer loop
      vertex -12.0676 24.1206 7.5
      vertex -12.0431 22.6124 7.5
      vertex -11.0224 24.1206 7.5
    endloop
  endfacet
  facet normal -0 0 1
    outer loop
      vertex -13.0901 23.9033 7.5
      vertex -12.0431 22.6124 7.5
      vertex -12.0676 24.1206 7.5
    endloop
  endfacet
  facet normal -0 0 1
    outer loop
      vertex -14.045 23.4781 7.5
      vertex -12.0431 22.6124 7.5
      vertex -13.0901 23.9033 7.5
    endloop
  endfacet
  facet normal 0 0 1
    outer loop
      vertex -12.0431 22.6124 7.5
      vertex -14.045 23.4781 7.5
      vertex -13.837 21.7931 7.5
    endloop
  endfacet
  facet normal -0 0 1
    outer loop
      vertex -14.8907 22.8637 7.5
      vertex -13.837 21.7931 7.5
      vertex -14.045 23.4781 7.5
    endloop
  endfacet
  facet normal -0 0 1
    outer loop
      vertex -15.5901 22.0869 7.5
      vertex -13.837 21.7931 7.5
      vertex -14.8907 22.8637 7.5
    endloop
  endfacet
  facet normal -0 0 1
    outer loop
      vertex -16.1127 21.1817 7.5
      vertex -14.9032 20.1341 7.5
      vertex -15.5901 22.0869 7.5
    endloop
  endfacet
  facet normal 0 0 1
    outer loop
      vertex -13.837 21.7931 7.5
      vertex -15.5901 22.0869 7.5
      vertex -14.9032 20.1341 7.5
    endloop
  endfacet
  facet normal -0.994522 0.104527 0
    outer loop
      vertex -16.545 19.148 -7.5
      vertex -16.4357 20.1876 7.5
      vertex -16.4357 20.1876 -7.5
    endloop
  endfacet
  facet normal -0.994522 0.104527 0
    outer loop
      vertex -16.4357 20.1876 7.5
      vertex -16.545 19.148 -7.5
      vertex -16.545 19.148 7.5
    endloop
  endfacet
  facet normal 0.406737 0.913545 -0
    outer loop
      vertex -9.045 23.4781 -7.5
      vertex -9.99991 23.9033 7.5
      vertex -9.045 23.4781 7.5
    endloop
  endfacet
  facet normal 0.406737 0.913545 0
    outer loop
      vertex -9.99991 23.9033 7.5
      vertex -9.045 23.4781 -7.5
      vertex -9.99991 23.9033 -7.5
    endloop
  endfacet
  facet normal 0.989747 -0.142833 0
    outer loop
      vertex 2.38778 -18.3835 7.5
      vertex 4.89074 -1.03956 -7.5
      vertex 4.89074 -1.03956 7.5
    endloop
  endfacet
  facet normal 0.989747 -0.142833 0
    outer loop
      vertex 4.89074 -1.03956 -7.5
      vertex 2.38778 -18.3835 7.5
      vertex 2.38778 -18.3835 -7.5
    endloop
  endfacet
  facet normal -0.989747 -0.142833 0
    outer loop
      vertex -1 -28 -7.5
      vertex -4.79648 -1.69269 7.5
      vertex -4.79648 -1.69269 -7.5
    endloop
  endfacet
  facet normal -0.989747 -0.142833 0
    outer loop
      vertex -4.79648 -1.69269 7.5
      vertex -1 -28 -7.5
      vertex -1 -28 7.5
    endloop
  endfacet
  facet normal 0.707282 0.706932 0
    outer loop
      vertex 11 -27 7.5
      vertex 2.38778 -18.3835 -7.5
      vertex 2.38778 -18.3835 7.5
    endloop
  endfacet
  facet normal 0.707282 0.706932 0
    outer loop
      vertex 2.38778 -18.3835 -7.5
      vertex 11 -27 7.5
      vertex 11 -27 -7.5
    endloop
  endfacet
  facet normal -0.398726 0 0.91707
    outer loop
      vertex 12.5 -27 12.5
      vertex 47 -29 27.5
      vertex 47 -27 27.5
    endloop
  endfacet
  facet normal -0.398726 0 0.91707
    outer loop
      vertex 47 -29 27.5
      vertex 12.5 -27 12.5
      vertex 12.5 -29 12.5
    endloop
  endfacet
  facet normal 1 -0 0
    outer loop
      vertex 62.5 -31.2 27.5
      vertex 62.5 -27 20
      vertex 62.5 -27 27.5
    endloop
  endfacet
  facet normal 1 0 0
    outer loop
      vertex 62.5 -27 20
      vertex 62.5 -31.2 27.5
      vertex 62.5 -31.2 20
    endloop
  endfacet
  facet normal 1 -0 0
    outer loop
      vertex 62.5 -31.2 0
      vertex 62.5 -27 -7.5
      vertex 62.5 -27 0
    endloop
  endfacet
  facet normal 1 0 0
    outer loop
      vertex 62.5 -27 -7.5
      vertex 62.5 -31.2 0
      vertex 62.5 -31.2 -7.5
    endloop
  endfacet
  facet normal -0.250567 -0.968099 -5.79295e-008
    outer loop
      vertex 47 -29 27.5
      vertex 49 -29.5176 20
      vertex 55.5 -31.2 27.5
    endloop
  endfacet
  facet normal -0.250567 -0.968099 0
    outer loop
      vertex 47 -29 27.5
      vertex 49 -29.5176 0
      vertex 49 -29.5176 20
    endloop
  endfacet
  facet normal -0.250567 -0.968099 0
    outer loop
      vertex 47 -29 -7.5
      vertex 49 -29.5176 0
      vertex 47 -29 27.5
    endloop
  endfacet
  facet normal -0.250567 -0.968099 5.79295e-008
    outer loop
      vertex 55.5 -31.2 -7.5
      vertex 49 -29.5176 0
      vertex 47 -29 -7.5
    endloop
  endfacet
  facet normal -0.250567 -0.968099 0
    outer loop
      vertex 49 -29.5176 0
      vertex 55.5 -31.2 -7.5
      vertex 55.5 -31.2 0
    endloop
  endfacet
  facet normal -0.250567 -0.968099 -0
    outer loop
      vertex 55.5 -31.2 27.5
      vertex 49 -29.5176 20
      vertex 55.5 -31.2 20
    endloop
  endfacet
  facet normal 0 -1 0
    outer loop
      vertex 55.5 -31.2 20
      vertex 62.5 -31.2 27.5
      vertex 55.5 -31.2 27.5
    endloop
  endfacet
  facet normal 0 -1 -0
    outer loop
      vertex 62.5 -31.2 27.5
      vertex 55.5 -31.2 20
      vertex 62.5 -31.2 20
    endloop
  endfacet
  facet normal 0 -1 0
    outer loop
      vertex 55.5 -31.2 -7.5
      vertex 62.5 -31.2 0
      vertex 55.5 -31.2 0
    endloop
  endfacet
  facet normal 0 -1 -0
    outer loop
      vertex 62.5 -31.2 0
      vertex 55.5 -31.2 -7.5
      vertex 62.5 -31.2 -7.5
    endloop
  endfacet
  facet normal -0.900969 -0.433884 0
    outer loop
      vertex 2 0 -7.5
      vertex 1.24698 1.56366 -2.55
      vertex 1.24698 1.56366 -7.5
    endloop
  endfacet
  facet normal -0.900969 -0.433884 0
    outer loop
      vertex 1.24698 1.56366 -2.55
      vertex 2 0 -7.5
      vertex 2 0 -2.55
    endloop
  endfacet
  facet normal 1 -0 0
    outer loop
      vertex -1.80194 -0.867767 -2.55
      vertex -1.80194 0.867767 -7.5
      vertex -1.80194 0.867767 -2.55
    endloop
  endfacet
  facet normal 1 0 0
    outer loop
      vertex -1.80194 0.867767 -7.5
      vertex -1.80194 -0.867767 -2.55
      vertex -1.80194 -0.867767 -7.5
    endloop
  endfacet
  facet normal -0.222521 -0.974928 0
    outer loop
      vertex -0.445042 1.94986 -7.5
      vertex 1.24698 1.56366 -2.55
      vertex -0.445042 1.94986 -2.55
    endloop
  endfacet
  facet normal -0.222521 -0.974928 -0
    outer loop
      vertex 1.24698 1.56366 -2.55
      vertex -0.445042 1.94986 -7.5
      vertex 1.24698 1.56366 -7.5
    endloop
  endfacet
  facet normal 0.62349 0.781831 -0
    outer loop
      vertex -0.445042 -1.94986 -7.5
      vertex -1.80194 -0.867767 -2.55
      vertex -0.445042 -1.94986 -2.55
    endloop
  endfacet
  facet normal 0.62349 0.781831 0
    outer loop
      vertex -1.80194 -0.867767 -2.55
      vertex -0.445042 -1.94986 -7.5
      vertex -1.80194 -0.867767 -7.5
    endloop
  endfacet
  facet normal 0.62349 -0.781831 0
    outer loop
      vertex -1.80194 0.867767 -7.5
      vertex -0.445042 1.94986 -2.55
      vertex -1.80194 0.867767 -2.55
    endloop
  endfacet
  facet normal 0.62349 -0.781831 0
    outer loop
      vertex -0.445042 1.94986 -2.55
      vertex -1.80194 0.867767 -7.5
      vertex -0.445042 1.94986 -7.5
    endloop
  endfacet
  facet normal -0.900969 0.433884 0
    outer loop
      vertex 1.24698 -1.56366 -7.5
      vertex 2 0 -2.55
      vertex 2 0 -7.5
    endloop
  endfacet
  facet normal -0.900969 0.433884 0
    outer loop
      vertex 2 0 -2.55
      vertex 1.24698 -1.56366 -7.5
      vertex 1.24698 -1.56366 -2.55
    endloop
  endfacet
  facet normal -0.222521 0.974928 0
    outer loop
      vertex 1.24698 -1.56366 -7.5
      vertex -0.445042 -1.94986 -2.55
      vertex 1.24698 -1.56366 -2.55
    endloop
  endfacet
  facet normal -0.222521 0.974928 0
    outer loop
      vertex -0.445042 -1.94986 -2.55
      vertex 1.24698 -1.56366 -7.5
      vertex -0.445042 -1.94986 -7.5
    endloop
  endfacet
  facet normal -0.959493 -0.281733 0
    outer loop
      vertex 3.5 0 -2.55
      vertex 2.94439 1.89224 7.5
      vertex 2.94439 1.89224 -2.55
    endloop
  endfacet
  facet normal -0.959493 -0.281733 0
    outer loop
      vertex 2.94439 1.89224 7.5
      vertex 3.5 0 -2.55
      vertex 3.5 0 7.5
    endloop
  endfacet
  facet normal 1 -0 0
    outer loop
      vertex -3.35822 -0.986063 7.5
      vertex -3.35822 0.986063 -2.55
      vertex -3.35822 0.986063 7.5
    endloop
  endfacet
  facet normal 1 0 0
    outer loop
      vertex -3.35822 0.986063 -2.55
      vertex -3.35822 -0.986063 7.5
      vertex -3.35822 -0.986063 -2.55
    endloop
  endfacet
  facet normal 0.415415 -0.909632 0
    outer loop
      vertex -2.29201 2.64512 -2.55
      vertex -0.498101 3.46437 7.5
      vertex -2.29201 2.64512 7.5
    endloop
  endfacet
  facet normal 0.415415 -0.909632 0
    outer loop
      vertex -0.498101 3.46437 7.5
      vertex -2.29201 2.64512 -2.55
      vertex -0.498101 3.46437 -2.55
    endloop
  endfacet
  facet normal 0.841254 -0.540641 0
    outer loop
      vertex -3.35822 0.986063 7.5
      vertex -2.29201 2.64512 -2.55
      vertex -2.29201 2.64512 7.5
    endloop
  endfacet
  facet normal 0.841254 -0.540641 0
    outer loop
      vertex -2.29201 2.64512 -2.55
      vertex -3.35822 0.986063 7.5
      vertex -3.35822 0.986063 -2.55
    endloop
  endfacet
  facet normal -0.959493 0.281733 0
    outer loop
      vertex 2.94439 -1.89224 -2.55
      vertex 3.5 0 7.5
      vertex 3.5 0 -2.55
    endloop
  endfacet
  facet normal -0.959493 0.281733 0
    outer loop
      vertex 3.5 0 7.5
      vertex 2.94439 -1.89224 -2.55
      vertex 2.94439 -1.89224 7.5
    endloop
  endfacet
  facet normal 0 0 1
    outer loop
      vertex 2 0 -2.55
      vertex 3.5 0 -2.55
      vertex 2.94439 1.89224 -2.55
    endloop
  endfacet
  facet normal 0 0 1
    outer loop
      vertex 3.5 0 -2.55
      vertex 2 0 -2.55
      vertex 2.94439 -1.89224 -2.55
    endloop
  endfacet
  facet normal 0 0 1
    outer loop
      vertex 1.24698 1.56366 -2.55
      vertex 2.94439 1.89224 -2.55
      vertex 1.45395 3.18371 -2.55
    endloop
  endfacet
  facet normal 0 0 1
    outer loop
      vertex 2.94439 1.89224 -2.55
      vertex 1.24698 1.56366 -2.55
      vertex 2 0 -2.55
    endloop
  endfacet
  facet normal 0 0 1
    outer loop
      vertex 1.45395 3.18371 -2.55
      vertex -0.445042 1.94986 -2.55
      vertex 1.24698 1.56366 -2.55
    endloop
  endfacet
  facet normal 0 0 1
    outer loop
      vertex -0.498101 3.46437 -2.55
      vertex -0.445042 1.94986 -2.55
      vertex 1.45395 3.18371 -2.55
    endloop
  endfacet
  facet normal -0 0 1
    outer loop
      vertex -2.29201 2.64512 -2.55
      vertex -0.445042 1.94986 -2.55
      vertex -0.498101 3.46437 -2.55
    endloop
  endfacet
  facet normal -0 0 1
    outer loop
      vertex -3.35822 0.986063 -2.55
      vertex -1.80194 0.867767 -2.55
      vertex -2.29201 2.64512 -2.55
    endloop
  endfacet
  facet normal 0 0 1
    outer loop
      vertex -0.445042 1.94986 -2.55
      vertex -2.29201 2.64512 -2.55
      vertex -1.80194 0.867767 -2.55
    endloop
  endfacet
  facet normal -0 0 1
    outer loop
      vertex 1.24698 -1.56366 -2.55
      vertex 2.94439 -1.89224 -2.55
      vertex 2 0 -2.55
    endloop
  endfacet
  facet normal 0 0 1
    outer loop
      vertex 2.94439 -1.89224 -2.55
      vertex 1.24698 -1.56366 -2.55
      vertex 1.45395 -3.18371 -2.55
    endloop
  endfacet
  facet normal -0 0 1
    outer loop
      vertex -0.445042 -1.94986 -2.55
      vertex 1.45395 -3.18371 -2.55
      vertex 1.24698 -1.56366 -2.55
    endloop
  endfacet
  facet normal 0 0 1
    outer loop
      vertex -0.445042 -1.94986 -2.55
      vertex -0.498101 -3.46437 -2.55
      vertex 1.45395 -3.18371 -2.55
    endloop
  endfacet
  facet normal 0 0 1
    outer loop
      vertex -2.29201 -2.64512 -2.55
      vertex -0.445042 -1.94986 -2.55
      vertex -1.80194 -0.867767 -2.55
    endloop
  endfacet
  facet normal 0 0 1
    outer loop
      vertex -0.445042 -1.94986 -2.55
      vertex -2.29201 -2.64512 -2.55
      vertex -0.498101 -3.46437 -2.55
    endloop
  endfacet
  facet normal 0 0 1
    outer loop
      vertex -1.80194 0.867767 -2.55
      vertex -3.35822 0.986063 -2.55
      vertex -1.80194 -0.867767 -2.55
    endloop
  endfacet
  facet normal 0 0 1
    outer loop
      vertex -3.35822 -0.986063 -2.55
      vertex -1.80194 -0.867767 -2.55
      vertex -3.35822 0.986063 -2.55
    endloop
  endfacet
  facet normal 0 0 1
    outer loop
      vertex -1.80194 -0.867767 -2.55
      vertex -3.35822 -0.986063 -2.55
      vertex -2.29201 -2.64512 -2.55
    endloop
  endfacet
  facet normal -0.142315 -0.989821 0
    outer loop
      vertex -0.498101 3.46437 -2.55
      vertex 1.45395 3.18371 7.5
      vertex -0.498101 3.46437 7.5
    endloop
  endfacet
  facet normal -0.142315 -0.989821 -0
    outer loop
      vertex 1.45395 3.18371 7.5
      vertex -0.498101 3.46437 -2.55
      vertex 1.45395 3.18371 -2.55
    endloop
  endfacet
  facet normal -0.654861 -0.75575 0
    outer loop
      vertex 1.45395 3.18371 -2.55
      vertex 2.94439 1.89224 7.5
      vertex 1.45395 3.18371 7.5
    endloop
  endfacet
  facet normal -0.654861 -0.75575 -0
    outer loop
      vertex 2.94439 1.89224 7.5
      vertex 1.45395 3.18371 -2.55
      vertex 2.94439 1.89224 -2.55
    endloop
  endfacet
  facet normal 0.841254 0.540641 0
    outer loop
      vertex -2.29201 -2.64512 7.5
      vertex -3.35822 -0.986063 -2.55
      vertex -3.35822 -0.986063 7.5
    endloop
  endfacet
  facet normal 0.841254 0.540641 0
    outer loop
      vertex -3.35822 -0.986063 -2.55
      vertex -2.29201 -2.64512 7.5
      vertex -2.29201 -2.64512 -2.55
    endloop
  endfacet
  facet normal -0.654861 0.75575 0
    outer loop
      vertex 2.94439 -1.89224 -2.55
      vertex 1.45395 -3.18371 7.5
      vertex 2.94439 -1.89224 7.5
    endloop
  endfacet
  facet normal -0.654861 0.75575 0
    outer loop
      vertex 1.45395 -3.18371 7.5
      vertex 2.94439 -1.89224 -2.55
      vertex 1.45395 -3.18371 -2.55
    endloop
  endfacet
  facet normal -0.142315 0.989821 0
    outer loop
      vertex 1.45395 -3.18371 -2.55
      vertex -0.498101 -3.46437 7.5
      vertex 1.45395 -3.18371 7.5
    endloop
  endfacet
  facet normal -0.142315 0.989821 0
    outer loop
      vertex -0.498101 -3.46437 7.5
      vertex 1.45395 -3.18371 -2.55
      vertex -0.498101 -3.46437 -2.55
    endloop
  endfacet
  facet normal 0.415415 0.909632 -0
    outer loop
      vertex -0.498101 -3.46437 -2.55
      vertex -2.29201 -2.64512 7.5
      vertex -0.498101 -3.46437 7.5
    endloop
  endfacet
  facet normal 0.415415 0.909632 0
    outer loop
      vertex -2.29201 -2.64512 7.5
      vertex -0.498101 -3.46437 -2.55
      vertex -2.29201 -2.64512 -2.55
    endloop
  endfacet
  facet normal 1 -0 0
    outer loop
      vertex 49 -29.5176 20
      vertex 49 -27 0
      vertex 49 -27 20
    endloop
  endfacet
  facet normal 1 0 0
    outer loop
      vertex 49 -27 0
      vertex 49 -29.5176 20
      vertex 49 -29.5176 0
    endloop
  endfacet
  facet normal 0 0 -1
    outer loop
      vertex 62.5 -31.2 20
      vertex 57.5 -29 20
      vertex 62.5 -27 20
    endloop
  endfacet
  facet normal 0 0 -1
    outer loop
      vertex 62.5 -31.2 20
      vertex 56.809 -29.9511 20
      vertex 57.5 -29 20
    endloop
  endfacet
  facet normal 0 0 -1
    outer loop
      vertex 49 -29.5176 20
      vertex 55.691 -29.5878 20
      vertex 55.5 -31.2 20
    endloop
  endfacet
  facet normal -0 0 -1
    outer loop
      vertex 56.809 -29.9511 20
      vertex 55.5 -31.2 20
      vertex 55.691 -29.5878 20
    endloop
  endfacet
  facet normal 0 0 -1
    outer loop
      vertex 55.5 -31.2 20
      vertex 56.809 -29.9511 20
      vertex 62.5 -31.2 20
    endloop
  endfacet
  facet normal 0 0 -1
    outer loop
      vertex 56.809 -28.0489 20
      vertex 62.5 -27 20
      vertex 57.5 -29 20
    endloop
  endfacet
  facet normal 0 0 -1
    outer loop
      vertex 55.691 -29.5878 20
      vertex 49 -29.5176 20
      vertex 55.691 -28.4122 20
    endloop
  endfacet
  facet normal 0 0 -1
    outer loop
      vertex 49 -27 20
      vertex 55.691 -28.4122 20
      vertex 49 -29.5176 20
    endloop
  endfacet
  facet normal 0 0 -1
    outer loop
      vertex 56.809 -28.0489 20
      vertex 49 -27 20
      vertex 62.5 -27 20
    endloop
  endfacet
  facet normal 0 0 -1
    outer loop
      vertex 55.691 -28.4122 20
      vertex 49 -27 20
      vertex 56.809 -28.0489 20
    endloop
  endfacet
  facet normal 0 0 1
    outer loop
      vertex 62.5 -27 0
      vertex 57.5 -29 0
      vertex 62.5 -31.2 0
    endloop
  endfacet
  facet normal 0 0 1
    outer loop
      vertex 62.5 -27 0
      vertex 56.809 -28.0489 0
      vertex 57.5 -29 0
    endloop
  endfacet
  facet normal -0 0 1
    outer loop
      vertex 49 -29.5176 0
      vertex 55.691 -29.5878 0
      vertex 55.691 -28.4122 0
    endloop
  endfacet
  facet normal -0 0 1
    outer loop
      vertex 49 -27 0
      vertex 56.809 -28.0489 0
      vertex 62.5 -27 0
    endloop
  endfacet
  facet normal 0 0 1
    outer loop
      vertex 49 -27 0
      vertex 55.691 -28.4122 0
      vertex 56.809 -28.0489 0
    endloop
  endfacet
  facet normal 0 0 1
    outer loop
      vertex 49 -29.5176 0
      vertex 55.691 -28.4122 0
      vertex 49 -27 0
    endloop
  endfacet
  facet normal 0 0 1
    outer loop
      vertex 55.691 -29.5878 0
      vertex 49 -29.5176 0
      vertex 55.5 -31.2 0
    endloop
  endfacet
  facet normal -0 0 1
    outer loop
      vertex 56.809 -29.9511 0
      vertex 62.5 -31.2 0
      vertex 57.5 -29 0
    endloop
  endfacet
  facet normal 0 0 1
    outer loop
      vertex 56.809 -29.9511 0
      vertex 55.5 -31.2 0
      vertex 62.5 -31.2 0
    endloop
  endfacet
  facet normal 0 0 1
    outer loop
      vertex 55.5 -31.2 0
      vertex 56.809 -29.9511 0
      vertex 55.691 -29.5878 0
    endloop
  endfacet
  facet normal -0.809017 -0.587785 0
    outer loop
      vertex 57.5 -29 -7.5
      vertex 56.809 -28.0489 0
      vertex 56.809 -28.0489 -7.5
    endloop
  endfacet
  facet normal -0.809017 -0.587785 0
    outer loop
      vertex 56.809 -28.0489 0
      vertex 57.5 -29 -7.5
      vertex 57.5 -29 0
    endloop
  endfacet
  facet normal -0.809017 -0.587785 0
    outer loop
      vertex 57.5 -29 20
      vertex 56.809 -28.0489 27.5
      vertex 56.809 -28.0489 20
    endloop
  endfacet
  facet normal -0.809017 -0.587785 0
    outer loop
      vertex 56.809 -28.0489 27.5
      vertex 57.5 -29 20
      vertex 57.5 -29 27.5
    endloop
  endfacet
  facet normal 1 -0 0
    outer loop
      vertex 55.691 -29.5878 0
      vertex 55.691 -28.4122 -7.5
      vertex 55.691 -28.4122 0
    endloop
  endfacet
  facet normal 1 0 0
    outer loop
      vertex 55.691 -28.4122 -7.5
      vertex 55.691 -29.5878 0
      vertex 55.691 -29.5878 -7.5
    endloop
  endfacet
  facet normal 1 -0 0
    outer loop
      vertex 55.691 -29.5878 27.5
      vertex 55.691 -28.4122 20
      vertex 55.691 -28.4122 27.5
    endloop
  endfacet
  facet normal 1 0 0
    outer loop
      vertex 55.691 -28.4122 20
      vertex 55.691 -29.5878 27.5
      vertex 55.691 -29.5878 20
    endloop
  endfacet
  facet normal 0.309017 -0.951056 0
    outer loop
      vertex 55.691 -28.4122 -7.5
      vertex 56.809 -28.0489 0
      vertex 55.691 -28.4122 0
    endloop
  endfacet
  facet normal 0.309017 -0.951056 0
    outer loop
      vertex 56.809 -28.0489 0
      vertex 55.691 -28.4122 -7.5
      vertex 56.809 -28.0489 -7.5
    endloop
  endfacet
  facet normal 0.309017 -0.951056 0
    outer loop
      vertex 55.691 -28.4122 20
      vertex 56.809 -28.0489 27.5
      vertex 55.691 -28.4122 27.5
    endloop
  endfacet
  facet normal 0.309017 -0.951056 0
    outer loop
      vertex 56.809 -28.0489 27.5
      vertex 55.691 -28.4122 20
      vertex 56.809 -28.0489 20
    endloop
  endfacet
  facet normal -0.809017 0.587785 0
    outer loop
      vertex 56.809 -29.9511 -7.5
      vertex 57.5 -29 0
      vertex 57.5 -29 -7.5
    endloop
  endfacet
  facet normal -0.809017 0.587785 0
    outer loop
      vertex 57.5 -29 0
      vertex 56.809 -29.9511 -7.5
      vertex 56.809 -29.9511 0
    endloop
  endfacet
  facet normal -0.809017 0.587785 0
    outer loop
      vertex 56.809 -29.9511 20
      vertex 57.5 -29 27.5
      vertex 57.5 -29 20
    endloop
  endfacet
  facet normal -0.809017 0.587785 0
    outer loop
      vertex 57.5 -29 27.5
      vertex 56.809 -29.9511 20
      vertex 56.809 -29.9511 27.5
    endloop
  endfacet
  facet normal 0.309019 0.951056 -0
    outer loop
      vertex 56.809 -29.9511 -7.5
      vertex 55.691 -29.5878 0
      vertex 56.809 -29.9511 0
    endloop
  endfacet
  facet normal 0.309019 0.951056 0
    outer loop
      vertex 55.691 -29.5878 0
      vertex 56.809 -29.9511 -7.5
      vertex 55.691 -29.5878 -7.5
    endloop
  endfacet
  facet normal 0.309019 0.951056 -0
    outer loop
      vertex 56.809 -29.9511 20
      vertex 55.691 -29.5878 27.5
      vertex 56.809 -29.9511 27.5
    endloop
  endfacet
  facet normal 0.309019 0.951056 0
    outer loop
      vertex 55.691 -29.5878 27.5
      vertex 56.809 -29.9511 20
      vertex 55.691 -29.5878 20
    endloop
  endfacet
endsolid OpenSCAD_Model
